<?xml version="1.0" encoding="UTF-8" standalone="no"?>
<!-- Created with Inkscape (http://www.inkscape.org/) -->

<svg
   width="210mm"
   height="297mm"
   viewBox="0 0 210 297"
   version="1.1"
   id="svg5"
   inkscape:version="1.1 (c68e22c387, 2021-05-23)"
   sodipodi:docname="4pt_filtration.svg"
   xmlns:inkscape="http://www.inkscape.org/namespaces/inkscape"
   xmlns:sodipodi="http://sodipodi.sourceforge.net/DTD/sodipodi-0.dtd"
   xmlns="http://www.w3.org/2000/svg"
   xmlns:svg="http://www.w3.org/2000/svg">
  <sodipodi:namedview
     id="namedview7"
     pagecolor="#ffffff"
     bordercolor="#111111"
     borderopacity="1"
     inkscape:pageshadow="0"
     inkscape:pageopacity="0"
     inkscape:pagecheckerboard="1"
     inkscape:document-units="mm"
     showgrid="false"
     inkscape:zoom="0.76225199"
     inkscape:cx="215.8079"
     inkscape:cy="402.098"
     inkscape:window-width="1920"
     inkscape:window-height="1017"
     inkscape:window-x="-8"
     inkscape:window-y="-8"
     inkscape:window-maximized="1"
     inkscape:current-layer="g5246" />
  <defs
     id="defs2">
    <marker
       style="overflow:visible;"
       id="Arrow2Mend"
       refX="0.0"
       refY="0.0"
       orient="auto"
       inkscape:stockid="Arrow2Mend"
       inkscape:isstock="true">
      <path
         transform="scale(0.6) rotate(180) translate(0,0)"
         d="M 8.7185878,4.0337352 L -2.2072895,0.016013256 L 8.7185884,-4.0017078 C 6.9730900,-1.6296469 6.9831476,1.6157441 8.7185878,4.0337352 z "
         style="fill-rule:evenodd;fill:context-stroke;stroke-width:0.62500000;stroke-linejoin:round;"
         id="path1150" />
    </marker>
    <marker
       style="overflow:visible;"
       id="Arrow2Send"
       refX="0.0"
       refY="0.0"
       orient="auto"
       inkscape:stockid="Arrow2Send"
       inkscape:isstock="true">
      <path
         transform="scale(0.3) rotate(180) translate(-2.3,0)"
         d="M 8.7185878,4.0337352 L -2.2072895,0.016013256 L 8.7185884,-4.0017078 C 6.9730900,-1.6296469 6.9831476,1.6157441 8.7185878,4.0337352 z "
         style="fill-rule:evenodd;fill:context-stroke;stroke-width:0.62500000;stroke-linejoin:round;"
         id="path1156" />
    </marker>
    <marker
       id="ExperimentalArrow"
       refX="5.0"
       refY="3.0"
       orient="auto-start-reverse"
       inkscape:stockid="ExperimentalArrow"
       inkscape:isstock="true">
      <path
         style="fill:context-stroke"
         d="m 10,3 -10,3 0,-6 z"
         id="path1376" />
    </marker>
    <marker
       style="overflow:visible"
       id="TriangleOutM"
       refX="0.0"
       refY="0.0"
       orient="auto"
       inkscape:stockid="TriangleOutM"
       inkscape:isstock="true">
      <path
         transform="scale(0.4)"
         style="fill-rule:evenodd;fill:context-stroke;stroke:context-stroke;stroke-width:1.0pt"
         d="M 5.77,0.0 L -2.88,5.0 L -2.88,-5.0 L 5.77,0.0 z "
         id="path1268" />
    </marker>
    <marker
       style="overflow:visible;"
       id="Arrow2Lend"
       refX="0.0"
       refY="0.0"
       orient="auto"
       inkscape:stockid="Arrow2Lend"
       inkscape:isstock="true">
      <path
         transform="scale(1.1) rotate(180) translate(1,0)"
         d="M 8.7185878,4.0337352 L -2.2072895,0.016013256 L 8.7185884,-4.0017078 C 6.9730900,-1.6296469 6.9831476,1.6157441 8.7185878,4.0337352 z "
         style="fill-rule:evenodd;fill:context-stroke;stroke-width:0.62500000;stroke-linejoin:round;"
         id="path1144" />
    </marker>
    <marker
       inkscape:stockid="ArrowAxisStart"
       orient="auto"
       refY="0.0"
       refX="0.0"
       id="ArrowAxisStart"
       style="overflow:visible">
      <path
         d="M 0.0,0.0 L 5.0,-5.0 L -12.5,0.0 L 5.0,5.0 L 0.0,0.0 z "
         style="fill:#000000;fill-opacity:1.0;fill-rule:evenodd;stroke:#000000;stroke-opacity:1.0;stroke-width:1.0"
         transform="scale(0.4) rotate(0) translate(8.818000000000001,0)"
         id="path5553" />
    </marker>
    <marker
       inkscape:stockid="ArrowAxisEnd"
       orient="auto"
       refY="0.0"
       refX="0.0"
       id="ArrowAxisEnd"
       style="overflow:visible">
      <path
         d="M 0.0,0.0 L 5.0,-5.0 L -12.5,0.0 L 5.0,5.0 L 0.0,0.0 z "
         style="fill:#000000;fill-opacity:1.0;fill-rule:evenodd;stroke:#000000;stroke-opacity:1.0;stroke-width:1.0"
         transform="scale(0.4) rotate(180) translate(8.818000000000001,0)"
         id="path5556" />
    </marker>
    <style
       type="text/css"
       id="style2560">
*{stroke-linecap:butt;stroke-linejoin:round;}
  </style>
    <path
       d="M 0 2.236068  C 0.593012 2.236068 1.161816 2.000462 1.581139 1.581139  C 2.000462 1.161816 2.236068 0.593012 2.236068 0  C 2.236068 -0.593012 2.000462 -1.161816 1.581139 -1.581139  C 1.161816 -2.000462 0.593012 -2.236068 0 -2.236068  C -0.593012 -2.236068 -1.161816 -2.000462 -1.581139 -1.581139  C -2.000462 -1.161816 -2.236068 -0.593012 -2.236068 0  C -2.236068 0.593012 -2.000462 1.161816 -1.581139 1.581139  C -1.161816 2.000462 -0.593012 2.236068 0 2.236068  z "
       id="C0_0_c6023d09f4" />
    <path
       d="M 0 0  L 0 3.5  "
       id="m253732599f"
       style="stroke:#000000;stroke-width:0.8;" />
    <path
       d="M 31.78125 66.40625  Q 24.171875 66.40625 20.328125 58.90625  Q 16.5 51.421875 16.5 36.375  Q 16.5 21.390625 20.328125 13.890625  Q 24.171875 6.390625 31.78125 6.390625  Q 39.453125 6.390625 43.28125 13.890625  Q 47.125 21.390625 47.125 36.375  Q 47.125 51.421875 43.28125 58.90625  Q 39.453125 66.40625 31.78125 66.40625  z M 31.78125 74.21875  Q 44.046875 74.21875 50.515625 64.515625  Q 56.984375 54.828125 56.984375 36.375  Q 56.984375 17.96875 50.515625 8.265625  Q 44.046875 -1.421875 31.78125 -1.421875  Q 19.53125 -1.421875 13.0625 8.265625  Q 6.59375 17.96875 6.59375 36.375  Q 6.59375 54.828125 13.0625 64.515625  Q 19.53125 74.21875 31.78125 74.21875  z "
       id="DejaVuSans-48" />
    <path
       d="M 10.6875 12.40625  L 21 12.40625  L 21 0  L 10.6875 0  z "
       id="DejaVuSans-46" />
    <path
       d="M 10.796875 72.90625  L 49.515625 72.90625  L 49.515625 64.59375  L 19.828125 64.59375  L 19.828125 46.734375  Q 21.96875 47.46875 24.109375 47.828125  Q 26.265625 48.1875 28.421875 48.1875  Q 40.625 48.1875 47.75 41.5  Q 54.890625 34.8125 54.890625 23.390625  Q 54.890625 11.625 47.5625 5.09375  Q 40.234375 -1.421875 26.90625 -1.421875  Q 22.3125 -1.421875 17.546875 -0.640625  Q 12.796875 0.140625 7.71875 1.703125  L 7.71875 11.625  Q 12.109375 9.234375 16.796875 8.0625  Q 21.484375 6.890625 26.703125 6.890625  Q 35.15625 6.890625 40.078125 11.328125  Q 45.015625 15.765625 45.015625 23.390625  Q 45.015625 31 40.078125 35.4375  Q 35.15625 39.890625 26.703125 39.890625  Q 22.75 39.890625 18.8125 39.015625  Q 14.890625 38.140625 10.796875 36.28125  z "
       id="DejaVuSans-53" />
    <path
       d="M 12.40625 8.296875  L 28.515625 8.296875  L 28.515625 63.921875  L 10.984375 60.40625  L 10.984375 69.390625  L 28.421875 72.90625  L 38.28125 72.90625  L 38.28125 8.296875  L 54.390625 8.296875  L 54.390625 0  L 12.40625 0  z "
       id="DejaVuSans-49" />
    <path
       d="M 19.1875 8.296875  L 53.609375 8.296875  L 53.609375 0  L 7.328125 0  L 7.328125 8.296875  Q 12.9375 14.109375 22.625 23.890625  Q 32.328125 33.6875 34.8125 36.53125  Q 39.546875 41.84375 41.421875 45.53125  Q 43.3125 49.21875 43.3125 52.78125  Q 43.3125 58.59375 39.234375 62.25  Q 35.15625 65.921875 28.609375 65.921875  Q 23.96875 65.921875 18.8125 64.3125  Q 13.671875 62.703125 7.8125 59.421875  L 7.8125 69.390625  Q 13.765625 71.78125 18.9375 73  Q 24.125 74.21875 28.421875 74.21875  Q 39.75 74.21875 46.484375 68.546875  Q 53.21875 62.890625 53.21875 53.421875  Q 53.21875 48.921875 51.53125 44.890625  Q 49.859375 40.875 45.40625 35.40625  Q 44.1875 33.984375 37.640625 27.21875  Q 31.109375 20.453125 19.1875 8.296875  z "
       id="DejaVuSans-50" />
    <path
       d="M 19.671875 34.8125  L 19.671875 8.109375  L 35.5 8.109375  Q 43.453125 8.109375 47.28125 11.40625  Q 51.125 14.703125 51.125 21.484375  Q 51.125 28.328125 47.28125 31.5625  Q 43.453125 34.8125 35.5 34.8125  z M 19.671875 64.796875  L 19.671875 42.828125  L 34.28125 42.828125  Q 41.5 42.828125 45.03125 45.53125  Q 48.578125 48.25 48.578125 53.8125  Q 48.578125 59.328125 45.03125 62.0625  Q 41.5 64.796875 34.28125 64.796875  z M 9.8125 72.90625  L 35.015625 72.90625  Q 46.296875 72.90625 52.390625 68.21875  Q 58.5 63.53125 58.5 54.890625  Q 58.5 48.1875 55.375 44.234375  Q 52.25 40.28125 46.1875 39.3125  Q 53.46875 37.75 57.5 32.78125  Q 61.53125 27.828125 61.53125 20.40625  Q 61.53125 10.640625 54.890625 5.3125  Q 48.25 0 35.984375 0  L 9.8125 0  z "
       id="DejaVuSans-66" />
    <path
       d="M 9.421875 54.6875  L 18.40625 54.6875  L 18.40625 0  L 9.421875 0  z M 9.421875 75.984375  L 18.40625 75.984375  L 18.40625 64.59375  L 9.421875 64.59375  z "
       id="DejaVuSans-105" />
    <path
       d="M 41.109375 46.296875  Q 39.59375 47.171875 37.8125 47.578125  Q 36.03125 48 33.890625 48  Q 26.265625 48 22.1875 43.046875  Q 18.109375 38.09375 18.109375 28.8125  L 18.109375 0  L 9.078125 0  L 9.078125 54.6875  L 18.109375 54.6875  L 18.109375 46.1875  Q 20.953125 51.171875 25.484375 53.578125  Q 30.03125 56 36.53125 56  Q 37.453125 56 38.578125 55.875  Q 39.703125 55.765625 41.0625 55.515625  z "
       id="DejaVuSans-114" />
    <path
       d="M 18.3125 70.21875  L 18.3125 54.6875  L 36.8125 54.6875  L 36.8125 47.703125  L 18.3125 47.703125  L 18.3125 18.015625  Q 18.3125 11.328125 20.140625 9.421875  Q 21.96875 7.515625 27.59375 7.515625  L 36.8125 7.515625  L 36.8125 0  L 27.59375 0  Q 17.1875 0 13.234375 3.875  Q 9.28125 7.765625 9.28125 18.015625  L 9.28125 47.703125  L 2.6875 47.703125  L 2.6875 54.6875  L 9.28125 54.6875  L 9.28125 70.21875  z "
       id="DejaVuSans-116" />
    <path
       d="M 54.890625 33.015625  L 54.890625 0  L 45.90625 0  L 45.90625 32.71875  Q 45.90625 40.484375 42.875 44.328125  Q 39.84375 48.1875 33.796875 48.1875  Q 26.515625 48.1875 22.3125 43.546875  Q 18.109375 38.921875 18.109375 30.90625  L 18.109375 0  L 9.078125 0  L 9.078125 75.984375  L 18.109375 75.984375  L 18.109375 46.1875  Q 21.34375 51.125 25.703125 53.5625  Q 30.078125 56 35.796875 56  Q 45.21875 56 50.046875 50.171875  Q 54.890625 44.34375 54.890625 33.015625  z "
       id="DejaVuSans-104" />
    <path
       d="M 0 0  L -3.5 0  "
       id="m8d4e820673"
       style="stroke:#000000;stroke-width:0.8;" />
    <path
       d="M 19.671875 64.796875  L 19.671875 8.109375  L 31.59375 8.109375  Q 46.6875 8.109375 53.6875 14.9375  Q 60.6875 21.78125 60.6875 36.53125  Q 60.6875 51.171875 53.6875 57.984375  Q 46.6875 64.796875 31.59375 64.796875  z M 9.8125 72.90625  L 30.078125 72.90625  Q 51.265625 72.90625 61.171875 64.09375  Q 71.09375 55.28125 71.09375 36.53125  Q 71.09375 17.671875 61.125 8.828125  Q 51.171875 0 30.078125 0  L 9.8125 0  z "
       id="DejaVuSans-68" />
    <path
       d="M 56.203125 29.59375  L 56.203125 25.203125  L 14.890625 25.203125  Q 15.484375 15.921875 20.484375 11.0625  Q 25.484375 6.203125 34.421875 6.203125  Q 39.59375 6.203125 44.453125 7.46875  Q 49.3125 8.734375 54.109375 11.28125  L 54.109375 2.78125  Q 49.265625 0.734375 44.1875 -0.34375  Q 39.109375 -1.421875 33.890625 -1.421875  Q 20.796875 -1.421875 13.15625 6.1875  Q 5.515625 13.8125 5.515625 26.8125  Q 5.515625 40.234375 12.765625 48.109375  Q 20.015625 56 32.328125 56  Q 43.359375 56 49.78125 48.890625  Q 56.203125 41.796875 56.203125 29.59375  z M 47.21875 32.234375  Q 47.125 39.59375 43.09375 43.984375  Q 39.0625 48.390625 32.421875 48.390625  Q 24.90625 48.390625 20.390625 44.140625  Q 15.875 39.890625 15.1875 32.171875  z "
       id="DejaVuSans-101" />
    <path
       d="M 34.28125 27.484375  Q 23.390625 27.484375 19.1875 25  Q 14.984375 22.515625 14.984375 16.5  Q 14.984375 11.71875 18.140625 8.90625  Q 21.296875 6.109375 26.703125 6.109375  Q 34.1875 6.109375 38.703125 11.40625  Q 43.21875 16.703125 43.21875 25.484375  L 43.21875 27.484375  z M 52.203125 31.203125  L 52.203125 0  L 43.21875 0  L 43.21875 8.296875  Q 40.140625 3.328125 35.546875 0.953125  Q 30.953125 -1.421875 24.3125 -1.421875  Q 15.921875 -1.421875 10.953125 3.296875  Q 6 8.015625 6 15.921875  Q 6 25.140625 12.171875 29.828125  Q 18.359375 34.515625 30.609375 34.515625  L 43.21875 34.515625  L 43.21875 35.40625  Q 43.21875 41.609375 39.140625 45  Q 35.0625 48.390625 27.6875 48.390625  Q 23 48.390625 18.546875 47.265625  Q 14.109375 46.140625 10.015625 43.890625  L 10.015625 52.203125  Q 14.9375 54.109375 19.578125 55.046875  Q 24.21875 56 28.609375 56  Q 40.484375 56 46.34375 49.84375  Q 52.203125 43.703125 52.203125 31.203125  z "
       id="DejaVuSans-97" />
    <path
       d="M 45.5625 17.046875  Q 44.046875 18.796875 41.65625 22.90625  Q 38.375 17.046875 35.5 14.453125  Q 31.890625 11.328125 26.265625 11.328125  Q 19.671875 11.328125 15.328125 16.265625  Q 10.75 21.4375 10.75 29.984375  Q 10.75 38.1875 15.328125 43.75  Q 19.4375 48.6875 26.375 48.6875  Q 29.9375 48.6875 32.5625 47.21875  Q 35.640625 45.609375 37.75 42.828125  Q 39.703125 40.328125 41.65625 36.96875  Q 44.921875 42.828125 47.796875 45.40625  Q 51.421875 48.53125 57.03125 48.53125  Q 63.625 48.53125 67.96875 43.609375  Q 72.5625 38.421875 72.5625 29.890625  Q 72.5625 21.6875 67.96875 16.109375  Q 63.875 11.1875 56.9375 11.1875  Q 53.375 11.1875 50.734375 12.640625  Q 48.09375 13.96875 45.5625 17.046875  z M 25.734375 17.71875  Q 33.796875 17.71875 38.625 29.4375  Q 32.421875 42.234375 25.734375 42.234375  Q 20.84375 42.234375 18.359375 38.71875  Q 15.671875 34.96875 15.671875 29.984375  Q 15.671875 24.515625 18.359375 21.140625  Q 21.09375 17.71875 25.734375 17.71875  z M 57.5625 42.140625  Q 50.296875 42.140625 44.671875 30.421875  Q 50.828125 17.625 57.5625 17.625  Q 62.453125 17.625 64.9375 21.140625  Q 67.625 24.90625 67.625 29.890625  Q 67.625 35.359375 64.9375 38.71875  Q 62.203125 42.140625 57.5625 42.140625  z "
       id="DejaVuSans-8734" />
    <path
       d="M 16.890625 72.90625  L 26.8125 72.90625  L 21 43.015625  L 56.78125 43.015625  L 62.59375 72.90625  L 72.515625 72.90625  L 58.296875 0  L 48.390625 0  L 55.171875 34.71875  L 19.390625 34.71875  L 12.59375 0  L 2.6875 0  z "
       id="DejaVuSans-Oblique-72" />
    <clipPath
       id="pc5d32cf755">
      <rect
         height="292.84"
         width="292.84"
         x="83.98"
         y="10.8"
         id="rect2861" />
    </clipPath>
    <marker
       style="overflow:visible"
       id="Arrow2Send-3"
       refX="0"
       refY="0"
       orient="auto"
       inkscape:stockid="Arrow2Send"
       inkscape:isstock="true">
      <path
         transform="matrix(-0.3,0,0,-0.3,0.69,0)"
         d="M 8.7185878,4.0337352 -2.2072895,0.01601326 8.7185884,-4.0017078 c -1.7454984,2.3720609 -1.7354408,5.6174519 -6e-7,8.035443 z"
         style="fill:context-stroke;fill-rule:evenodd;stroke-width:0.625;stroke-linejoin:round"
         id="path1156-2" />
    </marker>
    <marker
       style="overflow:visible"
       id="Arrow2Send-3-5"
       refX="0"
       refY="0"
       orient="auto"
       inkscape:stockid="Arrow2Send"
       inkscape:isstock="true">
      <path
         transform="matrix(-0.3,0,0,-0.3,0.69,0)"
         d="M 8.7185878,4.0337352 -2.2072895,0.01601326 8.7185884,-4.0017078 c -1.7454984,2.3720609 -1.7354408,5.6174519 -6e-7,8.035443 z"
         style="fill:context-stroke;fill-rule:evenodd;stroke-width:0.625;stroke-linejoin:round"
         id="path1156-2-2" />
    </marker>
    <marker
       style="overflow:visible"
       id="Arrow2Send-3-0"
       refX="0"
       refY="0"
       orient="auto"
       inkscape:stockid="Arrow2Send"
       inkscape:isstock="true">
      <path
         transform="matrix(-0.3,0,0,-0.3,0.69,0)"
         d="M 8.7185878,4.0337352 -2.2072895,0.01601326 8.7185884,-4.0017078 c -1.7454984,2.3720609 -1.7354408,5.6174519 -6e-7,8.035443 z"
         style="fill:context-stroke;fill-rule:evenodd;stroke-width:0.625;stroke-linejoin:round"
         id="path1156-2-0" />
    </marker>
    <style
       type="text/css"
       id="style26942">
*{stroke-linecap:butt;stroke-linejoin:round;}
  </style>
    <path
       d="M 0 2.236068  C 0.593012 2.236068 1.161816 2.000462 1.581139 1.581139  C 2.000462 1.161816 2.236068 0.593012 2.236068 0  C 2.236068 -0.593012 2.000462 -1.161816 1.581139 -1.581139  C 1.161816 -2.000462 0.593012 -2.236068 0 -2.236068  C -0.593012 -2.236068 -1.161816 -2.000462 -1.581139 -1.581139  C -2.000462 -1.161816 -2.236068 -0.593012 -2.236068 0  C -2.236068 0.593012 -2.000462 1.161816 -1.581139 1.581139  C -1.161816 2.000462 -0.593012 2.236068 0 2.236068  z "
       id="C0_0_258b6e4fc3" />
    <path
       d="M 0 0  L 0 3.5  "
       id="mb6b9f4b1a7"
       style="stroke:#000000;stroke-width:0.8;" />
    <path
       d="M 31.78125 66.40625  Q 24.171875 66.40625 20.328125 58.90625  Q 16.5 51.421875 16.5 36.375  Q 16.5 21.390625 20.328125 13.890625  Q 24.171875 6.390625 31.78125 6.390625  Q 39.453125 6.390625 43.28125 13.890625  Q 47.125 21.390625 47.125 36.375  Q 47.125 51.421875 43.28125 58.90625  Q 39.453125 66.40625 31.78125 66.40625  z M 31.78125 74.21875  Q 44.046875 74.21875 50.515625 64.515625  Q 56.984375 54.828125 56.984375 36.375  Q 56.984375 17.96875 50.515625 8.265625  Q 44.046875 -1.421875 31.78125 -1.421875  Q 19.53125 -1.421875 13.0625 8.265625  Q 6.59375 17.96875 6.59375 36.375  Q 6.59375 54.828125 13.0625 64.515625  Q 19.53125 74.21875 31.78125 74.21875  z "
       id="DejaVuSans-48-4" />
    <path
       d="M 10.6875 12.40625  L 21 12.40625  L 21 0  L 10.6875 0  z "
       id="DejaVuSans-46-6" />
    <path
       d="M 10.796875 72.90625  L 49.515625 72.90625  L 49.515625 64.59375  L 19.828125 64.59375  L 19.828125 46.734375  Q 21.96875 47.46875 24.109375 47.828125  Q 26.265625 48.1875 28.421875 48.1875  Q 40.625 48.1875 47.75 41.5  Q 54.890625 34.8125 54.890625 23.390625  Q 54.890625 11.625 47.5625 5.09375  Q 40.234375 -1.421875 26.90625 -1.421875  Q 22.3125 -1.421875 17.546875 -0.640625  Q 12.796875 0.140625 7.71875 1.703125  L 7.71875 11.625  Q 12.109375 9.234375 16.796875 8.0625  Q 21.484375 6.890625 26.703125 6.890625  Q 35.15625 6.890625 40.078125 11.328125  Q 45.015625 15.765625 45.015625 23.390625  Q 45.015625 31 40.078125 35.4375  Q 35.15625 39.890625 26.703125 39.890625  Q 22.75 39.890625 18.8125 39.015625  Q 14.890625 38.140625 10.796875 36.28125  z "
       id="DejaVuSans-53-1" />
    <path
       d="M 12.40625 8.296875  L 28.515625 8.296875  L 28.515625 63.921875  L 10.984375 60.40625  L 10.984375 69.390625  L 28.421875 72.90625  L 38.28125 72.90625  L 38.28125 8.296875  L 54.390625 8.296875  L 54.390625 0  L 12.40625 0  z "
       id="DejaVuSans-49-1" />
    <path
       d="M 19.1875 8.296875  L 53.609375 8.296875  L 53.609375 0  L 7.328125 0  L 7.328125 8.296875  Q 12.9375 14.109375 22.625 23.890625  Q 32.328125 33.6875 34.8125 36.53125  Q 39.546875 41.84375 41.421875 45.53125  Q 43.3125 49.21875 43.3125 52.78125  Q 43.3125 58.59375 39.234375 62.25  Q 35.15625 65.921875 28.609375 65.921875  Q 23.96875 65.921875 18.8125 64.3125  Q 13.671875 62.703125 7.8125 59.421875  L 7.8125 69.390625  Q 13.765625 71.78125 18.9375 73  Q 24.125 74.21875 28.421875 74.21875  Q 39.75 74.21875 46.484375 68.546875  Q 53.21875 62.890625 53.21875 53.421875  Q 53.21875 48.921875 51.53125 44.890625  Q 49.859375 40.875 45.40625 35.40625  Q 44.1875 33.984375 37.640625 27.21875  Q 31.109375 20.453125 19.1875 8.296875  z "
       id="DejaVuSans-50-6" />
    <path
       d="M 19.671875 34.8125  L 19.671875 8.109375  L 35.5 8.109375  Q 43.453125 8.109375 47.28125 11.40625  Q 51.125 14.703125 51.125 21.484375  Q 51.125 28.328125 47.28125 31.5625  Q 43.453125 34.8125 35.5 34.8125  z M 19.671875 64.796875  L 19.671875 42.828125  L 34.28125 42.828125  Q 41.5 42.828125 45.03125 45.53125  Q 48.578125 48.25 48.578125 53.8125  Q 48.578125 59.328125 45.03125 62.0625  Q 41.5 64.796875 34.28125 64.796875  z M 9.8125 72.90625  L 35.015625 72.90625  Q 46.296875 72.90625 52.390625 68.21875  Q 58.5 63.53125 58.5 54.890625  Q 58.5 48.1875 55.375 44.234375  Q 52.25 40.28125 46.1875 39.3125  Q 53.46875 37.75 57.5 32.78125  Q 61.53125 27.828125 61.53125 20.40625  Q 61.53125 10.640625 54.890625 5.3125  Q 48.25 0 35.984375 0  L 9.8125 0  z "
       id="DejaVuSans-66-5" />
    <path
       d="M 9.421875 54.6875  L 18.40625 54.6875  L 18.40625 0  L 9.421875 0  z M 9.421875 75.984375  L 18.40625 75.984375  L 18.40625 64.59375  L 9.421875 64.59375  z "
       id="DejaVuSans-105-8" />
    <path
       d="M 41.109375 46.296875  Q 39.59375 47.171875 37.8125 47.578125  Q 36.03125 48 33.890625 48  Q 26.265625 48 22.1875 43.046875  Q 18.109375 38.09375 18.109375 28.8125  L 18.109375 0  L 9.078125 0  L 9.078125 54.6875  L 18.109375 54.6875  L 18.109375 46.1875  Q 20.953125 51.171875 25.484375 53.578125  Q 30.03125 56 36.53125 56  Q 37.453125 56 38.578125 55.875  Q 39.703125 55.765625 41.0625 55.515625  z "
       id="DejaVuSans-114-0" />
    <path
       d="M 18.3125 70.21875  L 18.3125 54.6875  L 36.8125 54.6875  L 36.8125 47.703125  L 18.3125 47.703125  L 18.3125 18.015625  Q 18.3125 11.328125 20.140625 9.421875  Q 21.96875 7.515625 27.59375 7.515625  L 36.8125 7.515625  L 36.8125 0  L 27.59375 0  Q 17.1875 0 13.234375 3.875  Q 9.28125 7.765625 9.28125 18.015625  L 9.28125 47.703125  L 2.6875 47.703125  L 2.6875 54.6875  L 9.28125 54.6875  L 9.28125 70.21875  z "
       id="DejaVuSans-116-2" />
    <path
       d="M 54.890625 33.015625  L 54.890625 0  L 45.90625 0  L 45.90625 32.71875  Q 45.90625 40.484375 42.875 44.328125  Q 39.84375 48.1875 33.796875 48.1875  Q 26.515625 48.1875 22.3125 43.546875  Q 18.109375 38.921875 18.109375 30.90625  L 18.109375 0  L 9.078125 0  L 9.078125 75.984375  L 18.109375 75.984375  L 18.109375 46.1875  Q 21.34375 51.125 25.703125 53.5625  Q 30.078125 56 35.796875 56  Q 45.21875 56 50.046875 50.171875  Q 54.890625 44.34375 54.890625 33.015625  z "
       id="DejaVuSans-104-1" />
    <path
       d="M 0 0  L -3.5 0  "
       id="m81c013336d"
       style="stroke:#000000;stroke-width:0.8;" />
    <path
       d="M 19.671875 64.796875  L 19.671875 8.109375  L 31.59375 8.109375  Q 46.6875 8.109375 53.6875 14.9375  Q 60.6875 21.78125 60.6875 36.53125  Q 60.6875 51.171875 53.6875 57.984375  Q 46.6875 64.796875 31.59375 64.796875  z M 9.8125 72.90625  L 30.078125 72.90625  Q 51.265625 72.90625 61.171875 64.09375  Q 71.09375 55.28125 71.09375 36.53125  Q 71.09375 17.671875 61.125 8.828125  Q 51.171875 0 30.078125 0  L 9.8125 0  z "
       id="DejaVuSans-68-6" />
    <path
       d="M 56.203125 29.59375  L 56.203125 25.203125  L 14.890625 25.203125  Q 15.484375 15.921875 20.484375 11.0625  Q 25.484375 6.203125 34.421875 6.203125  Q 39.59375 6.203125 44.453125 7.46875  Q 49.3125 8.734375 54.109375 11.28125  L 54.109375 2.78125  Q 49.265625 0.734375 44.1875 -0.34375  Q 39.109375 -1.421875 33.890625 -1.421875  Q 20.796875 -1.421875 13.15625 6.1875  Q 5.515625 13.8125 5.515625 26.8125  Q 5.515625 40.234375 12.765625 48.109375  Q 20.015625 56 32.328125 56  Q 43.359375 56 49.78125 48.890625  Q 56.203125 41.796875 56.203125 29.59375  z M 47.21875 32.234375  Q 47.125 39.59375 43.09375 43.984375  Q 39.0625 48.390625 32.421875 48.390625  Q 24.90625 48.390625 20.390625 44.140625  Q 15.875 39.890625 15.1875 32.171875  z "
       id="DejaVuSans-101-3" />
    <path
       d="M 34.28125 27.484375  Q 23.390625 27.484375 19.1875 25  Q 14.984375 22.515625 14.984375 16.5  Q 14.984375 11.71875 18.140625 8.90625  Q 21.296875 6.109375 26.703125 6.109375  Q 34.1875 6.109375 38.703125 11.40625  Q 43.21875 16.703125 43.21875 25.484375  L 43.21875 27.484375  z M 52.203125 31.203125  L 52.203125 0  L 43.21875 0  L 43.21875 8.296875  Q 40.140625 3.328125 35.546875 0.953125  Q 30.953125 -1.421875 24.3125 -1.421875  Q 15.921875 -1.421875 10.953125 3.296875  Q 6 8.015625 6 15.921875  Q 6 25.140625 12.171875 29.828125  Q 18.359375 34.515625 30.609375 34.515625  L 43.21875 34.515625  L 43.21875 35.40625  Q 43.21875 41.609375 39.140625 45  Q 35.0625 48.390625 27.6875 48.390625  Q 23 48.390625 18.546875 47.265625  Q 14.109375 46.140625 10.015625 43.890625  L 10.015625 52.203125  Q 14.9375 54.109375 19.578125 55.046875  Q 24.21875 56 28.609375 56  Q 40.484375 56 46.34375 49.84375  Q 52.203125 43.703125 52.203125 31.203125  z "
       id="DejaVuSans-97-8" />
    <path
       d="M 45.5625 17.046875  Q 44.046875 18.796875 41.65625 22.90625  Q 38.375 17.046875 35.5 14.453125  Q 31.890625 11.328125 26.265625 11.328125  Q 19.671875 11.328125 15.328125 16.265625  Q 10.75 21.4375 10.75 29.984375  Q 10.75 38.1875 15.328125 43.75  Q 19.4375 48.6875 26.375 48.6875  Q 29.9375 48.6875 32.5625 47.21875  Q 35.640625 45.609375 37.75 42.828125  Q 39.703125 40.328125 41.65625 36.96875  Q 44.921875 42.828125 47.796875 45.40625  Q 51.421875 48.53125 57.03125 48.53125  Q 63.625 48.53125 67.96875 43.609375  Q 72.5625 38.421875 72.5625 29.890625  Q 72.5625 21.6875 67.96875 16.109375  Q 63.875 11.1875 56.9375 11.1875  Q 53.375 11.1875 50.734375 12.640625  Q 48.09375 13.96875 45.5625 17.046875  z M 25.734375 17.71875  Q 33.796875 17.71875 38.625 29.4375  Q 32.421875 42.234375 25.734375 42.234375  Q 20.84375 42.234375 18.359375 38.71875  Q 15.671875 34.96875 15.671875 29.984375  Q 15.671875 24.515625 18.359375 21.140625  Q 21.09375 17.71875 25.734375 17.71875  z M 57.5625 42.140625  Q 50.296875 42.140625 44.671875 30.421875  Q 50.828125 17.625 57.5625 17.625  Q 62.453125 17.625 64.9375 21.140625  Q 67.625 24.90625 67.625 29.890625  Q 67.625 35.359375 64.9375 38.71875  Q 62.203125 42.140625 57.5625 42.140625  z "
       id="DejaVuSans-8734-0" />
    <path
       d="M 16.890625 72.90625  L 26.8125 72.90625  L 21 43.015625  L 56.78125 43.015625  L 62.59375 72.90625  L 72.515625 72.90625  L 58.296875 0  L 48.390625 0  L 55.171875 34.71875  L 19.390625 34.71875  L 12.59375 0  L 2.6875 0  z "
       id="DejaVuSans-Oblique-72-4" />
    <clipPath
       id="p775a8488c4">
      <rect
         height="292.84"
         width="292.84"
         x="83.98"
         y="10.8"
         id="rect27243" />
    </clipPath>
    <style
       type="text/css"
       id="style27476">
*{stroke-linecap:butt;stroke-linejoin:round;}
  </style>
    <path
       d="M 0 2.236068  C 0.593012 2.236068 1.161816 2.000462 1.581139 1.581139  C 2.000462 1.161816 2.236068 0.593012 2.236068 0  C 2.236068 -0.593012 2.000462 -1.161816 1.581139 -1.581139  C 1.161816 -2.000462 0.593012 -2.236068 0 -2.236068  C -0.593012 -2.236068 -1.161816 -2.000462 -1.581139 -1.581139  C -2.000462 -1.161816 -2.236068 -0.593012 -2.236068 0  C -2.236068 0.593012 -2.000462 1.161816 -1.581139 1.581139  C -1.161816 2.000462 -0.593012 2.236068 0 2.236068  z "
       id="C0_0_ecdd47cbd5" />
    <path
       d="M 0 0  L 0 3.5  "
       id="m4903d9614d"
       style="stroke:#000000;stroke-width:0.8;" />
    <path
       d="M 31.78125 66.40625  Q 24.171875 66.40625 20.328125 58.90625  Q 16.5 51.421875 16.5 36.375  Q 16.5 21.390625 20.328125 13.890625  Q 24.171875 6.390625 31.78125 6.390625  Q 39.453125 6.390625 43.28125 13.890625  Q 47.125 21.390625 47.125 36.375  Q 47.125 51.421875 43.28125 58.90625  Q 39.453125 66.40625 31.78125 66.40625  z M 31.78125 74.21875  Q 44.046875 74.21875 50.515625 64.515625  Q 56.984375 54.828125 56.984375 36.375  Q 56.984375 17.96875 50.515625 8.265625  Q 44.046875 -1.421875 31.78125 -1.421875  Q 19.53125 -1.421875 13.0625 8.265625  Q 6.59375 17.96875 6.59375 36.375  Q 6.59375 54.828125 13.0625 64.515625  Q 19.53125 74.21875 31.78125 74.21875  z "
       id="DejaVuSans-48-3" />
    <path
       d="M 10.6875 12.40625  L 21 12.40625  L 21 0  L 10.6875 0  z "
       id="DejaVuSans-46-0" />
    <path
       d="M 10.796875 72.90625  L 49.515625 72.90625  L 49.515625 64.59375  L 19.828125 64.59375  L 19.828125 46.734375  Q 21.96875 47.46875 24.109375 47.828125  Q 26.265625 48.1875 28.421875 48.1875  Q 40.625 48.1875 47.75 41.5  Q 54.890625 34.8125 54.890625 23.390625  Q 54.890625 11.625 47.5625 5.09375  Q 40.234375 -1.421875 26.90625 -1.421875  Q 22.3125 -1.421875 17.546875 -0.640625  Q 12.796875 0.140625 7.71875 1.703125  L 7.71875 11.625  Q 12.109375 9.234375 16.796875 8.0625  Q 21.484375 6.890625 26.703125 6.890625  Q 35.15625 6.890625 40.078125 11.328125  Q 45.015625 15.765625 45.015625 23.390625  Q 45.015625 31 40.078125 35.4375  Q 35.15625 39.890625 26.703125 39.890625  Q 22.75 39.890625 18.8125 39.015625  Q 14.890625 38.140625 10.796875 36.28125  z "
       id="DejaVuSans-53-4" />
    <path
       d="M 12.40625 8.296875  L 28.515625 8.296875  L 28.515625 63.921875  L 10.984375 60.40625  L 10.984375 69.390625  L 28.421875 72.90625  L 38.28125 72.90625  L 38.28125 8.296875  L 54.390625 8.296875  L 54.390625 0  L 12.40625 0  z "
       id="DejaVuSans-49-4" />
    <path
       d="M 19.1875 8.296875  L 53.609375 8.296875  L 53.609375 0  L 7.328125 0  L 7.328125 8.296875  Q 12.9375 14.109375 22.625 23.890625  Q 32.328125 33.6875 34.8125 36.53125  Q 39.546875 41.84375 41.421875 45.53125  Q 43.3125 49.21875 43.3125 52.78125  Q 43.3125 58.59375 39.234375 62.25  Q 35.15625 65.921875 28.609375 65.921875  Q 23.96875 65.921875 18.8125 64.3125  Q 13.671875 62.703125 7.8125 59.421875  L 7.8125 69.390625  Q 13.765625 71.78125 18.9375 73  Q 24.125 74.21875 28.421875 74.21875  Q 39.75 74.21875 46.484375 68.546875  Q 53.21875 62.890625 53.21875 53.421875  Q 53.21875 48.921875 51.53125 44.890625  Q 49.859375 40.875 45.40625 35.40625  Q 44.1875 33.984375 37.640625 27.21875  Q 31.109375 20.453125 19.1875 8.296875  z "
       id="DejaVuSans-50-5" />
    <path
       d="M 19.671875 34.8125  L 19.671875 8.109375  L 35.5 8.109375  Q 43.453125 8.109375 47.28125 11.40625  Q 51.125 14.703125 51.125 21.484375  Q 51.125 28.328125 47.28125 31.5625  Q 43.453125 34.8125 35.5 34.8125  z M 19.671875 64.796875  L 19.671875 42.828125  L 34.28125 42.828125  Q 41.5 42.828125 45.03125 45.53125  Q 48.578125 48.25 48.578125 53.8125  Q 48.578125 59.328125 45.03125 62.0625  Q 41.5 64.796875 34.28125 64.796875  z M 9.8125 72.90625  L 35.015625 72.90625  Q 46.296875 72.90625 52.390625 68.21875  Q 58.5 63.53125 58.5 54.890625  Q 58.5 48.1875 55.375 44.234375  Q 52.25 40.28125 46.1875 39.3125  Q 53.46875 37.75 57.5 32.78125  Q 61.53125 27.828125 61.53125 20.40625  Q 61.53125 10.640625 54.890625 5.3125  Q 48.25 0 35.984375 0  L 9.8125 0  z "
       id="DejaVuSans-66-56" />
    <path
       d="M 9.421875 54.6875  L 18.40625 54.6875  L 18.40625 0  L 9.421875 0  z M 9.421875 75.984375  L 18.40625 75.984375  L 18.40625 64.59375  L 9.421875 64.59375  z "
       id="DejaVuSans-105-0" />
    <path
       d="M 41.109375 46.296875  Q 39.59375 47.171875 37.8125 47.578125  Q 36.03125 48 33.890625 48  Q 26.265625 48 22.1875 43.046875  Q 18.109375 38.09375 18.109375 28.8125  L 18.109375 0  L 9.078125 0  L 9.078125 54.6875  L 18.109375 54.6875  L 18.109375 46.1875  Q 20.953125 51.171875 25.484375 53.578125  Q 30.03125 56 36.53125 56  Q 37.453125 56 38.578125 55.875  Q 39.703125 55.765625 41.0625 55.515625  z "
       id="DejaVuSans-114-1" />
    <path
       d="M 18.3125 70.21875  L 18.3125 54.6875  L 36.8125 54.6875  L 36.8125 47.703125  L 18.3125 47.703125  L 18.3125 18.015625  Q 18.3125 11.328125 20.140625 9.421875  Q 21.96875 7.515625 27.59375 7.515625  L 36.8125 7.515625  L 36.8125 0  L 27.59375 0  Q 17.1875 0 13.234375 3.875  Q 9.28125 7.765625 9.28125 18.015625  L 9.28125 47.703125  L 2.6875 47.703125  L 2.6875 54.6875  L 9.28125 54.6875  L 9.28125 70.21875  z "
       id="DejaVuSans-116-9" />
    <path
       d="M 54.890625 33.015625  L 54.890625 0  L 45.90625 0  L 45.90625 32.71875  Q 45.90625 40.484375 42.875 44.328125  Q 39.84375 48.1875 33.796875 48.1875  Q 26.515625 48.1875 22.3125 43.546875  Q 18.109375 38.921875 18.109375 30.90625  L 18.109375 0  L 9.078125 0  L 9.078125 75.984375  L 18.109375 75.984375  L 18.109375 46.1875  Q 21.34375 51.125 25.703125 53.5625  Q 30.078125 56 35.796875 56  Q 45.21875 56 50.046875 50.171875  Q 54.890625 44.34375 54.890625 33.015625  z "
       id="DejaVuSans-104-5" />
    <path
       d="M 0 0  L -3.5 0  "
       id="m3d4cb44eba"
       style="stroke:#000000;stroke-width:0.8;" />
    <path
       d="M 19.671875 64.796875  L 19.671875 8.109375  L 31.59375 8.109375  Q 46.6875 8.109375 53.6875 14.9375  Q 60.6875 21.78125 60.6875 36.53125  Q 60.6875 51.171875 53.6875 57.984375  Q 46.6875 64.796875 31.59375 64.796875  z M 9.8125 72.90625  L 30.078125 72.90625  Q 51.265625 72.90625 61.171875 64.09375  Q 71.09375 55.28125 71.09375 36.53125  Q 71.09375 17.671875 61.125 8.828125  Q 51.171875 0 30.078125 0  L 9.8125 0  z "
       id="DejaVuSans-68-0" />
    <path
       d="M 56.203125 29.59375  L 56.203125 25.203125  L 14.890625 25.203125  Q 15.484375 15.921875 20.484375 11.0625  Q 25.484375 6.203125 34.421875 6.203125  Q 39.59375 6.203125 44.453125 7.46875  Q 49.3125 8.734375 54.109375 11.28125  L 54.109375 2.78125  Q 49.265625 0.734375 44.1875 -0.34375  Q 39.109375 -1.421875 33.890625 -1.421875  Q 20.796875 -1.421875 13.15625 6.1875  Q 5.515625 13.8125 5.515625 26.8125  Q 5.515625 40.234375 12.765625 48.109375  Q 20.015625 56 32.328125 56  Q 43.359375 56 49.78125 48.890625  Q 56.203125 41.796875 56.203125 29.59375  z M 47.21875 32.234375  Q 47.125 39.59375 43.09375 43.984375  Q 39.0625 48.390625 32.421875 48.390625  Q 24.90625 48.390625 20.390625 44.140625  Q 15.875 39.890625 15.1875 32.171875  z "
       id="DejaVuSans-101-4" />
    <path
       d="M 34.28125 27.484375  Q 23.390625 27.484375 19.1875 25  Q 14.984375 22.515625 14.984375 16.5  Q 14.984375 11.71875 18.140625 8.90625  Q 21.296875 6.109375 26.703125 6.109375  Q 34.1875 6.109375 38.703125 11.40625  Q 43.21875 16.703125 43.21875 25.484375  L 43.21875 27.484375  z M 52.203125 31.203125  L 52.203125 0  L 43.21875 0  L 43.21875 8.296875  Q 40.140625 3.328125 35.546875 0.953125  Q 30.953125 -1.421875 24.3125 -1.421875  Q 15.921875 -1.421875 10.953125 3.296875  Q 6 8.015625 6 15.921875  Q 6 25.140625 12.171875 29.828125  Q 18.359375 34.515625 30.609375 34.515625  L 43.21875 34.515625  L 43.21875 35.40625  Q 43.21875 41.609375 39.140625 45  Q 35.0625 48.390625 27.6875 48.390625  Q 23 48.390625 18.546875 47.265625  Q 14.109375 46.140625 10.015625 43.890625  L 10.015625 52.203125  Q 14.9375 54.109375 19.578125 55.046875  Q 24.21875 56 28.609375 56  Q 40.484375 56 46.34375 49.84375  Q 52.203125 43.703125 52.203125 31.203125  z "
       id="DejaVuSans-97-4" />
    <path
       d="M 45.5625 17.046875  Q 44.046875 18.796875 41.65625 22.90625  Q 38.375 17.046875 35.5 14.453125  Q 31.890625 11.328125 26.265625 11.328125  Q 19.671875 11.328125 15.328125 16.265625  Q 10.75 21.4375 10.75 29.984375  Q 10.75 38.1875 15.328125 43.75  Q 19.4375 48.6875 26.375 48.6875  Q 29.9375 48.6875 32.5625 47.21875  Q 35.640625 45.609375 37.75 42.828125  Q 39.703125 40.328125 41.65625 36.96875  Q 44.921875 42.828125 47.796875 45.40625  Q 51.421875 48.53125 57.03125 48.53125  Q 63.625 48.53125 67.96875 43.609375  Q 72.5625 38.421875 72.5625 29.890625  Q 72.5625 21.6875 67.96875 16.109375  Q 63.875 11.1875 56.9375 11.1875  Q 53.375 11.1875 50.734375 12.640625  Q 48.09375 13.96875 45.5625 17.046875  z M 25.734375 17.71875  Q 33.796875 17.71875 38.625 29.4375  Q 32.421875 42.234375 25.734375 42.234375  Q 20.84375 42.234375 18.359375 38.71875  Q 15.671875 34.96875 15.671875 29.984375  Q 15.671875 24.515625 18.359375 21.140625  Q 21.09375 17.71875 25.734375 17.71875  z M 57.5625 42.140625  Q 50.296875 42.140625 44.671875 30.421875  Q 50.828125 17.625 57.5625 17.625  Q 62.453125 17.625 64.9375 21.140625  Q 67.625 24.90625 67.625 29.890625  Q 67.625 35.359375 64.9375 38.71875  Q 62.203125 42.140625 57.5625 42.140625  z "
       id="DejaVuSans-8734-7" />
    <path
       d="M 16.890625 72.90625  L 26.8125 72.90625  L 21 43.015625  L 56.78125 43.015625  L 62.59375 72.90625  L 72.515625 72.90625  L 58.296875 0  L 48.390625 0  L 55.171875 34.71875  L 19.390625 34.71875  L 12.59375 0  L 2.6875 0  z "
       id="DejaVuSans-Oblique-72-2" />
    <clipPath
       id="p82beda4f13">
      <rect
         height="292.84"
         width="292.84"
         x="83.98"
         y="10.8"
         id="rect27777" />
    </clipPath>
    <style
       type="text/css"
       id="style28010">
*{stroke-linecap:butt;stroke-linejoin:round;}
  </style>
    <path
       d="M 0 2.236068  C 0.593012 2.236068 1.161816 2.000462 1.581139 1.581139  C 2.000462 1.161816 2.236068 0.593012 2.236068 0  C 2.236068 -0.593012 2.000462 -1.161816 1.581139 -1.581139  C 1.161816 -2.000462 0.593012 -2.236068 0 -2.236068  C -0.593012 -2.236068 -1.161816 -2.000462 -1.581139 -1.581139  C -2.000462 -1.161816 -2.236068 -0.593012 -2.236068 0  C -2.236068 0.593012 -2.000462 1.161816 -1.581139 1.581139  C -1.161816 2.000462 -0.593012 2.236068 0 2.236068  z "
       id="C0_0_88e3a7ee71" />
    <path
       d="M 0 0  L 0 3.5  "
       id="ma348be1aa8"
       style="stroke:#000000;stroke-width:0.8;" />
    <path
       d="M 31.78125 66.40625  Q 24.171875 66.40625 20.328125 58.90625  Q 16.5 51.421875 16.5 36.375  Q 16.5 21.390625 20.328125 13.890625  Q 24.171875 6.390625 31.78125 6.390625  Q 39.453125 6.390625 43.28125 13.890625  Q 47.125 21.390625 47.125 36.375  Q 47.125 51.421875 43.28125 58.90625  Q 39.453125 66.40625 31.78125 66.40625  z M 31.78125 74.21875  Q 44.046875 74.21875 50.515625 64.515625  Q 56.984375 54.828125 56.984375 36.375  Q 56.984375 17.96875 50.515625 8.265625  Q 44.046875 -1.421875 31.78125 -1.421875  Q 19.53125 -1.421875 13.0625 8.265625  Q 6.59375 17.96875 6.59375 36.375  Q 6.59375 54.828125 13.0625 64.515625  Q 19.53125 74.21875 31.78125 74.21875  z "
       id="DejaVuSans-48-1" />
    <path
       d="M 10.6875 12.40625  L 21 12.40625  L 21 0  L 10.6875 0  z "
       id="DejaVuSans-46-3" />
    <path
       d="M 10.796875 72.90625  L 49.515625 72.90625  L 49.515625 64.59375  L 19.828125 64.59375  L 19.828125 46.734375  Q 21.96875 47.46875 24.109375 47.828125  Q 26.265625 48.1875 28.421875 48.1875  Q 40.625 48.1875 47.75 41.5  Q 54.890625 34.8125 54.890625 23.390625  Q 54.890625 11.625 47.5625 5.09375  Q 40.234375 -1.421875 26.90625 -1.421875  Q 22.3125 -1.421875 17.546875 -0.640625  Q 12.796875 0.140625 7.71875 1.703125  L 7.71875 11.625  Q 12.109375 9.234375 16.796875 8.0625  Q 21.484375 6.890625 26.703125 6.890625  Q 35.15625 6.890625 40.078125 11.328125  Q 45.015625 15.765625 45.015625 23.390625  Q 45.015625 31 40.078125 35.4375  Q 35.15625 39.890625 26.703125 39.890625  Q 22.75 39.890625 18.8125 39.015625  Q 14.890625 38.140625 10.796875 36.28125  z "
       id="DejaVuSans-53-3" />
    <path
       d="M 12.40625 8.296875  L 28.515625 8.296875  L 28.515625 63.921875  L 10.984375 60.40625  L 10.984375 69.390625  L 28.421875 72.90625  L 38.28125 72.90625  L 38.28125 8.296875  L 54.390625 8.296875  L 54.390625 0  L 12.40625 0  z "
       id="DejaVuSans-49-46" />
    <path
       d="M 19.1875 8.296875  L 53.609375 8.296875  L 53.609375 0  L 7.328125 0  L 7.328125 8.296875  Q 12.9375 14.109375 22.625 23.890625  Q 32.328125 33.6875 34.8125 36.53125  Q 39.546875 41.84375 41.421875 45.53125  Q 43.3125 49.21875 43.3125 52.78125  Q 43.3125 58.59375 39.234375 62.25  Q 35.15625 65.921875 28.609375 65.921875  Q 23.96875 65.921875 18.8125 64.3125  Q 13.671875 62.703125 7.8125 59.421875  L 7.8125 69.390625  Q 13.765625 71.78125 18.9375 73  Q 24.125 74.21875 28.421875 74.21875  Q 39.75 74.21875 46.484375 68.546875  Q 53.21875 62.890625 53.21875 53.421875  Q 53.21875 48.921875 51.53125 44.890625  Q 49.859375 40.875 45.40625 35.40625  Q 44.1875 33.984375 37.640625 27.21875  Q 31.109375 20.453125 19.1875 8.296875  z "
       id="DejaVuSans-50-1" />
    <path
       d="M 19.671875 34.8125  L 19.671875 8.109375  L 35.5 8.109375  Q 43.453125 8.109375 47.28125 11.40625  Q 51.125 14.703125 51.125 21.484375  Q 51.125 28.328125 47.28125 31.5625  Q 43.453125 34.8125 35.5 34.8125  z M 19.671875 64.796875  L 19.671875 42.828125  L 34.28125 42.828125  Q 41.5 42.828125 45.03125 45.53125  Q 48.578125 48.25 48.578125 53.8125  Q 48.578125 59.328125 45.03125 62.0625  Q 41.5 64.796875 34.28125 64.796875  z M 9.8125 72.90625  L 35.015625 72.90625  Q 46.296875 72.90625 52.390625 68.21875  Q 58.5 63.53125 58.5 54.890625  Q 58.5 48.1875 55.375 44.234375  Q 52.25 40.28125 46.1875 39.3125  Q 53.46875 37.75 57.5 32.78125  Q 61.53125 27.828125 61.53125 20.40625  Q 61.53125 10.640625 54.890625 5.3125  Q 48.25 0 35.984375 0  L 9.8125 0  z "
       id="DejaVuSans-66-3" />
    <path
       d="M 9.421875 54.6875  L 18.40625 54.6875  L 18.40625 0  L 9.421875 0  z M 9.421875 75.984375  L 18.40625 75.984375  L 18.40625 64.59375  L 9.421875 64.59375  z "
       id="DejaVuSans-105-1" />
    <path
       d="M 41.109375 46.296875  Q 39.59375 47.171875 37.8125 47.578125  Q 36.03125 48 33.890625 48  Q 26.265625 48 22.1875 43.046875  Q 18.109375 38.09375 18.109375 28.8125  L 18.109375 0  L 9.078125 0  L 9.078125 54.6875  L 18.109375 54.6875  L 18.109375 46.1875  Q 20.953125 51.171875 25.484375 53.578125  Q 30.03125 56 36.53125 56  Q 37.453125 56 38.578125 55.875  Q 39.703125 55.765625 41.0625 55.515625  z "
       id="DejaVuSans-114-17" />
    <path
       d="M 18.3125 70.21875  L 18.3125 54.6875  L 36.8125 54.6875  L 36.8125 47.703125  L 18.3125 47.703125  L 18.3125 18.015625  Q 18.3125 11.328125 20.140625 9.421875  Q 21.96875 7.515625 27.59375 7.515625  L 36.8125 7.515625  L 36.8125 0  L 27.59375 0  Q 17.1875 0 13.234375 3.875  Q 9.28125 7.765625 9.28125 18.015625  L 9.28125 47.703125  L 2.6875 47.703125  L 2.6875 54.6875  L 9.28125 54.6875  L 9.28125 70.21875  z "
       id="DejaVuSans-116-8" />
    <path
       d="M 54.890625 33.015625  L 54.890625 0  L 45.90625 0  L 45.90625 32.71875  Q 45.90625 40.484375 42.875 44.328125  Q 39.84375 48.1875 33.796875 48.1875  Q 26.515625 48.1875 22.3125 43.546875  Q 18.109375 38.921875 18.109375 30.90625  L 18.109375 0  L 9.078125 0  L 9.078125 75.984375  L 18.109375 75.984375  L 18.109375 46.1875  Q 21.34375 51.125 25.703125 53.5625  Q 30.078125 56 35.796875 56  Q 45.21875 56 50.046875 50.171875  Q 54.890625 44.34375 54.890625 33.015625  z "
       id="DejaVuSans-104-3" />
    <path
       d="M 0 0  L -3.5 0  "
       id="m86499f859e"
       style="stroke:#000000;stroke-width:0.8;" />
    <path
       d="M 19.671875 64.796875  L 19.671875 8.109375  L 31.59375 8.109375  Q 46.6875 8.109375 53.6875 14.9375  Q 60.6875 21.78125 60.6875 36.53125  Q 60.6875 51.171875 53.6875 57.984375  Q 46.6875 64.796875 31.59375 64.796875  z M 9.8125 72.90625  L 30.078125 72.90625  Q 51.265625 72.90625 61.171875 64.09375  Q 71.09375 55.28125 71.09375 36.53125  Q 71.09375 17.671875 61.125 8.828125  Q 51.171875 0 30.078125 0  L 9.8125 0  z "
       id="DejaVuSans-68-65" />
    <path
       d="M 56.203125 29.59375  L 56.203125 25.203125  L 14.890625 25.203125  Q 15.484375 15.921875 20.484375 11.0625  Q 25.484375 6.203125 34.421875 6.203125  Q 39.59375 6.203125 44.453125 7.46875  Q 49.3125 8.734375 54.109375 11.28125  L 54.109375 2.78125  Q 49.265625 0.734375 44.1875 -0.34375  Q 39.109375 -1.421875 33.890625 -1.421875  Q 20.796875 -1.421875 13.15625 6.1875  Q 5.515625 13.8125 5.515625 26.8125  Q 5.515625 40.234375 12.765625 48.109375  Q 20.015625 56 32.328125 56  Q 43.359375 56 49.78125 48.890625  Q 56.203125 41.796875 56.203125 29.59375  z M 47.21875 32.234375  Q 47.125 39.59375 43.09375 43.984375  Q 39.0625 48.390625 32.421875 48.390625  Q 24.90625 48.390625 20.390625 44.140625  Q 15.875 39.890625 15.1875 32.171875  z "
       id="DejaVuSans-101-9" />
    <path
       d="M 34.28125 27.484375  Q 23.390625 27.484375 19.1875 25  Q 14.984375 22.515625 14.984375 16.5  Q 14.984375 11.71875 18.140625 8.90625  Q 21.296875 6.109375 26.703125 6.109375  Q 34.1875 6.109375 38.703125 11.40625  Q 43.21875 16.703125 43.21875 25.484375  L 43.21875 27.484375  z M 52.203125 31.203125  L 52.203125 0  L 43.21875 0  L 43.21875 8.296875  Q 40.140625 3.328125 35.546875 0.953125  Q 30.953125 -1.421875 24.3125 -1.421875  Q 15.921875 -1.421875 10.953125 3.296875  Q 6 8.015625 6 15.921875  Q 6 25.140625 12.171875 29.828125  Q 18.359375 34.515625 30.609375 34.515625  L 43.21875 34.515625  L 43.21875 35.40625  Q 43.21875 41.609375 39.140625 45  Q 35.0625 48.390625 27.6875 48.390625  Q 23 48.390625 18.546875 47.265625  Q 14.109375 46.140625 10.015625 43.890625  L 10.015625 52.203125  Q 14.9375 54.109375 19.578125 55.046875  Q 24.21875 56 28.609375 56  Q 40.484375 56 46.34375 49.84375  Q 52.203125 43.703125 52.203125 31.203125  z "
       id="DejaVuSans-97-5" />
    <path
       d="M 45.5625 17.046875  Q 44.046875 18.796875 41.65625 22.90625  Q 38.375 17.046875 35.5 14.453125  Q 31.890625 11.328125 26.265625 11.328125  Q 19.671875 11.328125 15.328125 16.265625  Q 10.75 21.4375 10.75 29.984375  Q 10.75 38.1875 15.328125 43.75  Q 19.4375 48.6875 26.375 48.6875  Q 29.9375 48.6875 32.5625 47.21875  Q 35.640625 45.609375 37.75 42.828125  Q 39.703125 40.328125 41.65625 36.96875  Q 44.921875 42.828125 47.796875 45.40625  Q 51.421875 48.53125 57.03125 48.53125  Q 63.625 48.53125 67.96875 43.609375  Q 72.5625 38.421875 72.5625 29.890625  Q 72.5625 21.6875 67.96875 16.109375  Q 63.875 11.1875 56.9375 11.1875  Q 53.375 11.1875 50.734375 12.640625  Q 48.09375 13.96875 45.5625 17.046875  z M 25.734375 17.71875  Q 33.796875 17.71875 38.625 29.4375  Q 32.421875 42.234375 25.734375 42.234375  Q 20.84375 42.234375 18.359375 38.71875  Q 15.671875 34.96875 15.671875 29.984375  Q 15.671875 24.515625 18.359375 21.140625  Q 21.09375 17.71875 25.734375 17.71875  z M 57.5625 42.140625  Q 50.296875 42.140625 44.671875 30.421875  Q 50.828125 17.625 57.5625 17.625  Q 62.453125 17.625 64.9375 21.140625  Q 67.625 24.90625 67.625 29.890625  Q 67.625 35.359375 64.9375 38.71875  Q 62.203125 42.140625 57.5625 42.140625  z "
       id="DejaVuSans-8734-8" />
    <path
       d="M 16.890625 72.90625  L 26.8125 72.90625  L 21 43.015625  L 56.78125 43.015625  L 62.59375 72.90625  L 72.515625 72.90625  L 58.296875 0  L 48.390625 0  L 55.171875 34.71875  L 19.390625 34.71875  L 12.59375 0  L 2.6875 0  z "
       id="DejaVuSans-Oblique-72-7" />
    <clipPath
       id="pda74e8e248">
      <rect
         height="292.84"
         width="292.84"
         x="83.98"
         y="10.8"
         id="rect28298" />
    </clipPath>
  </defs>
  <g
     inkscape:label="Plot"
     transform="matrix(2.2142527,0,0,2.2142527,45.094202,196.36618)"
     id="g5735">
    <g
       inkscape:label="Axis"
       id="g5733">
      <g
         id="g6764"
         transform="translate(-0.7054224,0.70542238)" />
    </g>
  </g>
  <g
     inkscape:label="Layer 1"
     inkscape:groupmode="layer"
     id="layer1"
     style="display:none">
    <circle
       style="display:inline;fill:#ffffff;stroke:#000000;stroke-width:0.176614"
       id="path491"
       cx="25.084545"
       cy="30.449816"
       r="10.559686" />
    <path
       style="display:inline;fill:none;stroke:#000000;stroke-width:0.171693px;stroke-linecap:butt;stroke-linejoin:miter;stroke-opacity:1"
       d="m 14.285051,30.331143 c 46.876944,0 46.876944,-0.237351 46.876944,-0.237351"
       id="path606" />
  </g>
  <g
     inkscape:groupmode="layer"
     id="layer2"
     inkscape:label="points">
    <path
       style="fill:#c2b6ff;stroke:none;stroke-width:0.521854;stroke-miterlimit:4;stroke-dasharray:none;stroke-opacity:1;fill-opacity:1"
       d="m 662.33173,117.39854 c 0.0811,-0.0811 11.89377,-6.88922 26.25032,-15.12909 18.269,-10.485395 26.1898,-14.909858 26.39266,-14.742617 0.15942,0.131424 0.57194,0.314396 0.91672,0.406605 0.51361,0.13736 2.19568,2.767528 9.30952,14.556782 4.77546,7.91402 8.62823,14.44354 8.56173,14.51005 -0.0665,0.0665 -12.85394,0.21035 -28.41652,0.31965 -35.5346,0.24957 -43.19939,0.26357 -43.01443,0.0786 z"
       id="path79575"
       transform="scale(0.26458333)" />
    <circle
       style="display:inline;fill:#000000;fill-rule:evenodd;stroke-width:0.171693"
       id="path31"
       cx="30.066158"
       cy="22.596924"
       r="0.71205479" />
    <circle
       style="display:inline;fill:#000000;fill-rule:evenodd;stroke-width:0.171693"
       id="circle135"
       cx="14.519631"
       cy="31.497612"
       r="0.71205479" />
    <circle
       style="display:inline;fill:#000000;fill-rule:evenodd;stroke-width:0.171693"
       id="circle285"
       cx="30.303513"
       cy="40.635647"
       r="0.71205479" />
    <circle
       style="display:inline;fill:#000000;fill-rule:evenodd;stroke-width:0.171693"
       id="circle688"
       cx="35.287895"
       cy="31.497612"
       r="0.71205479" />
    <text
       xml:space="preserve"
       style="font-style:normal;font-weight:normal;font-size:3.88056px;line-height:1.25;font-family:sans-serif;text-align:center;text-anchor:middle;fill:#000000;fill-opacity:1;stroke:none;stroke-width:0.264583"
       x="11.214875"
       y="33.902309"
       id="text15801"><tspan
         sodipodi:role="line"
         id="tspan15799"
         style="font-size:3.88056px;text-align:center;text-anchor:middle;stroke-width:0.264583"
         x="14.565837"
         y="33.902309">$a$</tspan><tspan
         sodipodi:role="line"
         style="font-size:3.88056px;text-align:center;text-anchor:middle;stroke-width:0.264583"
         x="14.565837"
         y="38.75301"
         id="tspan15803" /></text>
    <text
       xml:space="preserve"
       style="font-style:normal;font-weight:normal;font-size:3.88056px;line-height:1.25;font-family:sans-serif;fill:#000000;fill-opacity:1;stroke:none;stroke-width:0.264583;text-anchor:middle;text-align:center"
       x="28.202152"
       y="21.313808"
       id="text15801-2"><tspan
         sodipodi:role="line"
         id="tspan15799-5"
         style="font-size:3.88056px;stroke-width:0.264583;text-anchor:middle;text-align:center"
         x="24.80761"
         y="21.313808">$b$</tspan><tspan
         sodipodi:role="line"
         style="font-size:3.88056px;stroke-width:0.264583;text-anchor:middle;text-align:center"
         x="24.80761"
         y="26.164509"
         id="tspan15803-5" /></text>
    <text
       xml:space="preserve"
       style="font-style:normal;font-weight:normal;font-size:3.88056px;line-height:1.25;font-family:sans-serif;fill:#000000;fill-opacity:1;stroke:none;stroke-width:0.264583;text-anchor:middle;text-align:center"
       x="38.141792"
       y="33.932652"
       id="text15801-2-5"><tspan
         sodipodi:role="line"
         id="tspan15799-5-5"
         style="font-size:3.88056px;stroke-width:0.264583;text-anchor:middle;text-align:center"
         x="34.74725"
         y="33.932652">$d$</tspan><tspan
         sodipodi:role="line"
         style="font-size:3.88056px;stroke-width:0.264583;text-anchor:middle;text-align:center"
         x="34.74725"
         y="38.783352"
         id="tspan15803-5-9" /></text>
    <text
       xml:space="preserve"
       style="font-style:normal;font-weight:normal;font-size:3.88056px;line-height:1.25;font-family:sans-serif;fill:#000000;fill-opacity:1;stroke:none;stroke-width:0.264583;text-anchor:middle;text-align:center"
       x="28.068171"
       y="43.991146"
       id="text15801-2-3"><tspan
         sodipodi:role="line"
         id="tspan15799-5-1"
         style="font-size:3.88056px;stroke-width:0.264583;text-anchor:middle;text-align:center"
         x="24.871635"
         y="43.991146">$c$</tspan><tspan
         sodipodi:role="line"
         style="font-size:3.88056px;stroke-width:0.264583;text-anchor:middle;text-align:center"
         x="24.871635"
         y="48.841846"
         id="tspan15803-5-1" /></text>
    <circle
       style="display:inline;fill:#000000;fill-rule:evenodd;stroke-width:0.171693"
       id="path31-2"
       cx="83.183159"
       cy="23.419893"
       r="0.71205479" />
    <circle
       style="display:inline;fill:#000000;fill-rule:evenodd;stroke-width:0.171693"
       id="circle135-7"
       cx="67.636635"
       cy="32.320583"
       r="0.71205479" />
    <circle
       style="display:inline;fill:#000000;fill-rule:evenodd;stroke-width:0.171693"
       id="circle285-6"
       cx="83.420517"
       cy="41.458618"
       r="0.71205479" />
    <circle
       style="display:inline;fill:#000000;fill-rule:evenodd;stroke-width:0.171693"
       id="circle688-2"
       cx="88.404907"
       cy="32.320583"
       r="0.71205479" />
    <text
       xml:space="preserve"
       style="font-style:normal;font-weight:normal;font-size:3.88056px;line-height:1.25;font-family:sans-serif;fill:#000000;fill-opacity:1;stroke:none;stroke-width:0.264583;text-anchor:middle;text-align:center"
       x="64.331871"
       y="34.725285"
       id="text15801-1"><tspan
         sodipodi:role="line"
         id="tspan15799-0"
         style="font-size:3.88056px;stroke-width:0.264583;text-anchor:middle;text-align:center"
         x="60.980907"
         y="34.725285">$a$</tspan><tspan
         sodipodi:role="line"
         style="font-size:3.88056px;stroke-width:0.264583;text-anchor:middle;text-align:center"
         x="60.980907"
         y="39.575985"
         id="tspan15803-56" /></text>
    <text
       xml:space="preserve"
       style="font-style:normal;font-weight:normal;font-size:3.88056px;line-height:1.25;font-family:sans-serif;fill:#000000;fill-opacity:1;stroke:none;stroke-width:0.264583;text-anchor:middle;text-align:center"
       x="81.319153"
       y="22.136778"
       id="text15801-2-6"><tspan
         sodipodi:role="line"
         id="tspan15799-5-58"
         style="font-size:3.88056px;stroke-width:0.264583;text-anchor:middle;text-align:center"
         x="77.924614"
         y="22.136778">$b$</tspan><tspan
         sodipodi:role="line"
         style="font-size:3.88056px;stroke-width:0.264583;text-anchor:middle;text-align:center"
         x="77.924614"
         y="26.987478"
         id="tspan15803-5-6" /></text>
    <text
       xml:space="preserve"
       style="font-style:normal;font-weight:normal;font-size:3.88056px;line-height:1.25;font-family:sans-serif;fill:#000000;fill-opacity:1;stroke:none;stroke-width:0.264583;text-anchor:middle;text-align:center"
       x="91.258797"
       y="34.755627"
       id="text15801-2-5-5"><tspan
         sodipodi:role="line"
         id="tspan15799-5-5-0"
         style="font-size:3.88056px;stroke-width:0.264583;text-anchor:middle;text-align:center"
         x="87.864258"
         y="34.755627">$d$</tspan><tspan
         sodipodi:role="line"
         style="font-size:3.88056px;stroke-width:0.264583;text-anchor:middle;text-align:center"
         x="87.864258"
         y="39.606327"
         id="tspan15803-5-9-9" /></text>
    <text
       xml:space="preserve"
       style="font-style:normal;font-weight:normal;font-size:3.88056px;line-height:1.25;font-family:sans-serif;fill:#000000;fill-opacity:1;stroke:none;stroke-width:0.264583;text-anchor:middle;text-align:center"
       x="81.185173"
       y="44.814114"
       id="text15801-2-3-7"><tspan
         sodipodi:role="line"
         id="tspan15799-5-1-5"
         style="font-size:3.88056px;stroke-width:0.264583;text-anchor:middle;text-align:center"
         x="77.98864"
         y="44.814114">$c$</tspan><tspan
         sodipodi:role="line"
         style="font-size:3.88056px;stroke-width:0.264583;text-anchor:middle;text-align:center"
         x="77.98864"
         y="49.664814"
         id="tspan15803-5-1-7" /></text>
    <text
       xml:space="preserve"
       style="font-style:normal;font-weight:normal;font-size:3.88056px;line-height:1.25;font-family:sans-serif;text-align:center;text-anchor:middle;fill:#000000;fill-opacity:1;stroke:none;stroke-width:0.264583"
       x="51.540001"
       y="34.067215"
       id="text4155"><tspan
         sodipodi:role="line"
         id="tspan4153"
         style="font-size:3.88056px;text-align:center;text-anchor:middle;stroke-width:0.264583"
         x="51.540001"
         y="34.067215">$\subseteq$</tspan></text>
    <text
       xml:space="preserve"
       style="font-style:normal;font-weight:normal;font-size:3.88056px;line-height:1.25;font-family:sans-serif;text-align:center;text-anchor:middle;fill:#000000;fill-opacity:1;stroke:none;stroke-width:0.264583"
       x="104.93133"
       y="34.661583"
       id="text4155-2"><tspan
         sodipodi:role="line"
         id="tspan4153-2"
         style="font-size:3.88056px;text-align:center;text-anchor:middle;stroke-width:0.264583"
         x="104.93133"
         y="34.661583">$\subseteq$</tspan></text>
    <text
       xml:space="preserve"
       style="font-style:normal;font-weight:normal;font-size:3.88056px;line-height:1.25;font-family:sans-serif;text-align:center;text-anchor:middle;fill:#000000;fill-opacity:1;stroke:none;stroke-width:0.264583"
       x="158.32265"
       y="33.472851"
       id="text4155-0"><tspan
         sodipodi:role="line"
         id="tspan4153-9"
         style="font-size:3.88056px;text-align:center;text-anchor:middle;stroke-width:0.264583"
         x="158.32265"
         y="33.472851">$\subseteq$</tspan></text>
    <circle
       style="display:inline;fill:#000000;fill-rule:evenodd;stroke-width:0.171693"
       id="path31-26"
       cx="136.30017"
       cy="23.008408"
       r="0.71205479" />
    <circle
       style="display:inline;fill:#000000;fill-rule:evenodd;stroke-width:0.171693"
       id="circle135-4"
       cx="120.75363"
       cy="31.909094"
       r="0.71205479" />
    <circle
       style="display:inline;fill:#000000;fill-rule:evenodd;stroke-width:0.171693"
       id="circle285-5"
       cx="136.53752"
       cy="41.047134"
       r="0.71205479" />
    <circle
       style="display:inline;fill:#000000;fill-rule:evenodd;stroke-width:0.171693"
       id="circle688-6"
       cx="141.5219"
       cy="31.909094"
       r="0.71205479" />
    <text
       xml:space="preserve"
       style="font-style:normal;font-weight:normal;font-size:3.88056px;line-height:1.25;font-family:sans-serif;fill:#000000;fill-opacity:1;stroke:none;stroke-width:0.264583;text-anchor:middle;text-align:center"
       x="117.44888"
       y="34.313797"
       id="text15801-7"><tspan
         sodipodi:role="line"
         id="tspan15799-01"
         style="font-size:3.88056px;stroke-width:0.264583;text-anchor:middle;text-align:center"
         x="114.09792"
         y="34.313797">$a$</tspan><tspan
         sodipodi:role="line"
         style="font-size:3.88056px;stroke-width:0.264583;text-anchor:middle;text-align:center"
         x="114.09792"
         y="39.164497"
         id="tspan15803-8" /></text>
    <text
       xml:space="preserve"
       style="font-style:normal;font-weight:normal;font-size:3.88056px;line-height:1.25;font-family:sans-serif;fill:#000000;fill-opacity:1;stroke:none;stroke-width:0.264583;text-anchor:middle;text-align:center"
       x="134.43617"
       y="21.725292"
       id="text15801-2-2"><tspan
         sodipodi:role="line"
         id="tspan15799-5-56"
         style="font-size:3.88056px;stroke-width:0.264583;text-anchor:middle;text-align:center"
         x="131.04163"
         y="21.725292">$b$</tspan><tspan
         sodipodi:role="line"
         style="font-size:3.88056px;stroke-width:0.264583;text-anchor:middle;text-align:center"
         x="131.04163"
         y="26.575993"
         id="tspan15803-5-65" /></text>
    <text
       xml:space="preserve"
       style="font-style:normal;font-weight:normal;font-size:3.88056px;line-height:1.25;font-family:sans-serif;fill:#000000;fill-opacity:1;stroke:none;stroke-width:0.264583;text-anchor:middle;text-align:center"
       x="144.37581"
       y="34.344139"
       id="text15801-2-5-3"><tspan
         sodipodi:role="line"
         id="tspan15799-5-5-3"
         style="font-size:3.88056px;stroke-width:0.264583;text-anchor:middle;text-align:center"
         x="140.98126"
         y="34.344139">$d$</tspan><tspan
         sodipodi:role="line"
         style="font-size:3.88056px;stroke-width:0.264583;text-anchor:middle;text-align:center"
         x="140.98126"
         y="39.194839"
         id="tspan15803-5-9-2" /></text>
    <text
       xml:space="preserve"
       style="font-style:normal;font-weight:normal;font-size:3.88056px;line-height:1.25;font-family:sans-serif;fill:#000000;fill-opacity:1;stroke:none;stroke-width:0.264583;text-anchor:middle;text-align:center"
       x="134.30219"
       y="44.402634"
       id="text15801-2-3-3"><tspan
         sodipodi:role="line"
         id="tspan15799-5-1-51"
         style="font-size:3.88056px;stroke-width:0.264583;text-anchor:middle;text-align:center"
         x="131.10565"
         y="44.402634">$c$</tspan><tspan
         sodipodi:role="line"
         style="font-size:3.88056px;stroke-width:0.264583;text-anchor:middle;text-align:center"
         x="131.10565"
         y="49.253334"
         id="tspan15803-5-1-2" /></text>
    <path
       id="path81740"
       style="fill:#c2b6ff;fill-opacity:1;stroke:#c1c1e3;stroke-width:0.521575;stroke-miterlimit:4;stroke-dasharray:none;stroke-opacity:1"
       d="m 715.61805,86.748656 c -0.4355,0.02988 -1.69394,0.916046 -2.42844,1.285322 -3.34135,1.679879 -49.70818,27.291832 -50.98518,28.410312 -4.99998,4.3793 4.67718,0.89344 34.78776,0.76274 18.7633,-0.0815 35.18306,0.11506 35.81352,0.21266 2.14371,0.33187 0.96604,-0.99948 0.84532,-1.31446 -0.40285,-1.05106 -14.56966,-24.412388 -16.29883,-26.88617 -0.77697,-1.111542 -1.0083,-2.520201 -1.73415,-2.470404 z m 2.99133,32.841184 c -3.86859,0.0102 -8.64747,0.0324 -14.51954,0.0625 -16.21534,0.083 -32.29374,0.21949 -35.72851,0.30469 l -7.16056,-0.48719 27.65665,16.19032 26.64664,15.97648 1.28579,-0.53359 c 0.83922,-0.36049 1.34089,-1.33988 8.79609,-15.82375 4.34165,-8.4349 8.65117,-15.45723 8.58837,-15.6254 -0.0683,-0.18272 -3.95918,-0.0945 -15.56493,-0.0641 z"
       transform="scale(0.26458333)"
       sodipodi:nodetypes="sssssssssscccccsss" />
    <circle
       style="display:inline;fill:#000000;fill-rule:evenodd;stroke-width:0.171693"
       id="path31-7"
       cx="189.60004"
       cy="22.551205"
       r="0.71205479" />
    <circle
       style="display:inline;fill:#000000;fill-rule:evenodd;stroke-width:0.171693"
       id="circle135-78"
       cx="174.05351"
       cy="31.451893"
       r="0.71205479" />
    <circle
       style="display:inline;fill:#000000;fill-rule:evenodd;stroke-width:0.171693"
       id="circle285-0"
       cx="189.8374"
       cy="40.589931"
       r="0.71205479" />
    <circle
       style="display:inline;fill:#000000;fill-rule:evenodd;stroke-width:0.171693"
       id="circle688-9"
       cx="194.82178"
       cy="31.451893"
       r="0.71205479" />
    <text
       xml:space="preserve"
       style="font-style:normal;font-weight:normal;font-size:3.88056px;line-height:1.25;font-family:sans-serif;fill:#000000;fill-opacity:1;stroke:none;stroke-width:0.264583;text-anchor:middle;text-align:center"
       x="170.74876"
       y="33.856594"
       id="text15801-6"><tspan
         sodipodi:role="line"
         id="tspan15799-3"
         style="font-size:3.88056px;stroke-width:0.264583;text-anchor:middle;text-align:center"
         x="167.3978"
         y="33.856594">$a$</tspan><tspan
         sodipodi:role="line"
         style="font-size:3.88056px;stroke-width:0.264583;text-anchor:middle;text-align:center"
         x="167.3978"
         y="38.707294"
         id="tspan15803-58" /></text>
    <text
       xml:space="preserve"
       style="font-style:normal;font-weight:normal;font-size:3.88056px;line-height:1.25;font-family:sans-serif;fill:#000000;fill-opacity:1;stroke:none;stroke-width:0.264583;text-anchor:middle;text-align:center"
       x="187.73604"
       y="21.268089"
       id="text15801-2-7"><tspan
         sodipodi:role="line"
         id="tspan15799-5-0"
         style="font-size:3.88056px;stroke-width:0.264583;text-anchor:middle;text-align:center"
         x="184.34149"
         y="21.268089">$b$</tspan><tspan
         sodipodi:role="line"
         style="font-size:3.88056px;stroke-width:0.264583;text-anchor:middle;text-align:center"
         x="184.34149"
         y="26.11879"
         id="tspan15803-5-7" /></text>
    <text
       xml:space="preserve"
       style="font-style:normal;font-weight:normal;font-size:3.88056px;line-height:1.25;font-family:sans-serif;fill:#000000;fill-opacity:1;stroke:none;stroke-width:0.264583;text-anchor:middle;text-align:center"
       x="197.67567"
       y="33.886936"
       id="text15801-2-5-1"><tspan
         sodipodi:role="line"
         id="tspan15799-5-5-1"
         style="font-size:3.88056px;stroke-width:0.264583;text-anchor:middle;text-align:center"
         x="194.28113"
         y="33.886936">$d$</tspan><tspan
         sodipodi:role="line"
         style="font-size:3.88056px;stroke-width:0.264583;text-anchor:middle;text-align:center"
         x="194.28113"
         y="38.737637"
         id="tspan15803-5-9-23" /></text>
    <text
       xml:space="preserve"
       style="font-style:normal;font-weight:normal;font-size:3.88056px;line-height:1.25;font-family:sans-serif;fill:#000000;fill-opacity:1;stroke:none;stroke-width:0.264583;text-anchor:middle;text-align:center"
       x="187.60205"
       y="43.945431"
       id="text15801-2-3-35"><tspan
         sodipodi:role="line"
         id="tspan15799-5-1-2"
         style="font-size:3.88056px;stroke-width:0.264583;text-anchor:middle;text-align:center"
         x="184.40552"
         y="43.945431">$c$</tspan><tspan
         sodipodi:role="line"
         style="font-size:3.88056px;stroke-width:0.264583;text-anchor:middle;text-align:center"
         x="184.40552"
         y="48.796131"
         id="tspan15803-5-1-9" /></text>
    <path
       style="fill:none;stroke:#000000;stroke-width:0.565;stroke-linecap:butt;stroke-linejoin:miter;stroke-miterlimit:4;stroke-dasharray:none;stroke-opacity:1"
       d="m 83.150795,23.406367 5.301995,8.793553 -5.043363,9.31082"
       id="path33941"
       sodipodi:nodetypes="ccc" />
    <path
       style="fill:none;stroke:#000000;stroke-width:0.565;stroke-linecap:butt;stroke-linejoin:miter;stroke-miterlimit:4;stroke-dasharray:none;stroke-opacity:1"
       d="m 136.29068,23.024075 5.302,8.793553 -5.04337,9.31082"
       id="path33941-5"
       sodipodi:nodetypes="ccc" />
    <path
       style="fill:none;stroke:#000000;stroke-width:0.565;stroke-linecap:butt;stroke-linejoin:miter;stroke-miterlimit:4;stroke-dasharray:none;stroke-opacity:1"
       d="m 189.47227,22.506807 5.30199,8.793553 -5.04336,9.31082"
       id="path33941-9"
       sodipodi:nodetypes="ccc" />
    <text
       xml:space="preserve"
       style="font-style:normal;font-weight:normal;font-size:3.88056px;line-height:1.25;font-family:sans-serif;fill:#000000;fill-opacity:1;stroke:none;stroke-width:0.264583;text-anchor:middle;text-align:center"
       x="27.973518"
       y="56.575836"
       id="text38874"><tspan
         sodipodi:role="line"
         id="tspan38872"
         style="font-size:3.88056px;stroke-width:0.264583;text-anchor:middle;text-align:center"
         x="22.201944"
         y="56.575836">$t=0$</tspan></text>
    <text
       xml:space="preserve"
       style="font-style:normal;font-weight:normal;font-size:3.88056px;line-height:1.25;font-family:sans-serif;text-align:center;text-anchor:middle;fill:#000000;fill-opacity:1;stroke:none;stroke-width:0.264583"
       x="80.86351"
       y="56.461208"
       id="text38874-5"><tspan
         sodipodi:role="line"
         id="tspan38872-0"
         style="font-size:3.88056px;text-align:center;text-anchor:middle;stroke-width:0.264583"
         x="80.86351"
         y="56.461208">$t=\sqrt{1-x+x^2}$</tspan></text>
    <text
       xml:space="preserve"
       style="font-style:normal;font-weight:normal;font-size:3.88056px;line-height:1.25;font-family:sans-serif;text-align:center;text-anchor:middle;fill:#000000;fill-opacity:1;stroke:none;stroke-width:0.264583"
       x="133.4809"
       y="56.433487"
       id="text38874-5-8"><tspan
         sodipodi:role="line"
         id="tspan38872-0-0"
         style="font-size:3.88056px;text-align:center;text-anchor:middle;stroke-width:0.264583"
         x="133.4809"
         y="56.433487">$t=\sqrt{3}$</tspan></text>
    <text
       xml:space="preserve"
       style="font-style:normal;font-weight:normal;font-size:3.88056px;line-height:1.25;font-family:sans-serif;text-align:center;text-anchor:middle;fill:#000000;fill-opacity:1;stroke:none;stroke-width:0.264583"
       x="186.39003"
       y="56.510803"
       id="text38874-5-8-5"><tspan
         sodipodi:role="line"
         id="tspan38872-0-0-3"
         style="font-size:3.88056px;text-align:center;text-anchor:middle;stroke-width:0.264583"
         x="186.39003"
         y="56.510803">$t=2-\delta$</tspan></text>
    <path
       style="fill:none;stroke:#000000;stroke-width:0.565;stroke-linecap:butt;stroke-linejoin:miter;stroke-opacity:1;stroke-miterlimit:4;stroke-dasharray:none"
       d="m 136.29068,23.024075 -15.57331,8.91721 15.83194,9.187162"
       id="path79321" />
    <path
       style="fill:none;stroke:#000000;stroke-width:0.565;stroke-linecap:butt;stroke-linejoin:miter;stroke-opacity:1;stroke-miterlimit:4;stroke-dasharray:none"
       d="m 189.47227,22.506807 -15.54098,8.91721 15.79961,9.187161"
       id="path79323" />
    <path
       style="fill:none;stroke:#000000;stroke-width:0.565;stroke-linecap:butt;stroke-linejoin:miter;stroke-opacity:1;stroke-miterlimit:4;stroke-dasharray:none"
       d="m 173.93129,31.424017 20.84297,-0.123658"
       id="path79325" />
    <text
       xml:space="preserve"
       style="font-size:10.5833px;line-height:1.25;font-family:sans-serif;text-align:center;text-anchor:middle;stroke-width:0.264583"
       x="115.23967"
       y="66.471077"
       id="text139665"><tspan
         sodipodi:role="line"
         id="tspan139663"
         style="stroke-width:0.264583" /></text>
    <path
       style="fill:none;stroke:#000000;stroke-width:0.652371;stroke-linecap:butt;stroke-linejoin:miter;stroke-miterlimit:4;stroke-dasharray:none;stroke-opacity:1;marker-end:url(#Arrow2Mend)"
       d="m 12.495867,48.768595 c 189.739903,0 190.909083,0 190.909083,0"
       id="path130" />
    <path
       style="fill:none;stroke:#000000;stroke-width:0.365;stroke-linecap:butt;stroke-linejoin:miter;stroke-miterlimit:4;stroke-dasharray:none;stroke-opacity:1"
       d="m 27.942148,46.58471 v 4.338844"
       id="path1456" />
    <path
       style="fill:none;stroke:#000000;stroke-width:0.365;stroke-linecap:butt;stroke-linejoin:miter;stroke-miterlimit:4;stroke-dasharray:none;stroke-opacity:1"
       d="M 80.536571,46.469006 V 50.80785"
       id="path1456-8" />
    <path
       style="fill:none;stroke:#000000;stroke-width:0.365;stroke-linecap:butt;stroke-linejoin:miter;stroke-miterlimit:4;stroke-dasharray:none;stroke-opacity:1"
       d="m 133.80992,46.526856 v 4.338845"
       id="path1456-6" />
    <path
       style="fill:none;stroke:#000000;stroke-width:0.365;stroke-linecap:butt;stroke-linejoin:miter;stroke-miterlimit:4;stroke-dasharray:none;stroke-opacity:1"
       d="m 186.22314,46.64256 v 4.338844"
       id="path1456-82" />
    <text
       xml:space="preserve"
       style="font-style:normal;font-weight:normal;font-size:3.88056px;line-height:1.25;font-family:sans-serif;text-align:center;text-anchor:middle;fill:#000000;fill-opacity:1;stroke:none;stroke-width:0.264583"
       x="9.2297173"
       y="50.15435"
       id="text1601"><tspan
         sodipodi:role="line"
         id="tspan1599"
         style="font-size:3.88056px;text-align:center;text-anchor:middle;stroke-width:0.264583"
         x="9.2297173"
         y="50.15435">$t$</tspan></text>
    <g
       id="g4313">
      <g
         id="g5246"
         transform="matrix(0.85542493,0,0,0.85542493,-5.6937264,24.996361)" />
    </g>
  </g>
</svg>
