<?xml version="1.0" encoding="utf-8" standalone="no"?>
<!DOCTYPE svg PUBLIC "-//W3C//DTD SVG 1.1//EN"
  "http://www.w3.org/Graphics/SVG/1.1/DTD/svg11.dtd">
<svg height="707.04pt" version="1.1" viewBox="0 0 1330.56 707.04" width="1330.56pt" xmlns="http://www.w3.org/2000/svg" xmlns:xlink="http://www.w3.org/1999/xlink">
 <metadata>
  <rdf:RDF xmlns:cc="http://creativecommons.org/ns#" xmlns:dc="http://purl.org/dc/elements/1.1/" xmlns:rdf="http://www.w3.org/1999/02/22-rdf-syntax-ns#">
   <cc:Work>
    <dc:type rdf:resource="http://purl.org/dc/dcmitype/StillImage"/>
    <dc:date>2021-11-06T15:00:57.553073</dc:date>
    <dc:format>image/svg+xml</dc:format>
    <dc:creator>
     <cc:Agent>
      <dc:title>Matplotlib v3.4.2, https://matplotlib.org/</dc:title>
     </cc:Agent>
    </dc:creator>
   </cc:Work>
  </rdf:RDF>
 </metadata>
 <defs>
  <style type="text/css">*{stroke-linecap:butt;stroke-linejoin:round;}</style>
 </defs>
 <g id="figure_1">
  <g id="patch_1">
   <path d="M 0 707.04 
L 1330.56 707.04 
L 1330.56 0 
L 0 0 
z
" style="fill:#ffffff;"/>
  </g>
  <g id="axes_1">
   <g id="patch_2">
    <path d="M 166.32 629.2656 
L 1197.504 629.2656 
L 1197.504 84.8448 
L 166.32 84.8448 
z
" style="fill:#ffffff;"/>
   </g>
   <g id="matplotlib.axis_1">
    <g id="xtick_1">
     <g id="line2d_1">
      <defs>
       <path d="M 0 0 
L 0 3.5 
" id="m145adee089" style="stroke:#000000;stroke-width:0.8;"/>
      </defs>
      <g>
       <use style="stroke:#000000;stroke-width:0.8;" x="269.4384" xlink:href="#m145adee089" y="629.2656"/>
      </g>
     </g>
     <g id="text_1">
      <!-- 1 -->
      <g transform="translate(264.98465 646.903412)scale(0.14 -0.14)">
       <defs>
        <path d="M 794 531 
L 1825 531 
L 1825 4091 
L 703 3866 
L 703 4441 
L 1819 4666 
L 2450 4666 
L 2450 531 
L 3481 531 
L 3481 0 
L 794 0 
L 794 531 
z
" id="DejaVuSans-31" transform="scale(0.015625)"/>
       </defs>
       <use xlink:href="#DejaVuSans-31"/>
      </g>
     </g>
    </g>
    <g id="xtick_2">
     <g id="line2d_2">
      <g>
       <use style="stroke:#000000;stroke-width:0.8;" x="269.4384" xlink:href="#m145adee089" y="629.2656"/>
      </g>
     </g>
     <g id="text_2">
      <!-- 1 -->
      <g transform="translate(264.98465 646.903412)scale(0.14 -0.14)">
       <use xlink:href="#DejaVuSans-31"/>
      </g>
     </g>
    </g>
    <g id="xtick_3">
     <g id="line2d_3">
      <g>
       <use style="stroke:#000000;stroke-width:0.8;" x="269.4384" xlink:href="#m145adee089" y="629.2656"/>
      </g>
     </g>
     <g id="text_3">
      <!-- 1 -->
      <g transform="translate(264.98465 646.903412)scale(0.14 -0.14)">
       <use xlink:href="#DejaVuSans-31"/>
      </g>
     </g>
    </g>
    <g id="xtick_4">
     <g id="line2d_4">
      <g>
       <use style="stroke:#000000;stroke-width:0.8;" x="475.6752" xlink:href="#m145adee089" y="629.2656"/>
      </g>
     </g>
     <g id="text_4">
      <!-- 2 -->
      <g transform="translate(471.22145 646.903412)scale(0.14 -0.14)">
       <defs>
        <path d="M 1228 531 
L 3431 531 
L 3431 0 
L 469 0 
L 469 531 
Q 828 903 1448 1529 
Q 2069 2156 2228 2338 
Q 2531 2678 2651 2914 
Q 2772 3150 2772 3378 
Q 2772 3750 2511 3984 
Q 2250 4219 1831 4219 
Q 1534 4219 1204 4116 
Q 875 4013 500 3803 
L 500 4441 
Q 881 4594 1212 4672 
Q 1544 4750 1819 4750 
Q 2544 4750 2975 4387 
Q 3406 4025 3406 3419 
Q 3406 3131 3298 2873 
Q 3191 2616 2906 2266 
Q 2828 2175 2409 1742 
Q 1991 1309 1228 531 
z
" id="DejaVuSans-32" transform="scale(0.015625)"/>
       </defs>
       <use xlink:href="#DejaVuSans-32"/>
      </g>
     </g>
    </g>
    <g id="xtick_5">
     <g id="line2d_5">
      <g>
       <use style="stroke:#000000;stroke-width:0.8;" x="475.6752" xlink:href="#m145adee089" y="629.2656"/>
      </g>
     </g>
     <g id="text_5">
      <!-- 2 -->
      <g transform="translate(471.22145 646.903412)scale(0.14 -0.14)">
       <use xlink:href="#DejaVuSans-32"/>
      </g>
     </g>
    </g>
    <g id="xtick_6">
     <g id="line2d_6">
      <g>
       <use style="stroke:#000000;stroke-width:0.8;" x="475.6752" xlink:href="#m145adee089" y="629.2656"/>
      </g>
     </g>
     <g id="text_6">
      <!-- 2 -->
      <g transform="translate(471.22145 646.903412)scale(0.14 -0.14)">
       <use xlink:href="#DejaVuSans-32"/>
      </g>
     </g>
    </g>
    <g id="xtick_7">
     <g id="line2d_7">
      <g>
       <use style="stroke:#000000;stroke-width:0.8;" x="681.912" xlink:href="#m145adee089" y="629.2656"/>
      </g>
     </g>
     <g id="text_7">
      <!-- 3 -->
      <g transform="translate(677.45825 646.903412)scale(0.14 -0.14)">
       <defs>
        <path d="M 2597 2516 
Q 3050 2419 3304 2112 
Q 3559 1806 3559 1356 
Q 3559 666 3084 287 
Q 2609 -91 1734 -91 
Q 1441 -91 1130 -33 
Q 819 25 488 141 
L 488 750 
Q 750 597 1062 519 
Q 1375 441 1716 441 
Q 2309 441 2620 675 
Q 2931 909 2931 1356 
Q 2931 1769 2642 2001 
Q 2353 2234 1838 2234 
L 1294 2234 
L 1294 2753 
L 1863 2753 
Q 2328 2753 2575 2939 
Q 2822 3125 2822 3475 
Q 2822 3834 2567 4026 
Q 2313 4219 1838 4219 
Q 1578 4219 1281 4162 
Q 984 4106 628 3988 
L 628 4550 
Q 988 4650 1302 4700 
Q 1616 4750 1894 4750 
Q 2613 4750 3031 4423 
Q 3450 4097 3450 3541 
Q 3450 3153 3228 2886 
Q 3006 2619 2597 2516 
z
" id="DejaVuSans-33" transform="scale(0.015625)"/>
       </defs>
       <use xlink:href="#DejaVuSans-33"/>
      </g>
     </g>
    </g>
    <g id="xtick_8">
     <g id="line2d_8">
      <g>
       <use style="stroke:#000000;stroke-width:0.8;" x="681.912" xlink:href="#m145adee089" y="629.2656"/>
      </g>
     </g>
     <g id="text_8">
      <!-- 3 -->
      <g transform="translate(677.45825 646.903412)scale(0.14 -0.14)">
       <use xlink:href="#DejaVuSans-33"/>
      </g>
     </g>
    </g>
    <g id="xtick_9">
     <g id="line2d_9">
      <g>
       <use style="stroke:#000000;stroke-width:0.8;" x="681.912" xlink:href="#m145adee089" y="629.2656"/>
      </g>
     </g>
     <g id="text_9">
      <!-- 3 -->
      <g transform="translate(677.45825 646.903412)scale(0.14 -0.14)">
       <use xlink:href="#DejaVuSans-33"/>
      </g>
     </g>
    </g>
    <g id="xtick_10">
     <g id="line2d_10">
      <g>
       <use style="stroke:#000000;stroke-width:0.8;" x="888.1488" xlink:href="#m145adee089" y="629.2656"/>
      </g>
     </g>
     <g id="text_10">
      <!-- 4 -->
      <g transform="translate(883.69505 646.903412)scale(0.14 -0.14)">
       <defs>
        <path d="M 2419 4116 
L 825 1625 
L 2419 1625 
L 2419 4116 
z
M 2253 4666 
L 3047 4666 
L 3047 1625 
L 3713 1625 
L 3713 1100 
L 3047 1100 
L 3047 0 
L 2419 0 
L 2419 1100 
L 313 1100 
L 313 1709 
L 2253 4666 
z
" id="DejaVuSans-34" transform="scale(0.015625)"/>
       </defs>
       <use xlink:href="#DejaVuSans-34"/>
      </g>
     </g>
    </g>
    <g id="xtick_11">
     <g id="line2d_11">
      <g>
       <use style="stroke:#000000;stroke-width:0.8;" x="1094.3856" xlink:href="#m145adee089" y="629.2656"/>
      </g>
     </g>
     <g id="text_11">
      <!-- 5 -->
      <g transform="translate(1089.93185 646.903412)scale(0.14 -0.14)">
       <defs>
        <path d="M 691 4666 
L 3169 4666 
L 3169 4134 
L 1269 4134 
L 1269 2991 
Q 1406 3038 1543 3061 
Q 1681 3084 1819 3084 
Q 2600 3084 3056 2656 
Q 3513 2228 3513 1497 
Q 3513 744 3044 326 
Q 2575 -91 1722 -91 
Q 1428 -91 1123 -41 
Q 819 9 494 109 
L 494 744 
Q 775 591 1075 516 
Q 1375 441 1709 441 
Q 2250 441 2565 725 
Q 2881 1009 2881 1497 
Q 2881 1984 2565 2268 
Q 2250 2553 1709 2553 
Q 1456 2553 1204 2497 
Q 953 2441 691 2322 
L 691 4666 
z
" id="DejaVuSans-35" transform="scale(0.015625)"/>
       </defs>
       <use xlink:href="#DejaVuSans-35"/>
      </g>
     </g>
    </g>
    <g id="text_12">
     <!-- Dimension -->
     <g transform="translate(639.3895 665.972475)scale(0.16 -0.16)">
      <defs>
       <path d="M 1259 4147 
L 1259 519 
L 2022 519 
Q 2988 519 3436 956 
Q 3884 1394 3884 2338 
Q 3884 3275 3436 3711 
Q 2988 4147 2022 4147 
L 1259 4147 
z
M 628 4666 
L 1925 4666 
Q 3281 4666 3915 4102 
Q 4550 3538 4550 2338 
Q 4550 1131 3912 565 
Q 3275 0 1925 0 
L 628 0 
L 628 4666 
z
" id="DejaVuSans-44" transform="scale(0.015625)"/>
       <path d="M 603 3500 
L 1178 3500 
L 1178 0 
L 603 0 
L 603 3500 
z
M 603 4863 
L 1178 4863 
L 1178 4134 
L 603 4134 
L 603 4863 
z
" id="DejaVuSans-69" transform="scale(0.015625)"/>
       <path d="M 3328 2828 
Q 3544 3216 3844 3400 
Q 4144 3584 4550 3584 
Q 5097 3584 5394 3201 
Q 5691 2819 5691 2113 
L 5691 0 
L 5113 0 
L 5113 2094 
Q 5113 2597 4934 2840 
Q 4756 3084 4391 3084 
Q 3944 3084 3684 2787 
Q 3425 2491 3425 1978 
L 3425 0 
L 2847 0 
L 2847 2094 
Q 2847 2600 2669 2842 
Q 2491 3084 2119 3084 
Q 1678 3084 1418 2786 
Q 1159 2488 1159 1978 
L 1159 0 
L 581 0 
L 581 3500 
L 1159 3500 
L 1159 2956 
Q 1356 3278 1631 3431 
Q 1906 3584 2284 3584 
Q 2666 3584 2933 3390 
Q 3200 3197 3328 2828 
z
" id="DejaVuSans-6d" transform="scale(0.015625)"/>
       <path d="M 3597 1894 
L 3597 1613 
L 953 1613 
Q 991 1019 1311 708 
Q 1631 397 2203 397 
Q 2534 397 2845 478 
Q 3156 559 3463 722 
L 3463 178 
Q 3153 47 2828 -22 
Q 2503 -91 2169 -91 
Q 1331 -91 842 396 
Q 353 884 353 1716 
Q 353 2575 817 3079 
Q 1281 3584 2069 3584 
Q 2775 3584 3186 3129 
Q 3597 2675 3597 1894 
z
M 3022 2063 
Q 3016 2534 2758 2815 
Q 2500 3097 2075 3097 
Q 1594 3097 1305 2825 
Q 1016 2553 972 2059 
L 3022 2063 
z
" id="DejaVuSans-65" transform="scale(0.015625)"/>
       <path d="M 3513 2113 
L 3513 0 
L 2938 0 
L 2938 2094 
Q 2938 2591 2744 2837 
Q 2550 3084 2163 3084 
Q 1697 3084 1428 2787 
Q 1159 2491 1159 1978 
L 1159 0 
L 581 0 
L 581 3500 
L 1159 3500 
L 1159 2956 
Q 1366 3272 1645 3428 
Q 1925 3584 2291 3584 
Q 2894 3584 3203 3211 
Q 3513 2838 3513 2113 
z
" id="DejaVuSans-6e" transform="scale(0.015625)"/>
       <path d="M 2834 3397 
L 2834 2853 
Q 2591 2978 2328 3040 
Q 2066 3103 1784 3103 
Q 1356 3103 1142 2972 
Q 928 2841 928 2578 
Q 928 2378 1081 2264 
Q 1234 2150 1697 2047 
L 1894 2003 
Q 2506 1872 2764 1633 
Q 3022 1394 3022 966 
Q 3022 478 2636 193 
Q 2250 -91 1575 -91 
Q 1294 -91 989 -36 
Q 684 19 347 128 
L 347 722 
Q 666 556 975 473 
Q 1284 391 1588 391 
Q 1994 391 2212 530 
Q 2431 669 2431 922 
Q 2431 1156 2273 1281 
Q 2116 1406 1581 1522 
L 1381 1569 
Q 847 1681 609 1914 
Q 372 2147 372 2553 
Q 372 3047 722 3315 
Q 1072 3584 1716 3584 
Q 2034 3584 2315 3537 
Q 2597 3491 2834 3397 
z
" id="DejaVuSans-73" transform="scale(0.015625)"/>
       <path d="M 1959 3097 
Q 1497 3097 1228 2736 
Q 959 2375 959 1747 
Q 959 1119 1226 758 
Q 1494 397 1959 397 
Q 2419 397 2687 759 
Q 2956 1122 2956 1747 
Q 2956 2369 2687 2733 
Q 2419 3097 1959 3097 
z
M 1959 3584 
Q 2709 3584 3137 3096 
Q 3566 2609 3566 1747 
Q 3566 888 3137 398 
Q 2709 -91 1959 -91 
Q 1206 -91 779 398 
Q 353 888 353 1747 
Q 353 2609 779 3096 
Q 1206 3584 1959 3584 
z
" id="DejaVuSans-6f" transform="scale(0.015625)"/>
      </defs>
      <use xlink:href="#DejaVuSans-44"/>
      <use x="77.001953" xlink:href="#DejaVuSans-69"/>
      <use x="104.785156" xlink:href="#DejaVuSans-6d"/>
      <use x="202.197266" xlink:href="#DejaVuSans-65"/>
      <use x="263.720703" xlink:href="#DejaVuSans-6e"/>
      <use x="327.099609" xlink:href="#DejaVuSans-73"/>
      <use x="379.199219" xlink:href="#DejaVuSans-69"/>
      <use x="406.982422" xlink:href="#DejaVuSans-6f"/>
      <use x="468.164062" xlink:href="#DejaVuSans-6e"/>
     </g>
    </g>
   </g>
   <g id="matplotlib.axis_2">
    <g id="ytick_1">
     <g id="line2d_12">
      <defs>
       <path d="M 0 0 
L -3.5 0 
" id="md55c54b1ed" style="stroke:#000000;stroke-width:0.8;"/>
      </defs>
      <g>
       <use style="stroke:#000000;stroke-width:0.8;" x="166.32" xlink:href="#md55c54b1ed" y="605.38657"/>
      </g>
     </g>
     <g id="text_13">
      <!-- 0 -->
      <g transform="translate(150.4125 610.705477)scale(0.14 -0.14)">
       <defs>
        <path d="M 2034 4250 
Q 1547 4250 1301 3770 
Q 1056 3291 1056 2328 
Q 1056 1369 1301 889 
Q 1547 409 2034 409 
Q 2525 409 2770 889 
Q 3016 1369 3016 2328 
Q 3016 3291 2770 3770 
Q 2525 4250 2034 4250 
z
M 2034 4750 
Q 2819 4750 3233 4129 
Q 3647 3509 3647 2328 
Q 3647 1150 3233 529 
Q 2819 -91 2034 -91 
Q 1250 -91 836 529 
Q 422 1150 422 2328 
Q 422 3509 836 4129 
Q 1250 4750 2034 4750 
z
" id="DejaVuSans-30" transform="scale(0.015625)"/>
       </defs>
       <use xlink:href="#DejaVuSans-30"/>
      </g>
     </g>
    </g>
    <g id="ytick_2">
     <g id="line2d_13">
      <g>
       <use style="stroke:#000000;stroke-width:0.8;" x="166.32" xlink:href="#md55c54b1ed" y="500.104708"/>
      </g>
     </g>
     <g id="text_14">
      <!-- 1 -->
      <g transform="translate(150.4125 505.423614)scale(0.14 -0.14)">
       <use xlink:href="#DejaVuSans-31"/>
      </g>
     </g>
    </g>
    <g id="ytick_3">
     <g id="line2d_14">
      <g>
       <use style="stroke:#000000;stroke-width:0.8;" x="166.32" xlink:href="#md55c54b1ed" y="394.822845"/>
      </g>
     </g>
     <g id="text_15">
      <!-- 2 -->
      <g transform="translate(150.4125 400.141751)scale(0.14 -0.14)">
       <use xlink:href="#DejaVuSans-32"/>
      </g>
     </g>
    </g>
    <g id="ytick_4">
     <g id="line2d_15">
      <g>
       <use style="stroke:#000000;stroke-width:0.8;" x="166.32" xlink:href="#md55c54b1ed" y="289.540983"/>
      </g>
     </g>
     <g id="text_16">
      <!-- 3 -->
      <g transform="translate(150.4125 294.859889)scale(0.14 -0.14)">
       <use xlink:href="#DejaVuSans-33"/>
      </g>
     </g>
    </g>
    <g id="ytick_5">
     <g id="line2d_16">
      <g>
       <use style="stroke:#000000;stroke-width:0.8;" x="166.32" xlink:href="#md55c54b1ed" y="184.25912"/>
      </g>
     </g>
     <g id="text_17">
      <!-- 4 -->
      <g transform="translate(150.4125 189.578026)scale(0.14 -0.14)">
       <use xlink:href="#DejaVuSans-34"/>
      </g>
     </g>
    </g>
    <g id="text_18">
     <!-- Time (seconds) -->
     <g transform="translate(143.085 418.11395)rotate(-90)scale(0.16 -0.16)">
      <defs>
       <path d="M -19 4666 
L 3928 4666 
L 3928 4134 
L 2272 4134 
L 2272 0 
L 1638 0 
L 1638 4134 
L -19 4134 
L -19 4666 
z
" id="DejaVuSans-54" transform="scale(0.015625)"/>
       <path id="DejaVuSans-20" transform="scale(0.015625)"/>
       <path d="M 1984 4856 
Q 1566 4138 1362 3434 
Q 1159 2731 1159 2009 
Q 1159 1288 1364 580 
Q 1569 -128 1984 -844 
L 1484 -844 
Q 1016 -109 783 600 
Q 550 1309 550 2009 
Q 550 2706 781 3412 
Q 1013 4119 1484 4856 
L 1984 4856 
z
" id="DejaVuSans-28" transform="scale(0.015625)"/>
       <path d="M 3122 3366 
L 3122 2828 
Q 2878 2963 2633 3030 
Q 2388 3097 2138 3097 
Q 1578 3097 1268 2742 
Q 959 2388 959 1747 
Q 959 1106 1268 751 
Q 1578 397 2138 397 
Q 2388 397 2633 464 
Q 2878 531 3122 666 
L 3122 134 
Q 2881 22 2623 -34 
Q 2366 -91 2075 -91 
Q 1284 -91 818 406 
Q 353 903 353 1747 
Q 353 2603 823 3093 
Q 1294 3584 2113 3584 
Q 2378 3584 2631 3529 
Q 2884 3475 3122 3366 
z
" id="DejaVuSans-63" transform="scale(0.015625)"/>
       <path d="M 2906 2969 
L 2906 4863 
L 3481 4863 
L 3481 0 
L 2906 0 
L 2906 525 
Q 2725 213 2448 61 
Q 2172 -91 1784 -91 
Q 1150 -91 751 415 
Q 353 922 353 1747 
Q 353 2572 751 3078 
Q 1150 3584 1784 3584 
Q 2172 3584 2448 3432 
Q 2725 3281 2906 2969 
z
M 947 1747 
Q 947 1113 1208 752 
Q 1469 391 1925 391 
Q 2381 391 2643 752 
Q 2906 1113 2906 1747 
Q 2906 2381 2643 2742 
Q 2381 3103 1925 3103 
Q 1469 3103 1208 2742 
Q 947 2381 947 1747 
z
" id="DejaVuSans-64" transform="scale(0.015625)"/>
       <path d="M 513 4856 
L 1013 4856 
Q 1481 4119 1714 3412 
Q 1947 2706 1947 2009 
Q 1947 1309 1714 600 
Q 1481 -109 1013 -844 
L 513 -844 
Q 928 -128 1133 580 
Q 1338 1288 1338 2009 
Q 1338 2731 1133 3434 
Q 928 4138 513 4856 
z
" id="DejaVuSans-29" transform="scale(0.015625)"/>
      </defs>
      <use xlink:href="#DejaVuSans-54"/>
      <use x="57.958984" xlink:href="#DejaVuSans-69"/>
      <use x="85.742188" xlink:href="#DejaVuSans-6d"/>
      <use x="183.154297" xlink:href="#DejaVuSans-65"/>
      <use x="244.677734" xlink:href="#DejaVuSans-20"/>
      <use x="276.464844" xlink:href="#DejaVuSans-28"/>
      <use x="315.478516" xlink:href="#DejaVuSans-73"/>
      <use x="367.578125" xlink:href="#DejaVuSans-65"/>
      <use x="429.101562" xlink:href="#DejaVuSans-63"/>
      <use x="484.082031" xlink:href="#DejaVuSans-6f"/>
      <use x="545.263672" xlink:href="#DejaVuSans-6e"/>
      <use x="608.642578" xlink:href="#DejaVuSans-64"/>
      <use x="672.119141" xlink:href="#DejaVuSans-73"/>
      <use x="724.21875" xlink:href="#DejaVuSans-29"/>
     </g>
    </g>
   </g>
   <g id="line2d_17">
    <path clip-path="url(#pc174f92871)" d="M 248.81472 603.53553 
L 290.06208 603.53553 
L 290.06208 603.483238 
L 248.81472 603.483238 
L 248.81472 603.53553 
" style="fill:none;stroke:#000000;stroke-linecap:square;"/>
   </g>
   <g id="line2d_18">
    <path clip-path="url(#pc174f92871)" d="M 269.4384 603.53553 
L 269.4384 603.549492 
" style="fill:none;stroke:#000000;stroke-linecap:square;"/>
   </g>
   <g id="line2d_19">
    <path clip-path="url(#pc174f92871)" d="M 269.4384 603.483238 
L 269.4384 603.435583 
" style="fill:none;stroke:#000000;stroke-linecap:square;"/>
   </g>
   <g id="line2d_20">
    <path clip-path="url(#pc174f92871)" d="M 259.12656 603.549492 
L 279.75024 603.549492 
" style="fill:none;stroke:#000000;stroke-linecap:square;"/>
   </g>
   <g id="line2d_21">
    <path clip-path="url(#pc174f92871)" d="M 259.12656 603.435583 
L 279.75024 603.435583 
" style="fill:none;stroke:#000000;stroke-linecap:square;"/>
   </g>
   <g id="line2d_22">
    <path clip-path="url(#pc174f92871)" d="M 248.81472 604.371963 
L 290.06208 604.371963 
L 290.06208 604.166127 
L 248.81472 604.166127 
L 248.81472 604.371963 
" style="fill:none;stroke:#000000;stroke-linecap:square;"/>
   </g>
   <g id="line2d_23">
    <path clip-path="url(#pc174f92871)" d="M 269.4384 604.371963 
L 269.4384 604.5192 
" style="fill:none;stroke:#000000;stroke-linecap:square;"/>
   </g>
   <g id="line2d_24">
    <path clip-path="url(#pc174f92871)" d="M 269.4384 604.166127 
L 269.4384 604.139997 
" style="fill:none;stroke:#000000;stroke-linecap:square;"/>
   </g>
   <g id="line2d_25">
    <path clip-path="url(#pc174f92871)" d="M 259.12656 604.5192 
L 279.75024 604.5192 
" style="fill:none;stroke:#000000;stroke-linecap:square;"/>
   </g>
   <g id="line2d_26">
    <path clip-path="url(#pc174f92871)" d="M 259.12656 604.139997 
L 279.75024 604.139997 
" style="fill:none;stroke:#000000;stroke-linecap:square;"/>
   </g>
   <g id="line2d_27">
    <path clip-path="url(#pc174f92871)" d="M 248.81472 597.07935 
L 290.06208 597.07935 
L 290.06208 596.966998 
L 248.81472 596.966998 
L 248.81472 597.07935 
" style="fill:none;stroke:#000000;stroke-linecap:square;"/>
   </g>
   <g id="line2d_28">
    <path clip-path="url(#pc174f92871)" d="M 269.4384 597.07935 
L 269.4384 597.118728 
" style="fill:none;stroke:#000000;stroke-linecap:square;"/>
   </g>
   <g id="line2d_29">
    <path clip-path="url(#pc174f92871)" d="M 269.4384 596.966998 
L 269.4384 596.827379 
" style="fill:none;stroke:#000000;stroke-linecap:square;"/>
   </g>
   <g id="line2d_30">
    <path clip-path="url(#pc174f92871)" d="M 259.12656 597.118728 
L 279.75024 597.118728 
" style="fill:none;stroke:#000000;stroke-linecap:square;"/>
   </g>
   <g id="line2d_31">
    <path clip-path="url(#pc174f92871)" d="M 259.12656 596.827379 
L 279.75024 596.827379 
" style="fill:none;stroke:#000000;stroke-linecap:square;"/>
   </g>
   <g id="line2d_32">
    <path clip-path="url(#pc174f92871)" d="M 455.05152 602.293813 
L 496.29888 602.293813 
L 496.29888 602.187554 
L 455.05152 602.187554 
L 455.05152 602.293813 
" style="fill:none;stroke:#000000;stroke-linecap:square;"/>
   </g>
   <g id="line2d_33">
    <path clip-path="url(#pc174f92871)" d="M 475.6752 602.293813 
L 475.6752 602.409549 
" style="fill:none;stroke:#000000;stroke-linecap:square;"/>
   </g>
   <g id="line2d_34">
    <path clip-path="url(#pc174f92871)" d="M 475.6752 602.187554 
L 475.6752 602.142121 
" style="fill:none;stroke:#000000;stroke-linecap:square;"/>
   </g>
   <g id="line2d_35">
    <path clip-path="url(#pc174f92871)" d="M 465.36336 602.409549 
L 485.98704 602.409549 
" style="fill:none;stroke:#000000;stroke-linecap:square;"/>
   </g>
   <g id="line2d_36">
    <path clip-path="url(#pc174f92871)" d="M 465.36336 602.142121 
L 485.98704 602.142121 
" style="fill:none;stroke:#000000;stroke-linecap:square;"/>
   </g>
   <g id="line2d_37">
    <path clip-path="url(#pc174f92871)" d="M 455.05152 591.779267 
L 496.29888 591.779267 
L 496.29888 590.760317 
L 455.05152 590.760317 
L 455.05152 591.779267 
" style="fill:none;stroke:#000000;stroke-linecap:square;"/>
   </g>
   <g id="line2d_38">
    <path clip-path="url(#pc174f92871)" d="M 475.6752 591.779267 
L 475.6752 593.015041 
" style="fill:none;stroke:#000000;stroke-linecap:square;"/>
   </g>
   <g id="line2d_39">
    <path clip-path="url(#pc174f92871)" d="M 475.6752 590.760317 
L 475.6752 590.389084 
" style="fill:none;stroke:#000000;stroke-linecap:square;"/>
   </g>
   <g id="line2d_40">
    <path clip-path="url(#pc174f92871)" d="M 465.36336 593.015041 
L 485.98704 593.015041 
" style="fill:none;stroke:#000000;stroke-linecap:square;"/>
   </g>
   <g id="line2d_41">
    <path clip-path="url(#pc174f92871)" d="M 465.36336 590.389084 
L 485.98704 590.389084 
" style="fill:none;stroke:#000000;stroke-linecap:square;"/>
   </g>
   <g id="line2d_42">
    <path clip-path="url(#pc174f92871)" d="M 455.05152 558.113734 
L 496.29888 558.113734 
L 496.29888 556.914602 
L 455.05152 556.914602 
L 455.05152 558.113734 
" style="fill:none;stroke:#000000;stroke-linecap:square;"/>
   </g>
   <g id="line2d_43">
    <path clip-path="url(#pc174f92871)" d="M 475.6752 558.113734 
L 475.6752 558.260061 
" style="fill:none;stroke:#000000;stroke-linecap:square;"/>
   </g>
   <g id="line2d_44">
    <path clip-path="url(#pc174f92871)" d="M 475.6752 556.914602 
L 475.6752 555.974952 
" style="fill:none;stroke:#000000;stroke-linecap:square;"/>
   </g>
   <g id="line2d_45">
    <path clip-path="url(#pc174f92871)" d="M 465.36336 558.260061 
L 485.98704 558.260061 
" style="fill:none;stroke:#000000;stroke-linecap:square;"/>
   </g>
   <g id="line2d_46">
    <path clip-path="url(#pc174f92871)" d="M 465.36336 555.974952 
L 485.98704 555.974952 
" style="fill:none;stroke:#000000;stroke-linecap:square;"/>
   </g>
   <g id="line2d_47">
    <path clip-path="url(#pc174f92871)" d="M 661.28832 591.455431 
L 702.53568 591.455431 
L 702.53568 590.373151 
L 661.28832 590.373151 
L 661.28832 591.455431 
" style="fill:none;stroke:#000000;stroke-linecap:square;"/>
   </g>
   <g id="line2d_48">
    <path clip-path="url(#pc174f92871)" d="M 681.912 591.455431 
L 681.912 592.135045 
" style="fill:none;stroke:#000000;stroke-linecap:square;"/>
   </g>
   <g id="line2d_49">
    <path clip-path="url(#pc174f92871)" d="M 681.912 590.373151 
L 681.912 589.8782 
" style="fill:none;stroke:#000000;stroke-linecap:square;"/>
   </g>
   <g id="line2d_50">
    <path clip-path="url(#pc174f92871)" d="M 671.60016 592.135045 
L 692.22384 592.135045 
" style="fill:none;stroke:#000000;stroke-linecap:square;"/>
   </g>
   <g id="line2d_51">
    <path clip-path="url(#pc174f92871)" d="M 671.60016 589.8782 
L 692.22384 589.8782 
" style="fill:none;stroke:#000000;stroke-linecap:square;"/>
   </g>
   <g id="line2d_52">
    <path clip-path="url(#pc174f92871)" d="M 661.28832 469.134178 
L 702.53568 469.134178 
L 702.53568 439.526064 
L 661.28832 439.526064 
L 661.28832 469.134178 
" style="fill:none;stroke:#000000;stroke-linecap:square;"/>
   </g>
   <g id="line2d_53">
    <path clip-path="url(#pc174f92871)" d="M 681.912 469.134178 
L 681.912 511.891882 
" style="fill:none;stroke:#000000;stroke-linecap:square;"/>
   </g>
   <g id="line2d_54">
    <path clip-path="url(#pc174f92871)" d="M 681.912 439.526064 
L 681.912 409.675147 
" style="fill:none;stroke:#000000;stroke-linecap:square;"/>
   </g>
   <g id="line2d_55">
    <path clip-path="url(#pc174f92871)" d="M 671.60016 511.891882 
L 692.22384 511.891882 
" style="fill:none;stroke:#000000;stroke-linecap:square;"/>
   </g>
   <g id="line2d_56">
    <path clip-path="url(#pc174f92871)" d="M 671.60016 409.675147 
L 692.22384 409.675147 
" style="fill:none;stroke:#000000;stroke-linecap:square;"/>
   </g>
   <g id="line2d_57">
    <path clip-path="url(#pc174f92871)" d="M 661.28832 155.913192 
L 702.53568 155.913192 
L 702.53568 133.950349 
L 661.28832 133.950349 
L 661.28832 155.913192 
" style="fill:none;stroke:#000000;stroke-linecap:square;"/>
   </g>
   <g id="line2d_58">
    <path clip-path="url(#pc174f92871)" d="M 681.912 155.913192 
L 681.912 165.685372 
" style="fill:none;stroke:#000000;stroke-linecap:square;"/>
   </g>
   <g id="line2d_59">
    <path clip-path="url(#pc174f92871)" d="M 681.912 133.950349 
L 681.912 109.5912 
" style="fill:none;stroke:#000000;stroke-linecap:square;"/>
   </g>
   <g id="line2d_60">
    <path clip-path="url(#pc174f92871)" d="M 671.60016 165.685372 
L 692.22384 165.685372 
" style="fill:none;stroke:#000000;stroke-linecap:square;"/>
   </g>
   <g id="line2d_61">
    <path clip-path="url(#pc174f92871)" d="M 671.60016 109.5912 
L 692.22384 109.5912 
" style="fill:none;stroke:#000000;stroke-linecap:square;"/>
   </g>
   <g id="line2d_62">
    <path clip-path="url(#pc174f92871)" d="M 867.52512 528.941978 
L 908.77248 528.941978 
L 908.77248 526.982726 
L 867.52512 526.982726 
L 867.52512 528.941978 
" style="fill:none;stroke:#000000;stroke-linecap:square;"/>
   </g>
   <g id="line2d_63">
    <path clip-path="url(#pc174f92871)" d="M 888.1488 528.941978 
L 888.1488 529.859639 
" style="fill:none;stroke:#000000;stroke-linecap:square;"/>
   </g>
   <g id="line2d_64">
    <path clip-path="url(#pc174f92871)" d="M 888.1488 526.982726 
L 888.1488 526.137941 
" style="fill:none;stroke:#000000;stroke-linecap:square;"/>
   </g>
   <g id="line2d_65">
    <path clip-path="url(#pc174f92871)" d="M 877.83696 529.859639 
L 898.46064 529.859639 
" style="fill:none;stroke:#000000;stroke-linecap:square;"/>
   </g>
   <g id="line2d_66">
    <path clip-path="url(#pc174f92871)" d="M 877.83696 526.137941 
L 898.46064 526.137941 
" style="fill:none;stroke:#000000;stroke-linecap:square;"/>
   </g>
   <g id="line2d_67">
    <path clip-path="url(#pc174f92871)" d="M 1073.76192 165.008865 
L 1115.00928 165.008865 
L 1115.00928 148.420567 
L 1073.76192 148.420567 
L 1073.76192 165.008865 
" style="fill:none;stroke:#000000;stroke-linecap:square;"/>
   </g>
   <g id="line2d_68">
    <path clip-path="url(#pc174f92871)" d="M 1094.3856 165.008865 
L 1094.3856 171.010958 
" style="fill:none;stroke:#000000;stroke-linecap:square;"/>
   </g>
   <g id="line2d_69">
    <path clip-path="url(#pc174f92871)" d="M 1094.3856 148.420567 
L 1094.3856 136.480834 
" style="fill:none;stroke:#000000;stroke-linecap:square;"/>
   </g>
   <g id="line2d_70">
    <path clip-path="url(#pc174f92871)" d="M 1084.07376 171.010958 
L 1104.69744 171.010958 
" style="fill:none;stroke:#000000;stroke-linecap:square;"/>
   </g>
   <g id="line2d_71">
    <path clip-path="url(#pc174f92871)" d="M 1084.07376 136.480834 
L 1104.69744 136.480834 
" style="fill:none;stroke:#000000;stroke-linecap:square;"/>
   </g>
   <g id="line2d_72">
    <path clip-path="url(#pc174f92871)" d="M 269.4384 604.214108 
L 475.6752 591.161522 
L 681.912 458.773075 
" style="fill:none;stroke:#ff0000;stroke-linecap:square;stroke-width:1.5;"/>
   </g>
   <g id="line2d_73">
    <path clip-path="url(#pc174f92871)" d="M 269.4384 603.500821 
L 475.6752 602.260498 
L 681.912 590.804734 
L 888.1488 527.913885 
L 1094.3856 155.814896 
" style="fill:none;stroke:#0000ff;stroke-linecap:square;stroke-width:1.5;"/>
   </g>
   <g id="line2d_74">
    <path clip-path="url(#pc174f92871)" d="M 269.4384 597.026569 
L 475.6752 557.296629 
L 681.912 148.360406 
" style="fill:none;stroke:#008000;stroke-linecap:square;stroke-width:1.5;"/>
   </g>
   <g id="line2d_75">
    <path clip-path="url(#pc174f92871)" d="M 248.81472 603.500821 
L 290.06208 603.500821 
" style="fill:none;stroke:#ff7f0e;stroke-linecap:square;"/>
   </g>
   <g id="line2d_76">
    <path clip-path="url(#pc174f92871)" d="M 248.81472 604.214108 
L 290.06208 604.214108 
" style="fill:none;stroke:#ff7f0e;stroke-linecap:square;"/>
   </g>
   <g id="line2d_77">
    <path clip-path="url(#pc174f92871)" d="M 248.81472 597.026569 
L 290.06208 597.026569 
" style="fill:none;stroke:#ff7f0e;stroke-linecap:square;"/>
   </g>
   <g id="line2d_78">
    <path clip-path="url(#pc174f92871)" d="M 455.05152 602.260498 
L 496.29888 602.260498 
" style="fill:none;stroke:#ff7f0e;stroke-linecap:square;"/>
   </g>
   <g id="line2d_79">
    <path clip-path="url(#pc174f92871)" d="M 455.05152 591.161522 
L 496.29888 591.161522 
" style="fill:none;stroke:#ff7f0e;stroke-linecap:square;"/>
   </g>
   <g id="line2d_80">
    <path clip-path="url(#pc174f92871)" d="M 455.05152 557.296629 
L 496.29888 557.296629 
" style="fill:none;stroke:#ff7f0e;stroke-linecap:square;"/>
   </g>
   <g id="line2d_81">
    <path clip-path="url(#pc174f92871)" d="M 661.28832 590.804734 
L 702.53568 590.804734 
" style="fill:none;stroke:#ff7f0e;stroke-linecap:square;"/>
   </g>
   <g id="line2d_82">
    <path clip-path="url(#pc174f92871)" d="M 661.28832 458.773075 
L 702.53568 458.773075 
" style="fill:none;stroke:#ff7f0e;stroke-linecap:square;"/>
   </g>
   <g id="line2d_83">
    <path clip-path="url(#pc174f92871)" d="M 661.28832 148.360406 
L 702.53568 148.360406 
" style="fill:none;stroke:#ff7f0e;stroke-linecap:square;"/>
   </g>
   <g id="line2d_84">
    <path clip-path="url(#pc174f92871)" d="M 867.52512 527.913885 
L 908.77248 527.913885 
" style="fill:none;stroke:#ff7f0e;stroke-linecap:square;"/>
   </g>
   <g id="line2d_85">
    <path clip-path="url(#pc174f92871)" d="M 1073.76192 155.814896 
L 1115.00928 155.814896 
" style="fill:none;stroke:#ff7f0e;stroke-linecap:square;"/>
   </g>
   <g id="patch_3">
    <path d="M 166.32 629.2656 
L 166.32 84.8448 
" style="fill:none;stroke:#000000;stroke-linecap:square;stroke-linejoin:miter;stroke-width:0.8;"/>
   </g>
   <g id="patch_4">
    <path d="M 1197.504 629.2656 
L 1197.504 84.8448 
" style="fill:none;stroke:#000000;stroke-linecap:square;stroke-linejoin:miter;stroke-width:0.8;"/>
   </g>
   <g id="patch_5">
    <path d="M 166.32 629.2656 
L 1197.504 629.2656 
" style="fill:none;stroke:#000000;stroke-linecap:square;stroke-linejoin:miter;stroke-width:0.8;"/>
   </g>
   <g id="patch_6">
    <path d="M 166.32 84.8448 
L 1197.504 84.8448 
" style="fill:none;stroke:#000000;stroke-linecap:square;stroke-linejoin:miter;stroke-width:0.8;"/>
   </g>
   <g id="text_19">
    <!-- Run-time vs Dimension -->
    <g transform="translate(589.10325 43.0118)scale(0.16 -0.16)">
     <defs>
      <path d="M 2841 2188 
Q 3044 2119 3236 1894 
Q 3428 1669 3622 1275 
L 4263 0 
L 3584 0 
L 2988 1197 
Q 2756 1666 2539 1819 
Q 2322 1972 1947 1972 
L 1259 1972 
L 1259 0 
L 628 0 
L 628 4666 
L 2053 4666 
Q 2853 4666 3247 4331 
Q 3641 3997 3641 3322 
Q 3641 2881 3436 2590 
Q 3231 2300 2841 2188 
z
M 1259 4147 
L 1259 2491 
L 2053 2491 
Q 2509 2491 2742 2702 
Q 2975 2913 2975 3322 
Q 2975 3731 2742 3939 
Q 2509 4147 2053 4147 
L 1259 4147 
z
" id="DejaVuSans-52" transform="scale(0.015625)"/>
      <path d="M 544 1381 
L 544 3500 
L 1119 3500 
L 1119 1403 
Q 1119 906 1312 657 
Q 1506 409 1894 409 
Q 2359 409 2629 706 
Q 2900 1003 2900 1516 
L 2900 3500 
L 3475 3500 
L 3475 0 
L 2900 0 
L 2900 538 
Q 2691 219 2414 64 
Q 2138 -91 1772 -91 
Q 1169 -91 856 284 
Q 544 659 544 1381 
z
M 1991 3584 
L 1991 3584 
z
" id="DejaVuSans-75" transform="scale(0.015625)"/>
      <path d="M 313 2009 
L 1997 2009 
L 1997 1497 
L 313 1497 
L 313 2009 
z
" id="DejaVuSans-2d" transform="scale(0.015625)"/>
      <path d="M 1172 4494 
L 1172 3500 
L 2356 3500 
L 2356 3053 
L 1172 3053 
L 1172 1153 
Q 1172 725 1289 603 
Q 1406 481 1766 481 
L 2356 481 
L 2356 0 
L 1766 0 
Q 1100 0 847 248 
Q 594 497 594 1153 
L 594 3053 
L 172 3053 
L 172 3500 
L 594 3500 
L 594 4494 
L 1172 4494 
z
" id="DejaVuSans-74" transform="scale(0.015625)"/>
      <path d="M 191 3500 
L 800 3500 
L 1894 563 
L 2988 3500 
L 3597 3500 
L 2284 0 
L 1503 0 
L 191 3500 
z
" id="DejaVuSans-76" transform="scale(0.015625)"/>
     </defs>
     <use xlink:href="#DejaVuSans-52"/>
     <use x="64.982422" xlink:href="#DejaVuSans-75"/>
     <use x="128.361328" xlink:href="#DejaVuSans-6e"/>
     <use x="191.740234" xlink:href="#DejaVuSans-2d"/>
     <use x="227.824219" xlink:href="#DejaVuSans-74"/>
     <use x="267.033203" xlink:href="#DejaVuSans-69"/>
     <use x="294.816406" xlink:href="#DejaVuSans-6d"/>
     <use x="392.228516" xlink:href="#DejaVuSans-65"/>
     <use x="453.751953" xlink:href="#DejaVuSans-20"/>
     <use x="485.539062" xlink:href="#DejaVuSans-76"/>
     <use x="544.71875" xlink:href="#DejaVuSans-73"/>
     <use x="596.818359" xlink:href="#DejaVuSans-20"/>
     <use x="628.605469" xlink:href="#DejaVuSans-44"/>
     <use x="705.607422" xlink:href="#DejaVuSans-69"/>
     <use x="733.390625" xlink:href="#DejaVuSans-6d"/>
     <use x="830.802734" xlink:href="#DejaVuSans-65"/>
     <use x="892.326172" xlink:href="#DejaVuSans-6e"/>
     <use x="955.705078" xlink:href="#DejaVuSans-73"/>
     <use x="1007.804688" xlink:href="#DejaVuSans-69"/>
     <use x="1035.587891" xlink:href="#DejaVuSans-6f"/>
     <use x="1096.769531" xlink:href="#DejaVuSans-6e"/>
    </g>
    <!--  d-sphere of 100 points, radius=1, noise=0.1 -->
    <g transform="translate(501.55825 60.9283)scale(0.16 -0.16)">
     <defs>
      <path d="M 1159 525 
L 1159 -1331 
L 581 -1331 
L 581 3500 
L 1159 3500 
L 1159 2969 
Q 1341 3281 1617 3432 
Q 1894 3584 2278 3584 
Q 2916 3584 3314 3078 
Q 3713 2572 3713 1747 
Q 3713 922 3314 415 
Q 2916 -91 2278 -91 
Q 1894 -91 1617 61 
Q 1341 213 1159 525 
z
M 3116 1747 
Q 3116 2381 2855 2742 
Q 2594 3103 2138 3103 
Q 1681 3103 1420 2742 
Q 1159 2381 1159 1747 
Q 1159 1113 1420 752 
Q 1681 391 2138 391 
Q 2594 391 2855 752 
Q 3116 1113 3116 1747 
z
" id="DejaVuSans-70" transform="scale(0.015625)"/>
      <path d="M 3513 2113 
L 3513 0 
L 2938 0 
L 2938 2094 
Q 2938 2591 2744 2837 
Q 2550 3084 2163 3084 
Q 1697 3084 1428 2787 
Q 1159 2491 1159 1978 
L 1159 0 
L 581 0 
L 581 4863 
L 1159 4863 
L 1159 2956 
Q 1366 3272 1645 3428 
Q 1925 3584 2291 3584 
Q 2894 3584 3203 3211 
Q 3513 2838 3513 2113 
z
" id="DejaVuSans-68" transform="scale(0.015625)"/>
      <path d="M 2631 2963 
Q 2534 3019 2420 3045 
Q 2306 3072 2169 3072 
Q 1681 3072 1420 2755 
Q 1159 2438 1159 1844 
L 1159 0 
L 581 0 
L 581 3500 
L 1159 3500 
L 1159 2956 
Q 1341 3275 1631 3429 
Q 1922 3584 2338 3584 
Q 2397 3584 2469 3576 
Q 2541 3569 2628 3553 
L 2631 2963 
z
" id="DejaVuSans-72" transform="scale(0.015625)"/>
      <path d="M 2375 4863 
L 2375 4384 
L 1825 4384 
Q 1516 4384 1395 4259 
Q 1275 4134 1275 3809 
L 1275 3500 
L 2222 3500 
L 2222 3053 
L 1275 3053 
L 1275 0 
L 697 0 
L 697 3053 
L 147 3053 
L 147 3500 
L 697 3500 
L 697 3744 
Q 697 4328 969 4595 
Q 1241 4863 1831 4863 
L 2375 4863 
z
" id="DejaVuSans-66" transform="scale(0.015625)"/>
      <path d="M 750 794 
L 1409 794 
L 1409 256 
L 897 -744 
L 494 -744 
L 750 256 
L 750 794 
z
" id="DejaVuSans-2c" transform="scale(0.015625)"/>
      <path d="M 2194 1759 
Q 1497 1759 1228 1600 
Q 959 1441 959 1056 
Q 959 750 1161 570 
Q 1363 391 1709 391 
Q 2188 391 2477 730 
Q 2766 1069 2766 1631 
L 2766 1759 
L 2194 1759 
z
M 3341 1997 
L 3341 0 
L 2766 0 
L 2766 531 
Q 2569 213 2275 61 
Q 1981 -91 1556 -91 
Q 1019 -91 701 211 
Q 384 513 384 1019 
Q 384 1609 779 1909 
Q 1175 2209 1959 2209 
L 2766 2209 
L 2766 2266 
Q 2766 2663 2505 2880 
Q 2244 3097 1772 3097 
Q 1472 3097 1187 3025 
Q 903 2953 641 2809 
L 641 3341 
Q 956 3463 1253 3523 
Q 1550 3584 1831 3584 
Q 2591 3584 2966 3190 
Q 3341 2797 3341 1997 
z
" id="DejaVuSans-61" transform="scale(0.015625)"/>
      <path d="M 678 2906 
L 4684 2906 
L 4684 2381 
L 678 2381 
L 678 2906 
z
M 678 1631 
L 4684 1631 
L 4684 1100 
L 678 1100 
L 678 1631 
z
" id="DejaVuSans-3d" transform="scale(0.015625)"/>
      <path d="M 684 794 
L 1344 794 
L 1344 0 
L 684 0 
L 684 794 
z
" id="DejaVuSans-2e" transform="scale(0.015625)"/>
     </defs>
     <use xlink:href="#DejaVuSans-20"/>
     <use x="31.787109" xlink:href="#DejaVuSans-64"/>
     <use x="95.263672" xlink:href="#DejaVuSans-2d"/>
     <use x="131.347656" xlink:href="#DejaVuSans-73"/>
     <use x="183.447266" xlink:href="#DejaVuSans-70"/>
     <use x="246.923828" xlink:href="#DejaVuSans-68"/>
     <use x="310.302734" xlink:href="#DejaVuSans-65"/>
     <use x="371.826172" xlink:href="#DejaVuSans-72"/>
     <use x="410.689453" xlink:href="#DejaVuSans-65"/>
     <use x="472.212891" xlink:href="#DejaVuSans-20"/>
     <use x="504" xlink:href="#DejaVuSans-6f"/>
     <use x="565.181641" xlink:href="#DejaVuSans-66"/>
     <use x="600.386719" xlink:href="#DejaVuSans-20"/>
     <use x="632.173828" xlink:href="#DejaVuSans-31"/>
     <use x="695.796875" xlink:href="#DejaVuSans-30"/>
     <use x="759.419922" xlink:href="#DejaVuSans-30"/>
     <use x="823.042969" xlink:href="#DejaVuSans-20"/>
     <use x="854.830078" xlink:href="#DejaVuSans-70"/>
     <use x="918.306641" xlink:href="#DejaVuSans-6f"/>
     <use x="979.488281" xlink:href="#DejaVuSans-69"/>
     <use x="1007.271484" xlink:href="#DejaVuSans-6e"/>
     <use x="1070.650391" xlink:href="#DejaVuSans-74"/>
     <use x="1109.859375" xlink:href="#DejaVuSans-73"/>
     <use x="1161.958984" xlink:href="#DejaVuSans-2c"/>
     <use x="1193.746094" xlink:href="#DejaVuSans-20"/>
     <use x="1225.533203" xlink:href="#DejaVuSans-72"/>
     <use x="1266.646484" xlink:href="#DejaVuSans-61"/>
     <use x="1327.925781" xlink:href="#DejaVuSans-64"/>
     <use x="1391.402344" xlink:href="#DejaVuSans-69"/>
     <use x="1419.185547" xlink:href="#DejaVuSans-75"/>
     <use x="1482.564453" xlink:href="#DejaVuSans-73"/>
     <use x="1534.664062" xlink:href="#DejaVuSans-3d"/>
     <use x="1618.453125" xlink:href="#DejaVuSans-31"/>
     <use x="1682.076172" xlink:href="#DejaVuSans-2c"/>
     <use x="1713.863281" xlink:href="#DejaVuSans-20"/>
     <use x="1745.650391" xlink:href="#DejaVuSans-6e"/>
     <use x="1809.029297" xlink:href="#DejaVuSans-6f"/>
     <use x="1870.210938" xlink:href="#DejaVuSans-69"/>
     <use x="1897.994141" xlink:href="#DejaVuSans-73"/>
     <use x="1950.09375" xlink:href="#DejaVuSans-65"/>
     <use x="2011.617188" xlink:href="#DejaVuSans-3d"/>
     <use x="2095.40625" xlink:href="#DejaVuSans-30"/>
     <use x="2159.029297" xlink:href="#DejaVuSans-2e"/>
     <use x="2190.816406" xlink:href="#DejaVuSans-31"/>
    </g>
    <!-- (Plot of medians of 10 trials) -->
    <g transform="translate(568.18075 78.8448)scale(0.16 -0.16)">
     <defs>
      <path d="M 1259 4147 
L 1259 2394 
L 2053 2394 
Q 2494 2394 2734 2622 
Q 2975 2850 2975 3272 
Q 2975 3691 2734 3919 
Q 2494 4147 2053 4147 
L 1259 4147 
z
M 628 4666 
L 2053 4666 
Q 2838 4666 3239 4311 
Q 3641 3956 3641 3272 
Q 3641 2581 3239 2228 
Q 2838 1875 2053 1875 
L 1259 1875 
L 1259 0 
L 628 0 
L 628 4666 
z
" id="DejaVuSans-50" transform="scale(0.015625)"/>
      <path d="M 603 4863 
L 1178 4863 
L 1178 0 
L 603 0 
L 603 4863 
z
" id="DejaVuSans-6c" transform="scale(0.015625)"/>
     </defs>
     <use xlink:href="#DejaVuSans-28"/>
     <use x="39.013672" xlink:href="#DejaVuSans-50"/>
     <use x="99.316406" xlink:href="#DejaVuSans-6c"/>
     <use x="127.099609" xlink:href="#DejaVuSans-6f"/>
     <use x="188.28125" xlink:href="#DejaVuSans-74"/>
     <use x="227.490234" xlink:href="#DejaVuSans-20"/>
     <use x="259.277344" xlink:href="#DejaVuSans-6f"/>
     <use x="320.458984" xlink:href="#DejaVuSans-66"/>
     <use x="355.664062" xlink:href="#DejaVuSans-20"/>
     <use x="387.451172" xlink:href="#DejaVuSans-6d"/>
     <use x="484.863281" xlink:href="#DejaVuSans-65"/>
     <use x="546.386719" xlink:href="#DejaVuSans-64"/>
     <use x="609.863281" xlink:href="#DejaVuSans-69"/>
     <use x="637.646484" xlink:href="#DejaVuSans-61"/>
     <use x="698.925781" xlink:href="#DejaVuSans-6e"/>
     <use x="762.304688" xlink:href="#DejaVuSans-73"/>
     <use x="814.404297" xlink:href="#DejaVuSans-20"/>
     <use x="846.191406" xlink:href="#DejaVuSans-6f"/>
     <use x="907.373047" xlink:href="#DejaVuSans-66"/>
     <use x="942.578125" xlink:href="#DejaVuSans-20"/>
     <use x="974.365234" xlink:href="#DejaVuSans-31"/>
     <use x="1037.988281" xlink:href="#DejaVuSans-30"/>
     <use x="1101.611328" xlink:href="#DejaVuSans-20"/>
     <use x="1133.398438" xlink:href="#DejaVuSans-74"/>
     <use x="1172.607422" xlink:href="#DejaVuSans-72"/>
     <use x="1213.720703" xlink:href="#DejaVuSans-69"/>
     <use x="1241.503906" xlink:href="#DejaVuSans-61"/>
     <use x="1302.783203" xlink:href="#DejaVuSans-6c"/>
     <use x="1330.566406" xlink:href="#DejaVuSans-73"/>
     <use x="1382.666016" xlink:href="#DejaVuSans-29"/>
    </g>
   </g>
   <g id="legend_1">
    <g id="patch_7">
     <path d="M 176.12 157.692925 
L 279.052813 157.692925 
Q 281.852813 157.692925 281.852813 154.892925 
L 281.852813 94.6448 
Q 281.852813 91.8448 279.052813 91.8448 
L 176.12 91.8448 
Q 173.32 91.8448 173.32 94.6448 
L 173.32 154.892925 
Q 173.32 157.692925 176.12 157.692925 
z
" style="fill:#ffffff;opacity:0.8;stroke:#cccccc;stroke-linejoin:miter;"/>
    </g>
    <g id="line2d_86">
     <path d="M 178.92 103.182612 
L 206.92 103.182612 
" style="fill:none;stroke:#ff0000;stroke-linecap:square;stroke-width:1.5;"/>
    </g>
    <g id="line2d_87"/>
    <g id="text_20">
     <!-- Rips -->
     <g transform="translate(218.12 108.082612)scale(0.14 -0.14)">
      <use xlink:href="#DejaVuSans-52"/>
      <use x="69.482422" xlink:href="#DejaVuSans-69"/>
      <use x="97.265625" xlink:href="#DejaVuSans-70"/>
      <use x="160.742188" xlink:href="#DejaVuSans-73"/>
     </g>
    </g>
    <g id="line2d_88">
     <path d="M 178.92 123.731987 
L 206.92 123.731987 
" style="fill:none;stroke:#0000ff;stroke-linecap:square;stroke-width:1.5;"/>
    </g>
    <g id="line2d_89"/>
    <g id="text_21">
     <!-- Del-Rips -->
     <g transform="translate(218.12 128.631987)scale(0.14 -0.14)">
      <use xlink:href="#DejaVuSans-44"/>
      <use x="77.001953" xlink:href="#DejaVuSans-65"/>
      <use x="138.525391" xlink:href="#DejaVuSans-6c"/>
      <use x="166.308594" xlink:href="#DejaVuSans-2d"/>
      <use x="202.392578" xlink:href="#DejaVuSans-52"/>
      <use x="271.875" xlink:href="#DejaVuSans-69"/>
      <use x="299.658203" xlink:href="#DejaVuSans-70"/>
      <use x="363.134766" xlink:href="#DejaVuSans-73"/>
     </g>
    </g>
    <g id="line2d_90">
     <path d="M 178.92 144.281362 
L 206.92 144.281362 
" style="fill:none;stroke:#008000;stroke-linecap:square;stroke-width:1.5;"/>
    </g>
    <g id="line2d_91"/>
    <g id="text_22">
     <!-- Alpha -->
     <g transform="translate(218.12 149.181362)scale(0.14 -0.14)">
      <defs>
       <path d="M 2188 4044 
L 1331 1722 
L 3047 1722 
L 2188 4044 
z
M 1831 4666 
L 2547 4666 
L 4325 0 
L 3669 0 
L 3244 1197 
L 1141 1197 
L 716 0 
L 50 0 
L 1831 4666 
z
" id="DejaVuSans-41" transform="scale(0.015625)"/>
      </defs>
      <use xlink:href="#DejaVuSans-41"/>
      <use x="68.408203" xlink:href="#DejaVuSans-6c"/>
      <use x="96.191406" xlink:href="#DejaVuSans-70"/>
      <use x="159.667969" xlink:href="#DejaVuSans-68"/>
      <use x="223.046875" xlink:href="#DejaVuSans-61"/>
     </g>
    </g>
   </g>
  </g>
 </g>
 <defs>
  <clipPath id="pc174f92871">
   <rect height="544.4208" width="1031.184" x="166.32" y="84.8448"/>
  </clipPath>
 </defs>
</svg>
