<?xml version="1.0" encoding="utf-8" standalone="no"?>
<!DOCTYPE svg PUBLIC "-//W3C//DTD SVG 1.1//EN"
  "http://www.w3.org/Graphics/SVG/1.1/DTD/svg11.dtd">
<svg height="707.04pt" version="1.1" viewBox="0 0 1330.56 707.04" width="1330.56pt" xmlns="http://www.w3.org/2000/svg" xmlns:xlink="http://www.w3.org/1999/xlink">
 <metadata>
  <rdf:RDF xmlns:cc="http://creativecommons.org/ns#" xmlns:dc="http://purl.org/dc/elements/1.1/" xmlns:rdf="http://www.w3.org/1999/02/22-rdf-syntax-ns#">
   <cc:Work>
    <dc:type rdf:resource="http://purl.org/dc/dcmitype/StillImage"/>
    <dc:date>2021-11-06T17:01:39.385737</dc:date>
    <dc:format>image/svg+xml</dc:format>
    <dc:creator>
     <cc:Agent>
      <dc:title>Matplotlib v3.4.2, https://matplotlib.org/</dc:title>
     </cc:Agent>
    </dc:creator>
   </cc:Work>
  </rdf:RDF>
 </metadata>
 <defs>
  <style type="text/css">*{stroke-linecap:butt;stroke-linejoin:round;}</style>
 </defs>
 <g id="figure_1">
  <g id="patch_1">
   <path d="M 0 707.04 
L 1330.56 707.04 
L 1330.56 0 
L 0 0 
z
" style="fill:#ffffff;"/>
  </g>
  <g id="axes_1">
   <g id="patch_2">
    <path d="M 166.32 629.2656 
L 1197.504 629.2656 
L 1197.504 84.8448 
L 166.32 84.8448 
z
" style="fill:#ffffff;"/>
   </g>
   <g id="matplotlib.axis_1">
    <g id="xtick_1">
     <g id="line2d_1">
      <defs>
       <path d="M 0 0 
L 0 3.5 
" id="m859fa4325b" style="stroke:#000000;stroke-width:0.8;"/>
      </defs>
      <g>
       <use style="stroke:#000000;stroke-width:0.8;" x="252.252" xlink:href="#m859fa4325b" y="629.2656"/>
      </g>
     </g>
     <g id="text_1">
      <!-- 1 -->
      <g transform="translate(247.79825 646.903412)scale(0.14 -0.14)">
       <defs>
        <path d="M 794 531 
L 1825 531 
L 1825 4091 
L 703 3866 
L 703 4441 
L 1819 4666 
L 2450 4666 
L 2450 531 
L 3481 531 
L 3481 0 
L 794 0 
L 794 531 
z
" id="DejaVuSans-31" transform="scale(0.015625)"/>
       </defs>
       <use xlink:href="#DejaVuSans-31"/>
      </g>
     </g>
    </g>
    <g id="xtick_2">
     <g id="line2d_2">
      <g>
       <use style="stroke:#000000;stroke-width:0.8;" x="252.252" xlink:href="#m859fa4325b" y="629.2656"/>
      </g>
     </g>
     <g id="text_2">
      <!-- 1 -->
      <g transform="translate(247.79825 646.903412)scale(0.14 -0.14)">
       <use xlink:href="#DejaVuSans-31"/>
      </g>
     </g>
    </g>
    <g id="xtick_3">
     <g id="line2d_3">
      <g>
       <use style="stroke:#000000;stroke-width:0.8;" x="252.252" xlink:href="#m859fa4325b" y="629.2656"/>
      </g>
     </g>
     <g id="text_3">
      <!-- 1 -->
      <g transform="translate(247.79825 646.903412)scale(0.14 -0.14)">
       <use xlink:href="#DejaVuSans-31"/>
      </g>
     </g>
    </g>
    <g id="xtick_4">
     <g id="line2d_4">
      <g>
       <use style="stroke:#000000;stroke-width:0.8;" x="424.116" xlink:href="#m859fa4325b" y="629.2656"/>
      </g>
     </g>
     <g id="text_4">
      <!-- 2 -->
      <g transform="translate(419.66225 646.903412)scale(0.14 -0.14)">
       <defs>
        <path d="M 1228 531 
L 3431 531 
L 3431 0 
L 469 0 
L 469 531 
Q 828 903 1448 1529 
Q 2069 2156 2228 2338 
Q 2531 2678 2651 2914 
Q 2772 3150 2772 3378 
Q 2772 3750 2511 3984 
Q 2250 4219 1831 4219 
Q 1534 4219 1204 4116 
Q 875 4013 500 3803 
L 500 4441 
Q 881 4594 1212 4672 
Q 1544 4750 1819 4750 
Q 2544 4750 2975 4387 
Q 3406 4025 3406 3419 
Q 3406 3131 3298 2873 
Q 3191 2616 2906 2266 
Q 2828 2175 2409 1742 
Q 1991 1309 1228 531 
z
" id="DejaVuSans-32" transform="scale(0.015625)"/>
       </defs>
       <use xlink:href="#DejaVuSans-32"/>
      </g>
     </g>
    </g>
    <g id="xtick_5">
     <g id="line2d_5">
      <g>
       <use style="stroke:#000000;stroke-width:0.8;" x="424.116" xlink:href="#m859fa4325b" y="629.2656"/>
      </g>
     </g>
     <g id="text_5">
      <!-- 2 -->
      <g transform="translate(419.66225 646.903412)scale(0.14 -0.14)">
       <use xlink:href="#DejaVuSans-32"/>
      </g>
     </g>
    </g>
    <g id="xtick_6">
     <g id="line2d_6">
      <g>
       <use style="stroke:#000000;stroke-width:0.8;" x="424.116" xlink:href="#m859fa4325b" y="629.2656"/>
      </g>
     </g>
     <g id="text_6">
      <!-- 2 -->
      <g transform="translate(419.66225 646.903412)scale(0.14 -0.14)">
       <use xlink:href="#DejaVuSans-32"/>
      </g>
     </g>
    </g>
    <g id="xtick_7">
     <g id="line2d_7">
      <g>
       <use style="stroke:#000000;stroke-width:0.8;" x="595.98" xlink:href="#m859fa4325b" y="629.2656"/>
      </g>
     </g>
     <g id="text_7">
      <!-- 3 -->
      <g transform="translate(591.52625 646.903412)scale(0.14 -0.14)">
       <defs>
        <path d="M 2597 2516 
Q 3050 2419 3304 2112 
Q 3559 1806 3559 1356 
Q 3559 666 3084 287 
Q 2609 -91 1734 -91 
Q 1441 -91 1130 -33 
Q 819 25 488 141 
L 488 750 
Q 750 597 1062 519 
Q 1375 441 1716 441 
Q 2309 441 2620 675 
Q 2931 909 2931 1356 
Q 2931 1769 2642 2001 
Q 2353 2234 1838 2234 
L 1294 2234 
L 1294 2753 
L 1863 2753 
Q 2328 2753 2575 2939 
Q 2822 3125 2822 3475 
Q 2822 3834 2567 4026 
Q 2313 4219 1838 4219 
Q 1578 4219 1281 4162 
Q 984 4106 628 3988 
L 628 4550 
Q 988 4650 1302 4700 
Q 1616 4750 1894 4750 
Q 2613 4750 3031 4423 
Q 3450 4097 3450 3541 
Q 3450 3153 3228 2886 
Q 3006 2619 2597 2516 
z
" id="DejaVuSans-33" transform="scale(0.015625)"/>
       </defs>
       <use xlink:href="#DejaVuSans-33"/>
      </g>
     </g>
    </g>
    <g id="xtick_8">
     <g id="line2d_8">
      <g>
       <use style="stroke:#000000;stroke-width:0.8;" x="595.98" xlink:href="#m859fa4325b" y="629.2656"/>
      </g>
     </g>
     <g id="text_8">
      <!-- 3 -->
      <g transform="translate(591.52625 646.903412)scale(0.14 -0.14)">
       <use xlink:href="#DejaVuSans-33"/>
      </g>
     </g>
    </g>
    <g id="xtick_9">
     <g id="line2d_9">
      <g>
       <use style="stroke:#000000;stroke-width:0.8;" x="595.98" xlink:href="#m859fa4325b" y="629.2656"/>
      </g>
     </g>
     <g id="text_9">
      <!-- 3 -->
      <g transform="translate(591.52625 646.903412)scale(0.14 -0.14)">
       <use xlink:href="#DejaVuSans-33"/>
      </g>
     </g>
    </g>
    <g id="xtick_10">
     <g id="line2d_10">
      <g>
       <use style="stroke:#000000;stroke-width:0.8;" x="767.844" xlink:href="#m859fa4325b" y="629.2656"/>
      </g>
     </g>
     <g id="text_10">
      <!-- 4 -->
      <g transform="translate(763.39025 646.903412)scale(0.14 -0.14)">
       <defs>
        <path d="M 2419 4116 
L 825 1625 
L 2419 1625 
L 2419 4116 
z
M 2253 4666 
L 3047 4666 
L 3047 1625 
L 3713 1625 
L 3713 1100 
L 3047 1100 
L 3047 0 
L 2419 0 
L 2419 1100 
L 313 1100 
L 313 1709 
L 2253 4666 
z
" id="DejaVuSans-34" transform="scale(0.015625)"/>
       </defs>
       <use xlink:href="#DejaVuSans-34"/>
      </g>
     </g>
    </g>
    <g id="xtick_11">
     <g id="line2d_11">
      <g>
       <use style="stroke:#000000;stroke-width:0.8;" x="767.844" xlink:href="#m859fa4325b" y="629.2656"/>
      </g>
     </g>
     <g id="text_11">
      <!-- 4 -->
      <g transform="translate(763.39025 646.903412)scale(0.14 -0.14)">
       <use xlink:href="#DejaVuSans-34"/>
      </g>
     </g>
    </g>
    <g id="xtick_12">
     <g id="line2d_12">
      <g>
       <use style="stroke:#000000;stroke-width:0.8;" x="767.844" xlink:href="#m859fa4325b" y="629.2656"/>
      </g>
     </g>
     <g id="text_12">
      <!-- 4 -->
      <g transform="translate(763.39025 646.903412)scale(0.14 -0.14)">
       <use xlink:href="#DejaVuSans-34"/>
      </g>
     </g>
    </g>
    <g id="xtick_13">
     <g id="line2d_13">
      <g>
       <use style="stroke:#000000;stroke-width:0.8;" x="939.708" xlink:href="#m859fa4325b" y="629.2656"/>
      </g>
     </g>
     <g id="text_13">
      <!-- 5 -->
      <g transform="translate(935.25425 646.903412)scale(0.14 -0.14)">
       <defs>
        <path d="M 691 4666 
L 3169 4666 
L 3169 4134 
L 1269 4134 
L 1269 2991 
Q 1406 3038 1543 3061 
Q 1681 3084 1819 3084 
Q 2600 3084 3056 2656 
Q 3513 2228 3513 1497 
Q 3513 744 3044 326 
Q 2575 -91 1722 -91 
Q 1428 -91 1123 -41 
Q 819 9 494 109 
L 494 744 
Q 775 591 1075 516 
Q 1375 441 1709 441 
Q 2250 441 2565 725 
Q 2881 1009 2881 1497 
Q 2881 1984 2565 2268 
Q 2250 2553 1709 2553 
Q 1456 2553 1204 2497 
Q 953 2441 691 2322 
L 691 4666 
z
" id="DejaVuSans-35" transform="scale(0.015625)"/>
       </defs>
       <use xlink:href="#DejaVuSans-35"/>
      </g>
     </g>
    </g>
    <g id="xtick_14">
     <g id="line2d_14">
      <g>
       <use style="stroke:#000000;stroke-width:0.8;" x="1111.572" xlink:href="#m859fa4325b" y="629.2656"/>
      </g>
     </g>
     <g id="text_14">
      <!-- 6 -->
      <g transform="translate(1107.11825 646.903412)scale(0.14 -0.14)">
       <defs>
        <path d="M 2113 2584 
Q 1688 2584 1439 2293 
Q 1191 2003 1191 1497 
Q 1191 994 1439 701 
Q 1688 409 2113 409 
Q 2538 409 2786 701 
Q 3034 994 3034 1497 
Q 3034 2003 2786 2293 
Q 2538 2584 2113 2584 
z
M 3366 4563 
L 3366 3988 
Q 3128 4100 2886 4159 
Q 2644 4219 2406 4219 
Q 1781 4219 1451 3797 
Q 1122 3375 1075 2522 
Q 1259 2794 1537 2939 
Q 1816 3084 2150 3084 
Q 2853 3084 3261 2657 
Q 3669 2231 3669 1497 
Q 3669 778 3244 343 
Q 2819 -91 2113 -91 
Q 1303 -91 875 529 
Q 447 1150 447 2328 
Q 447 3434 972 4092 
Q 1497 4750 2381 4750 
Q 2619 4750 2861 4703 
Q 3103 4656 3366 4563 
z
" id="DejaVuSans-36" transform="scale(0.015625)"/>
       </defs>
       <use xlink:href="#DejaVuSans-36"/>
      </g>
     </g>
    </g>
    <g id="text_15">
     <!-- Dimension -->
     <g transform="translate(639.3895 665.972475)scale(0.16 -0.16)">
      <defs>
       <path d="M 1259 4147 
L 1259 519 
L 2022 519 
Q 2988 519 3436 956 
Q 3884 1394 3884 2338 
Q 3884 3275 3436 3711 
Q 2988 4147 2022 4147 
L 1259 4147 
z
M 628 4666 
L 1925 4666 
Q 3281 4666 3915 4102 
Q 4550 3538 4550 2338 
Q 4550 1131 3912 565 
Q 3275 0 1925 0 
L 628 0 
L 628 4666 
z
" id="DejaVuSans-44" transform="scale(0.015625)"/>
       <path d="M 603 3500 
L 1178 3500 
L 1178 0 
L 603 0 
L 603 3500 
z
M 603 4863 
L 1178 4863 
L 1178 4134 
L 603 4134 
L 603 4863 
z
" id="DejaVuSans-69" transform="scale(0.015625)"/>
       <path d="M 3328 2828 
Q 3544 3216 3844 3400 
Q 4144 3584 4550 3584 
Q 5097 3584 5394 3201 
Q 5691 2819 5691 2113 
L 5691 0 
L 5113 0 
L 5113 2094 
Q 5113 2597 4934 2840 
Q 4756 3084 4391 3084 
Q 3944 3084 3684 2787 
Q 3425 2491 3425 1978 
L 3425 0 
L 2847 0 
L 2847 2094 
Q 2847 2600 2669 2842 
Q 2491 3084 2119 3084 
Q 1678 3084 1418 2786 
Q 1159 2488 1159 1978 
L 1159 0 
L 581 0 
L 581 3500 
L 1159 3500 
L 1159 2956 
Q 1356 3278 1631 3431 
Q 1906 3584 2284 3584 
Q 2666 3584 2933 3390 
Q 3200 3197 3328 2828 
z
" id="DejaVuSans-6d" transform="scale(0.015625)"/>
       <path d="M 3597 1894 
L 3597 1613 
L 953 1613 
Q 991 1019 1311 708 
Q 1631 397 2203 397 
Q 2534 397 2845 478 
Q 3156 559 3463 722 
L 3463 178 
Q 3153 47 2828 -22 
Q 2503 -91 2169 -91 
Q 1331 -91 842 396 
Q 353 884 353 1716 
Q 353 2575 817 3079 
Q 1281 3584 2069 3584 
Q 2775 3584 3186 3129 
Q 3597 2675 3597 1894 
z
M 3022 2063 
Q 3016 2534 2758 2815 
Q 2500 3097 2075 3097 
Q 1594 3097 1305 2825 
Q 1016 2553 972 2059 
L 3022 2063 
z
" id="DejaVuSans-65" transform="scale(0.015625)"/>
       <path d="M 3513 2113 
L 3513 0 
L 2938 0 
L 2938 2094 
Q 2938 2591 2744 2837 
Q 2550 3084 2163 3084 
Q 1697 3084 1428 2787 
Q 1159 2491 1159 1978 
L 1159 0 
L 581 0 
L 581 3500 
L 1159 3500 
L 1159 2956 
Q 1366 3272 1645 3428 
Q 1925 3584 2291 3584 
Q 2894 3584 3203 3211 
Q 3513 2838 3513 2113 
z
" id="DejaVuSans-6e" transform="scale(0.015625)"/>
       <path d="M 2834 3397 
L 2834 2853 
Q 2591 2978 2328 3040 
Q 2066 3103 1784 3103 
Q 1356 3103 1142 2972 
Q 928 2841 928 2578 
Q 928 2378 1081 2264 
Q 1234 2150 1697 2047 
L 1894 2003 
Q 2506 1872 2764 1633 
Q 3022 1394 3022 966 
Q 3022 478 2636 193 
Q 2250 -91 1575 -91 
Q 1294 -91 989 -36 
Q 684 19 347 128 
L 347 722 
Q 666 556 975 473 
Q 1284 391 1588 391 
Q 1994 391 2212 530 
Q 2431 669 2431 922 
Q 2431 1156 2273 1281 
Q 2116 1406 1581 1522 
L 1381 1569 
Q 847 1681 609 1914 
Q 372 2147 372 2553 
Q 372 3047 722 3315 
Q 1072 3584 1716 3584 
Q 2034 3584 2315 3537 
Q 2597 3491 2834 3397 
z
" id="DejaVuSans-73" transform="scale(0.015625)"/>
       <path d="M 1959 3097 
Q 1497 3097 1228 2736 
Q 959 2375 959 1747 
Q 959 1119 1226 758 
Q 1494 397 1959 397 
Q 2419 397 2687 759 
Q 2956 1122 2956 1747 
Q 2956 2369 2687 2733 
Q 2419 3097 1959 3097 
z
M 1959 3584 
Q 2709 3584 3137 3096 
Q 3566 2609 3566 1747 
Q 3566 888 3137 398 
Q 2709 -91 1959 -91 
Q 1206 -91 779 398 
Q 353 888 353 1747 
Q 353 2609 779 3096 
Q 1206 3584 1959 3584 
z
" id="DejaVuSans-6f" transform="scale(0.015625)"/>
      </defs>
      <use xlink:href="#DejaVuSans-44"/>
      <use x="77.001953" xlink:href="#DejaVuSans-69"/>
      <use x="104.785156" xlink:href="#DejaVuSans-6d"/>
      <use x="202.197266" xlink:href="#DejaVuSans-65"/>
      <use x="263.720703" xlink:href="#DejaVuSans-6e"/>
      <use x="327.099609" xlink:href="#DejaVuSans-73"/>
      <use x="379.199219" xlink:href="#DejaVuSans-69"/>
      <use x="406.982422" xlink:href="#DejaVuSans-6f"/>
      <use x="468.164062" xlink:href="#DejaVuSans-6e"/>
     </g>
    </g>
   </g>
   <g id="matplotlib.axis_2">
    <g id="ytick_1">
     <g id="line2d_15">
      <defs>
       <path d="M 0 0 
L -3.5 0 
" id="me2d56804a5" style="stroke:#000000;stroke-width:0.8;"/>
      </defs>
      <g>
       <use style="stroke:#000000;stroke-width:0.8;" x="166.32" xlink:href="#me2d56804a5" y="604.650413"/>
      </g>
     </g>
     <g id="text_16">
      <!-- 0 -->
      <g transform="translate(150.4125 609.96932)scale(0.14 -0.14)">
       <defs>
        <path d="M 2034 4250 
Q 1547 4250 1301 3770 
Q 1056 3291 1056 2328 
Q 1056 1369 1301 889 
Q 1547 409 2034 409 
Q 2525 409 2770 889 
Q 3016 1369 3016 2328 
Q 3016 3291 2770 3770 
Q 2525 4250 2034 4250 
z
M 2034 4750 
Q 2819 4750 3233 4129 
Q 3647 3509 3647 2328 
Q 3647 1150 3233 529 
Q 2819 -91 2034 -91 
Q 1250 -91 836 529 
Q 422 1150 422 2328 
Q 422 3509 836 4129 
Q 1250 4750 2034 4750 
z
" id="DejaVuSans-30" transform="scale(0.015625)"/>
       </defs>
       <use xlink:href="#DejaVuSans-30"/>
      </g>
     </g>
    </g>
    <g id="ytick_2">
     <g id="line2d_16">
      <g>
       <use style="stroke:#000000;stroke-width:0.8;" x="166.32" xlink:href="#me2d56804a5" y="540.552048"/>
      </g>
     </g>
     <g id="text_17">
      <!-- 5 -->
      <g transform="translate(150.4125 545.870954)scale(0.14 -0.14)">
       <use xlink:href="#DejaVuSans-35"/>
      </g>
     </g>
    </g>
    <g id="ytick_3">
     <g id="line2d_17">
      <g>
       <use style="stroke:#000000;stroke-width:0.8;" x="166.32" xlink:href="#me2d56804a5" y="476.453682"/>
      </g>
     </g>
     <g id="text_18">
      <!-- 10 -->
      <g transform="translate(141.505 481.772588)scale(0.14 -0.14)">
       <use xlink:href="#DejaVuSans-31"/>
       <use x="63.623047" xlink:href="#DejaVuSans-30"/>
      </g>
     </g>
    </g>
    <g id="ytick_4">
     <g id="line2d_18">
      <g>
       <use style="stroke:#000000;stroke-width:0.8;" x="166.32" xlink:href="#me2d56804a5" y="412.355316"/>
      </g>
     </g>
     <g id="text_19">
      <!-- 15 -->
      <g transform="translate(141.505 417.674223)scale(0.14 -0.14)">
       <use xlink:href="#DejaVuSans-31"/>
       <use x="63.623047" xlink:href="#DejaVuSans-35"/>
      </g>
     </g>
    </g>
    <g id="ytick_5">
     <g id="line2d_19">
      <g>
       <use style="stroke:#000000;stroke-width:0.8;" x="166.32" xlink:href="#me2d56804a5" y="348.256951"/>
      </g>
     </g>
     <g id="text_20">
      <!-- 20 -->
      <g transform="translate(141.505 353.575857)scale(0.14 -0.14)">
       <use xlink:href="#DejaVuSans-32"/>
       <use x="63.623047" xlink:href="#DejaVuSans-30"/>
      </g>
     </g>
    </g>
    <g id="ytick_6">
     <g id="line2d_20">
      <g>
       <use style="stroke:#000000;stroke-width:0.8;" x="166.32" xlink:href="#me2d56804a5" y="284.158585"/>
      </g>
     </g>
     <g id="text_21">
      <!-- 25 -->
      <g transform="translate(141.505 289.477491)scale(0.14 -0.14)">
       <use xlink:href="#DejaVuSans-32"/>
       <use x="63.623047" xlink:href="#DejaVuSans-35"/>
      </g>
     </g>
    </g>
    <g id="ytick_7">
     <g id="line2d_21">
      <g>
       <use style="stroke:#000000;stroke-width:0.8;" x="166.32" xlink:href="#me2d56804a5" y="220.06022"/>
      </g>
     </g>
     <g id="text_22">
      <!-- 30 -->
      <g transform="translate(141.505 225.379126)scale(0.14 -0.14)">
       <use xlink:href="#DejaVuSans-33"/>
       <use x="63.623047" xlink:href="#DejaVuSans-30"/>
      </g>
     </g>
    </g>
    <g id="ytick_8">
     <g id="line2d_22">
      <g>
       <use style="stroke:#000000;stroke-width:0.8;" x="166.32" xlink:href="#me2d56804a5" y="155.961854"/>
      </g>
     </g>
     <g id="text_23">
      <!-- 35 -->
      <g transform="translate(141.505 161.28076)scale(0.14 -0.14)">
       <use xlink:href="#DejaVuSans-33"/>
       <use x="63.623047" xlink:href="#DejaVuSans-35"/>
      </g>
     </g>
    </g>
    <g id="ytick_9">
     <g id="line2d_23">
      <g>
       <use style="stroke:#000000;stroke-width:0.8;" x="166.32" xlink:href="#me2d56804a5" y="91.863488"/>
      </g>
     </g>
     <g id="text_24">
      <!-- 40 -->
      <g transform="translate(141.505 97.182395)scale(0.14 -0.14)">
       <use xlink:href="#DejaVuSans-34"/>
       <use x="63.623047" xlink:href="#DejaVuSans-30"/>
      </g>
     </g>
    </g>
    <g id="text_25">
     <!-- Time (seconds) -->
     <g transform="translate(134.1775 418.11395)rotate(-90)scale(0.16 -0.16)">
      <defs>
       <path d="M -19 4666 
L 3928 4666 
L 3928 4134 
L 2272 4134 
L 2272 0 
L 1638 0 
L 1638 4134 
L -19 4134 
L -19 4666 
z
" id="DejaVuSans-54" transform="scale(0.015625)"/>
       <path id="DejaVuSans-20" transform="scale(0.015625)"/>
       <path d="M 1984 4856 
Q 1566 4138 1362 3434 
Q 1159 2731 1159 2009 
Q 1159 1288 1364 580 
Q 1569 -128 1984 -844 
L 1484 -844 
Q 1016 -109 783 600 
Q 550 1309 550 2009 
Q 550 2706 781 3412 
Q 1013 4119 1484 4856 
L 1984 4856 
z
" id="DejaVuSans-28" transform="scale(0.015625)"/>
       <path d="M 3122 3366 
L 3122 2828 
Q 2878 2963 2633 3030 
Q 2388 3097 2138 3097 
Q 1578 3097 1268 2742 
Q 959 2388 959 1747 
Q 959 1106 1268 751 
Q 1578 397 2138 397 
Q 2388 397 2633 464 
Q 2878 531 3122 666 
L 3122 134 
Q 2881 22 2623 -34 
Q 2366 -91 2075 -91 
Q 1284 -91 818 406 
Q 353 903 353 1747 
Q 353 2603 823 3093 
Q 1294 3584 2113 3584 
Q 2378 3584 2631 3529 
Q 2884 3475 3122 3366 
z
" id="DejaVuSans-63" transform="scale(0.015625)"/>
       <path d="M 2906 2969 
L 2906 4863 
L 3481 4863 
L 3481 0 
L 2906 0 
L 2906 525 
Q 2725 213 2448 61 
Q 2172 -91 1784 -91 
Q 1150 -91 751 415 
Q 353 922 353 1747 
Q 353 2572 751 3078 
Q 1150 3584 1784 3584 
Q 2172 3584 2448 3432 
Q 2725 3281 2906 2969 
z
M 947 1747 
Q 947 1113 1208 752 
Q 1469 391 1925 391 
Q 2381 391 2643 752 
Q 2906 1113 2906 1747 
Q 2906 2381 2643 2742 
Q 2381 3103 1925 3103 
Q 1469 3103 1208 2742 
Q 947 2381 947 1747 
z
" id="DejaVuSans-64" transform="scale(0.015625)"/>
       <path d="M 513 4856 
L 1013 4856 
Q 1481 4119 1714 3412 
Q 1947 2706 1947 2009 
Q 1947 1309 1714 600 
Q 1481 -109 1013 -844 
L 513 -844 
Q 928 -128 1133 580 
Q 1338 1288 1338 2009 
Q 1338 2731 1133 3434 
Q 928 4138 513 4856 
z
" id="DejaVuSans-29" transform="scale(0.015625)"/>
      </defs>
      <use xlink:href="#DejaVuSans-54"/>
      <use x="57.958984" xlink:href="#DejaVuSans-69"/>
      <use x="85.742188" xlink:href="#DejaVuSans-6d"/>
      <use x="183.154297" xlink:href="#DejaVuSans-65"/>
      <use x="244.677734" xlink:href="#DejaVuSans-20"/>
      <use x="276.464844" xlink:href="#DejaVuSans-28"/>
      <use x="315.478516" xlink:href="#DejaVuSans-73"/>
      <use x="367.578125" xlink:href="#DejaVuSans-65"/>
      <use x="429.101562" xlink:href="#DejaVuSans-63"/>
      <use x="484.082031" xlink:href="#DejaVuSans-6f"/>
      <use x="545.263672" xlink:href="#DejaVuSans-6e"/>
      <use x="608.642578" xlink:href="#DejaVuSans-64"/>
      <use x="672.119141" xlink:href="#DejaVuSans-73"/>
      <use x="724.21875" xlink:href="#DejaVuSans-29"/>
     </g>
    </g>
   </g>
   <g id="line2d_24">
    <path clip-path="url(#p764326c770)" d="M 235.0656 604.419327 
L 269.4384 604.419327 
L 269.4384 604.394714 
L 235.0656 604.394714 
L 235.0656 604.419327 
" style="fill:none;stroke:#000000;stroke-linecap:square;"/>
   </g>
   <g id="line2d_25">
    <path clip-path="url(#p764326c770)" d="M 252.252 604.419327 
L 252.252 604.421605 
" style="fill:none;stroke:#000000;stroke-linecap:square;"/>
   </g>
   <g id="line2d_26">
    <path clip-path="url(#p764326c770)" d="M 252.252 604.394714 
L 252.252 604.388289 
" style="fill:none;stroke:#000000;stroke-linecap:square;"/>
   </g>
   <g id="line2d_27">
    <path clip-path="url(#p764326c770)" d="M 243.6588 604.421605 
L 260.8452 604.421605 
" style="fill:none;stroke:#000000;stroke-linecap:square;"/>
   </g>
   <g id="line2d_28">
    <path clip-path="url(#p764326c770)" d="M 243.6588 604.388289 
L 260.8452 604.388289 
" style="fill:none;stroke:#000000;stroke-linecap:square;"/>
   </g>
   <g id="line2d_29">
    <path clip-path="url(#p764326c770)" d="M 235.0656 604.512778 
L 269.4384 604.512778 
L 269.4384 604.496771 
L 235.0656 604.496771 
L 235.0656 604.512778 
" style="fill:none;stroke:#000000;stroke-linecap:square;"/>
   </g>
   <g id="line2d_30">
    <path clip-path="url(#p764326c770)" d="M 252.252 604.512778 
L 252.252 604.5192 
" style="fill:none;stroke:#000000;stroke-linecap:square;"/>
   </g>
   <g id="line2d_31">
    <path clip-path="url(#p764326c770)" d="M 252.252 604.496771 
L 252.252 604.494565 
" style="fill:none;stroke:#000000;stroke-linecap:square;"/>
   </g>
   <g id="line2d_32">
    <path clip-path="url(#p764326c770)" d="M 243.6588 604.5192 
L 260.8452 604.5192 
" style="fill:none;stroke:#000000;stroke-linecap:square;"/>
   </g>
   <g id="line2d_33">
    <path clip-path="url(#p764326c770)" d="M 243.6588 604.494565 
L 260.8452 604.494565 
" style="fill:none;stroke:#000000;stroke-linecap:square;"/>
   </g>
   <g id="line2d_34">
    <path clip-path="url(#p764326c770)" d="M 235.0656 603.601593 
L 269.4384 603.601593 
L 269.4384 603.58261 
L 235.0656 603.58261 
L 235.0656 603.601593 
" style="fill:none;stroke:#000000;stroke-linecap:square;"/>
   </g>
   <g id="line2d_35">
    <path clip-path="url(#p764326c770)" d="M 252.252 603.601593 
L 252.252 603.605747 
" style="fill:none;stroke:#000000;stroke-linecap:square;"/>
   </g>
   <g id="line2d_36">
    <path clip-path="url(#p764326c770)" d="M 252.252 603.58261 
L 252.252 603.573932 
" style="fill:none;stroke:#000000;stroke-linecap:square;"/>
   </g>
   <g id="line2d_37">
    <path clip-path="url(#p764326c770)" d="M 243.6588 603.605747 
L 260.8452 603.605747 
" style="fill:none;stroke:#000000;stroke-linecap:square;"/>
   </g>
   <g id="line2d_38">
    <path clip-path="url(#p764326c770)" d="M 243.6588 603.573932 
L 260.8452 603.573932 
" style="fill:none;stroke:#000000;stroke-linecap:square;"/>
   </g>
   <g id="line2d_39">
    <path clip-path="url(#p764326c770)" d="M 406.9296 604.265292 
L 441.3024 604.265292 
L 441.3024 604.254475 
L 406.9296 604.254475 
L 406.9296 604.265292 
" style="fill:none;stroke:#000000;stroke-linecap:square;"/>
   </g>
   <g id="line2d_40">
    <path clip-path="url(#p764326c770)" d="M 424.116 604.265292 
L 424.116 604.268128 
" style="fill:none;stroke:#000000;stroke-linecap:square;"/>
   </g>
   <g id="line2d_41">
    <path clip-path="url(#p764326c770)" d="M 424.116 604.254475 
L 424.116 604.243484 
" style="fill:none;stroke:#000000;stroke-linecap:square;"/>
   </g>
   <g id="line2d_42">
    <path clip-path="url(#p764326c770)" d="M 415.5228 604.268128 
L 432.7092 604.268128 
" style="fill:none;stroke:#000000;stroke-linecap:square;"/>
   </g>
   <g id="line2d_43">
    <path clip-path="url(#p764326c770)" d="M 415.5228 604.243484 
L 432.7092 604.243484 
" style="fill:none;stroke:#000000;stroke-linecap:square;"/>
   </g>
   <g id="line2d_44">
    <path clip-path="url(#p764326c770)" d="M 406.9296 603.010789 
L 441.3024 603.010789 
L 441.3024 602.873837 
L 406.9296 602.873837 
L 406.9296 603.010789 
" style="fill:none;stroke:#000000;stroke-linecap:square;"/>
   </g>
   <g id="line2d_45">
    <path clip-path="url(#p764326c770)" d="M 424.116 603.010789 
L 424.116 603.202794 
" style="fill:none;stroke:#000000;stroke-linecap:square;"/>
   </g>
   <g id="line2d_46">
    <path clip-path="url(#p764326c770)" d="M 424.116 602.873837 
L 424.116 602.825955 
" style="fill:none;stroke:#000000;stroke-linecap:square;"/>
   </g>
   <g id="line2d_47">
    <path clip-path="url(#p764326c770)" d="M 415.5228 603.202794 
L 432.7092 603.202794 
" style="fill:none;stroke:#000000;stroke-linecap:square;"/>
   </g>
   <g id="line2d_48">
    <path clip-path="url(#p764326c770)" d="M 415.5228 602.825955 
L 432.7092 602.825955 
" style="fill:none;stroke:#000000;stroke-linecap:square;"/>
   </g>
   <g id="line2d_49">
    <path clip-path="url(#p764326c770)" d="M 406.9296 599.000822 
L 441.3024 599.000822 
L 441.3024 598.727075 
L 406.9296 598.727075 
L 406.9296 599.000822 
" style="fill:none;stroke:#000000;stroke-linecap:square;"/>
   </g>
   <g id="line2d_50">
    <path clip-path="url(#p764326c770)" d="M 424.116 599.000822 
L 424.116 599.138369 
" style="fill:none;stroke:#000000;stroke-linecap:square;"/>
   </g>
   <g id="line2d_51">
    <path clip-path="url(#p764326c770)" d="M 424.116 598.727075 
L 424.116 598.683578 
" style="fill:none;stroke:#000000;stroke-linecap:square;"/>
   </g>
   <g id="line2d_52">
    <path clip-path="url(#p764326c770)" d="M 415.5228 599.138369 
L 432.7092 599.138369 
" style="fill:none;stroke:#000000;stroke-linecap:square;"/>
   </g>
   <g id="line2d_53">
    <path clip-path="url(#p764326c770)" d="M 415.5228 598.683578 
L 432.7092 598.683578 
" style="fill:none;stroke:#000000;stroke-linecap:square;"/>
   </g>
   <g id="line2d_54">
    <path clip-path="url(#p764326c770)" d="M 578.7936 602.927257 
L 613.1664 602.927257 
L 613.1664 602.804369 
L 578.7936 602.804369 
L 578.7936 602.927257 
" style="fill:none;stroke:#000000;stroke-linecap:square;"/>
   </g>
   <g id="line2d_55">
    <path clip-path="url(#p764326c770)" d="M 595.98 602.927257 
L 595.98 603.078901 
" style="fill:none;stroke:#000000;stroke-linecap:square;"/>
   </g>
   <g id="line2d_56">
    <path clip-path="url(#p764326c770)" d="M 595.98 602.804369 
L 595.98 602.756684 
" style="fill:none;stroke:#000000;stroke-linecap:square;"/>
   </g>
   <g id="line2d_57">
    <path clip-path="url(#p764326c770)" d="M 587.3868 603.078901 
L 604.5732 603.078901 
" style="fill:none;stroke:#000000;stroke-linecap:square;"/>
   </g>
   <g id="line2d_58">
    <path clip-path="url(#p764326c770)" d="M 587.3868 602.756684 
L 604.5732 602.756684 
" style="fill:none;stroke:#000000;stroke-linecap:square;"/>
   </g>
   <g id="line2d_59">
    <path clip-path="url(#p764326c770)" d="M 578.7936 589.076584 
L 613.1664 589.076584 
L 613.1664 585.695705 
L 578.7936 585.695705 
L 578.7936 589.076584 
" style="fill:none;stroke:#000000;stroke-linecap:square;"/>
   </g>
   <g id="line2d_60">
    <path clip-path="url(#p764326c770)" d="M 595.98 589.076584 
L 595.98 589.680165 
" style="fill:none;stroke:#000000;stroke-linecap:square;"/>
   </g>
   <g id="line2d_61">
    <path clip-path="url(#p764326c770)" d="M 595.98 585.695705 
L 595.98 581.493316 
" style="fill:none;stroke:#000000;stroke-linecap:square;"/>
   </g>
   <g id="line2d_62">
    <path clip-path="url(#p764326c770)" d="M 587.3868 589.680165 
L 604.5732 589.680165 
" style="fill:none;stroke:#000000;stroke-linecap:square;"/>
   </g>
   <g id="line2d_63">
    <path clip-path="url(#p764326c770)" d="M 587.3868 581.493316 
L 604.5732 581.493316 
" style="fill:none;stroke:#000000;stroke-linecap:square;"/>
   </g>
   <g id="line2d_64">
    <path clip-path="url(#p764326c770)" d="M 578.7936 551.819437 
L 613.1664 551.819437 
L 613.1664 549.972933 
L 578.7936 549.972933 
L 578.7936 551.819437 
" style="fill:none;stroke:#000000;stroke-linecap:square;"/>
   </g>
   <g id="line2d_65">
    <path clip-path="url(#p764326c770)" d="M 595.98 551.819437 
L 595.98 553.393691 
" style="fill:none;stroke:#000000;stroke-linecap:square;"/>
   </g>
   <g id="line2d_66">
    <path clip-path="url(#p764326c770)" d="M 595.98 549.972933 
L 595.98 548.794057 
" style="fill:none;stroke:#000000;stroke-linecap:square;"/>
   </g>
   <g id="line2d_67">
    <path clip-path="url(#p764326c770)" d="M 587.3868 553.393691 
L 604.5732 553.393691 
" style="fill:none;stroke:#000000;stroke-linecap:square;"/>
   </g>
   <g id="line2d_68">
    <path clip-path="url(#p764326c770)" d="M 587.3868 548.794057 
L 604.5732 548.794057 
" style="fill:none;stroke:#000000;stroke-linecap:square;"/>
   </g>
   <g id="line2d_69">
    <path clip-path="url(#p764326c770)" d="M 750.6576 595.245145 
L 785.0304 595.245145 
L 785.0304 594.797413 
L 750.6576 594.797413 
L 750.6576 595.245145 
" style="fill:none;stroke:#000000;stroke-linecap:square;"/>
   </g>
   <g id="line2d_70">
    <path clip-path="url(#p764326c770)" d="M 767.844 595.245145 
L 767.844 595.678414 
" style="fill:none;stroke:#000000;stroke-linecap:square;"/>
   </g>
   <g id="line2d_71">
    <path clip-path="url(#p764326c770)" d="M 767.844 594.797413 
L 767.844 594.421838 
" style="fill:none;stroke:#000000;stroke-linecap:square;"/>
   </g>
   <g id="line2d_72">
    <path clip-path="url(#p764326c770)" d="M 759.2508 595.678414 
L 776.4372 595.678414 
" style="fill:none;stroke:#000000;stroke-linecap:square;"/>
   </g>
   <g id="line2d_73">
    <path clip-path="url(#p764326c770)" d="M 759.2508 594.421838 
L 776.4372 594.421838 
" style="fill:none;stroke:#000000;stroke-linecap:square;"/>
   </g>
   <g id="line2d_74">
    <path clip-path="url(#p764326c770)" d="M 750.6576 436.500536 
L 785.0304 436.500536 
L 785.0304 285.172529 
L 750.6576 285.172529 
L 750.6576 436.500536 
" style="fill:none;stroke:#000000;stroke-linecap:square;"/>
   </g>
   <g id="line2d_75">
    <path clip-path="url(#p764326c770)" d="M 767.844 436.500536 
L 767.844 490.32849 
" style="fill:none;stroke:#000000;stroke-linecap:square;"/>
   </g>
   <g id="line2d_76">
    <path clip-path="url(#p764326c770)" d="M 767.844 285.172529 
L 767.844 205.138422 
" style="fill:none;stroke:#000000;stroke-linecap:square;"/>
   </g>
   <g id="line2d_77">
    <path clip-path="url(#p764326c770)" d="M 759.2508 490.32849 
L 776.4372 490.32849 
" style="fill:none;stroke:#000000;stroke-linecap:square;"/>
   </g>
   <g id="line2d_78">
    <path clip-path="url(#p764326c770)" d="M 759.2508 205.138422 
L 776.4372 205.138422 
" style="fill:none;stroke:#000000;stroke-linecap:square;"/>
   </g>
   <g id="line2d_79">
    <path clip-path="url(#p764326c770)" d="M 750.6576 121.389093 
L 785.0304 121.389093 
L 785.0304 115.961123 
L 750.6576 115.961123 
L 750.6576 121.389093 
" style="fill:none;stroke:#000000;stroke-linecap:square;"/>
   </g>
   <g id="line2d_80">
    <path clip-path="url(#p764326c770)" d="M 767.844 121.389093 
L 767.844 126.24645 
" style="fill:none;stroke:#000000;stroke-linecap:square;"/>
   </g>
   <g id="line2d_81">
    <path clip-path="url(#p764326c770)" d="M 767.844 115.961123 
L 767.844 109.5912 
" style="fill:none;stroke:#000000;stroke-linecap:square;"/>
   </g>
   <g id="line2d_82">
    <path clip-path="url(#p764326c770)" d="M 759.2508 126.24645 
L 776.4372 126.24645 
" style="fill:none;stroke:#000000;stroke-linecap:square;"/>
   </g>
   <g id="line2d_83">
    <path clip-path="url(#p764326c770)" d="M 759.2508 109.5912 
L 776.4372 109.5912 
" style="fill:none;stroke:#000000;stroke-linecap:square;"/>
   </g>
   <g id="line2d_84">
    <path clip-path="url(#p764326c770)" d="M 922.5216 550.531128 
L 956.8944 550.531128 
L 956.8944 546.362855 
L 922.5216 546.362855 
L 922.5216 550.531128 
" style="fill:none;stroke:#000000;stroke-linecap:square;"/>
   </g>
   <g id="line2d_85">
    <path clip-path="url(#p764326c770)" d="M 939.708 550.531128 
L 939.708 550.931043 
" style="fill:none;stroke:#000000;stroke-linecap:square;"/>
   </g>
   <g id="line2d_86">
    <path clip-path="url(#p764326c770)" d="M 939.708 546.362855 
L 939.708 545.096586 
" style="fill:none;stroke:#000000;stroke-linecap:square;"/>
   </g>
   <g id="line2d_87">
    <path clip-path="url(#p764326c770)" d="M 931.1148 550.931043 
L 948.3012 550.931043 
" style="fill:none;stroke:#000000;stroke-linecap:square;"/>
   </g>
   <g id="line2d_88">
    <path clip-path="url(#p764326c770)" d="M 931.1148 545.096586 
L 948.3012 545.096586 
" style="fill:none;stroke:#000000;stroke-linecap:square;"/>
   </g>
   <g id="line2d_89">
    <path clip-path="url(#p764326c770)" d="M 1094.3856 290.293287 
L 1128.7584 290.293287 
L 1128.7584 271.113066 
L 1094.3856 271.113066 
L 1094.3856 290.293287 
" style="fill:none;stroke:#000000;stroke-linecap:square;"/>
   </g>
   <g id="line2d_90">
    <path clip-path="url(#p764326c770)" d="M 1111.572 290.293287 
L 1111.572 299.177654 
" style="fill:none;stroke:#000000;stroke-linecap:square;"/>
   </g>
   <g id="line2d_91">
    <path clip-path="url(#p764326c770)" d="M 1111.572 271.113066 
L 1111.572 266.793497 
" style="fill:none;stroke:#000000;stroke-linecap:square;"/>
   </g>
   <g id="line2d_92">
    <path clip-path="url(#p764326c770)" d="M 1102.9788 299.177654 
L 1120.1652 299.177654 
" style="fill:none;stroke:#000000;stroke-linecap:square;"/>
   </g>
   <g id="line2d_93">
    <path clip-path="url(#p764326c770)" d="M 1102.9788 266.793497 
L 1120.1652 266.793497 
" style="fill:none;stroke:#000000;stroke-linecap:square;"/>
   </g>
   <g id="line2d_94">
    <path clip-path="url(#p764326c770)" d="M 252.252 604.505163 
L 424.116 602.904267 
L 595.98 588.276973 
L 767.844 364.198729 
" style="fill:none;stroke:#ff0000;stroke-linecap:square;stroke-width:1.5;"/>
   </g>
   <g id="line2d_95">
    <path clip-path="url(#p764326c770)" d="M 252.252 604.404756 
L 424.116 604.259385 
L 595.98 602.861335 
L 767.844 595.041487 
L 939.708 547.299173 
L 1111.572 281.728124 
" style="fill:none;stroke:#0000ff;stroke-linecap:square;stroke-width:1.5;"/>
   </g>
   <g id="line2d_96">
    <path clip-path="url(#p764326c770)" d="M 252.252 603.585976 
L 424.116 598.936209 
L 595.98 550.921799 
L 767.844 118.437287 
" style="fill:none;stroke:#008000;stroke-linecap:square;stroke-width:1.5;"/>
   </g>
   <g id="line2d_97">
    <path clip-path="url(#p764326c770)" d="M 235.0656 604.404756 
L 269.4384 604.404756 
" style="fill:none;stroke:#ff7f0e;stroke-linecap:square;"/>
   </g>
   <g id="line2d_98">
    <path clip-path="url(#p764326c770)" d="M 235.0656 604.505163 
L 269.4384 604.505163 
" style="fill:none;stroke:#ff7f0e;stroke-linecap:square;"/>
   </g>
   <g id="line2d_99">
    <path clip-path="url(#p764326c770)" d="M 235.0656 603.585976 
L 269.4384 603.585976 
" style="fill:none;stroke:#ff7f0e;stroke-linecap:square;"/>
   </g>
   <g id="line2d_100">
    <path clip-path="url(#p764326c770)" d="M 406.9296 604.259385 
L 441.3024 604.259385 
" style="fill:none;stroke:#ff7f0e;stroke-linecap:square;"/>
   </g>
   <g id="line2d_101">
    <path clip-path="url(#p764326c770)" d="M 406.9296 602.904267 
L 441.3024 602.904267 
" style="fill:none;stroke:#ff7f0e;stroke-linecap:square;"/>
   </g>
   <g id="line2d_102">
    <path clip-path="url(#p764326c770)" d="M 406.9296 598.936209 
L 441.3024 598.936209 
" style="fill:none;stroke:#ff7f0e;stroke-linecap:square;"/>
   </g>
   <g id="line2d_103">
    <path clip-path="url(#p764326c770)" d="M 578.7936 602.861335 
L 613.1664 602.861335 
" style="fill:none;stroke:#ff7f0e;stroke-linecap:square;"/>
   </g>
   <g id="line2d_104">
    <path clip-path="url(#p764326c770)" d="M 578.7936 588.276973 
L 613.1664 588.276973 
" style="fill:none;stroke:#ff7f0e;stroke-linecap:square;"/>
   </g>
   <g id="line2d_105">
    <path clip-path="url(#p764326c770)" d="M 578.7936 550.921799 
L 613.1664 550.921799 
" style="fill:none;stroke:#ff7f0e;stroke-linecap:square;"/>
   </g>
   <g id="line2d_106">
    <path clip-path="url(#p764326c770)" d="M 750.6576 595.041487 
L 785.0304 595.041487 
" style="fill:none;stroke:#ff7f0e;stroke-linecap:square;"/>
   </g>
   <g id="line2d_107">
    <path clip-path="url(#p764326c770)" d="M 750.6576 364.198729 
L 785.0304 364.198729 
" style="fill:none;stroke:#ff7f0e;stroke-linecap:square;"/>
   </g>
   <g id="line2d_108">
    <path clip-path="url(#p764326c770)" d="M 750.6576 118.437287 
L 785.0304 118.437287 
" style="fill:none;stroke:#ff7f0e;stroke-linecap:square;"/>
   </g>
   <g id="line2d_109">
    <path clip-path="url(#p764326c770)" d="M 922.5216 547.299173 
L 956.8944 547.299173 
" style="fill:none;stroke:#ff7f0e;stroke-linecap:square;"/>
   </g>
   <g id="line2d_110">
    <path clip-path="url(#p764326c770)" d="M 1094.3856 281.728124 
L 1128.7584 281.728124 
" style="fill:none;stroke:#ff7f0e;stroke-linecap:square;"/>
   </g>
   <g id="patch_3">
    <path d="M 166.32 629.2656 
L 166.32 84.8448 
" style="fill:none;stroke:#000000;stroke-linecap:square;stroke-linejoin:miter;stroke-width:0.8;"/>
   </g>
   <g id="patch_4">
    <path d="M 1197.504 629.2656 
L 1197.504 84.8448 
" style="fill:none;stroke:#000000;stroke-linecap:square;stroke-linejoin:miter;stroke-width:0.8;"/>
   </g>
   <g id="patch_5">
    <path d="M 166.32 629.2656 
L 1197.504 629.2656 
" style="fill:none;stroke:#000000;stroke-linecap:square;stroke-linejoin:miter;stroke-width:0.8;"/>
   </g>
   <g id="patch_6">
    <path d="M 166.32 84.8448 
L 1197.504 84.8448 
" style="fill:none;stroke:#000000;stroke-linecap:square;stroke-linejoin:miter;stroke-width:0.8;"/>
   </g>
   <g id="text_26">
    <!-- Run-time vs Dimension -->
    <g transform="translate(589.10325 43.0118)scale(0.16 -0.16)">
     <defs>
      <path d="M 2841 2188 
Q 3044 2119 3236 1894 
Q 3428 1669 3622 1275 
L 4263 0 
L 3584 0 
L 2988 1197 
Q 2756 1666 2539 1819 
Q 2322 1972 1947 1972 
L 1259 1972 
L 1259 0 
L 628 0 
L 628 4666 
L 2053 4666 
Q 2853 4666 3247 4331 
Q 3641 3997 3641 3322 
Q 3641 2881 3436 2590 
Q 3231 2300 2841 2188 
z
M 1259 4147 
L 1259 2491 
L 2053 2491 
Q 2509 2491 2742 2702 
Q 2975 2913 2975 3322 
Q 2975 3731 2742 3939 
Q 2509 4147 2053 4147 
L 1259 4147 
z
" id="DejaVuSans-52" transform="scale(0.015625)"/>
      <path d="M 544 1381 
L 544 3500 
L 1119 3500 
L 1119 1403 
Q 1119 906 1312 657 
Q 1506 409 1894 409 
Q 2359 409 2629 706 
Q 2900 1003 2900 1516 
L 2900 3500 
L 3475 3500 
L 3475 0 
L 2900 0 
L 2900 538 
Q 2691 219 2414 64 
Q 2138 -91 1772 -91 
Q 1169 -91 856 284 
Q 544 659 544 1381 
z
M 1991 3584 
L 1991 3584 
z
" id="DejaVuSans-75" transform="scale(0.015625)"/>
      <path d="M 313 2009 
L 1997 2009 
L 1997 1497 
L 313 1497 
L 313 2009 
z
" id="DejaVuSans-2d" transform="scale(0.015625)"/>
      <path d="M 1172 4494 
L 1172 3500 
L 2356 3500 
L 2356 3053 
L 1172 3053 
L 1172 1153 
Q 1172 725 1289 603 
Q 1406 481 1766 481 
L 2356 481 
L 2356 0 
L 1766 0 
Q 1100 0 847 248 
Q 594 497 594 1153 
L 594 3053 
L 172 3053 
L 172 3500 
L 594 3500 
L 594 4494 
L 1172 4494 
z
" id="DejaVuSans-74" transform="scale(0.015625)"/>
      <path d="M 191 3500 
L 800 3500 
L 1894 563 
L 2988 3500 
L 3597 3500 
L 2284 0 
L 1503 0 
L 191 3500 
z
" id="DejaVuSans-76" transform="scale(0.015625)"/>
     </defs>
     <use xlink:href="#DejaVuSans-52"/>
     <use x="64.982422" xlink:href="#DejaVuSans-75"/>
     <use x="128.361328" xlink:href="#DejaVuSans-6e"/>
     <use x="191.740234" xlink:href="#DejaVuSans-2d"/>
     <use x="227.824219" xlink:href="#DejaVuSans-74"/>
     <use x="267.033203" xlink:href="#DejaVuSans-69"/>
     <use x="294.816406" xlink:href="#DejaVuSans-6d"/>
     <use x="392.228516" xlink:href="#DejaVuSans-65"/>
     <use x="453.751953" xlink:href="#DejaVuSans-20"/>
     <use x="485.539062" xlink:href="#DejaVuSans-76"/>
     <use x="544.71875" xlink:href="#DejaVuSans-73"/>
     <use x="596.818359" xlink:href="#DejaVuSans-20"/>
     <use x="628.605469" xlink:href="#DejaVuSans-44"/>
     <use x="705.607422" xlink:href="#DejaVuSans-69"/>
     <use x="733.390625" xlink:href="#DejaVuSans-6d"/>
     <use x="830.802734" xlink:href="#DejaVuSans-65"/>
     <use x="892.326172" xlink:href="#DejaVuSans-6e"/>
     <use x="955.705078" xlink:href="#DejaVuSans-73"/>
     <use x="1007.804688" xlink:href="#DejaVuSans-69"/>
     <use x="1035.587891" xlink:href="#DejaVuSans-6f"/>
     <use x="1096.769531" xlink:href="#DejaVuSans-6e"/>
    </g>
    <!--  d-sphere of 100 points, radius=1, noise=0.1 -->
    <g transform="translate(501.55825 60.9283)scale(0.16 -0.16)">
     <defs>
      <path d="M 1159 525 
L 1159 -1331 
L 581 -1331 
L 581 3500 
L 1159 3500 
L 1159 2969 
Q 1341 3281 1617 3432 
Q 1894 3584 2278 3584 
Q 2916 3584 3314 3078 
Q 3713 2572 3713 1747 
Q 3713 922 3314 415 
Q 2916 -91 2278 -91 
Q 1894 -91 1617 61 
Q 1341 213 1159 525 
z
M 3116 1747 
Q 3116 2381 2855 2742 
Q 2594 3103 2138 3103 
Q 1681 3103 1420 2742 
Q 1159 2381 1159 1747 
Q 1159 1113 1420 752 
Q 1681 391 2138 391 
Q 2594 391 2855 752 
Q 3116 1113 3116 1747 
z
" id="DejaVuSans-70" transform="scale(0.015625)"/>
      <path d="M 3513 2113 
L 3513 0 
L 2938 0 
L 2938 2094 
Q 2938 2591 2744 2837 
Q 2550 3084 2163 3084 
Q 1697 3084 1428 2787 
Q 1159 2491 1159 1978 
L 1159 0 
L 581 0 
L 581 4863 
L 1159 4863 
L 1159 2956 
Q 1366 3272 1645 3428 
Q 1925 3584 2291 3584 
Q 2894 3584 3203 3211 
Q 3513 2838 3513 2113 
z
" id="DejaVuSans-68" transform="scale(0.015625)"/>
      <path d="M 2631 2963 
Q 2534 3019 2420 3045 
Q 2306 3072 2169 3072 
Q 1681 3072 1420 2755 
Q 1159 2438 1159 1844 
L 1159 0 
L 581 0 
L 581 3500 
L 1159 3500 
L 1159 2956 
Q 1341 3275 1631 3429 
Q 1922 3584 2338 3584 
Q 2397 3584 2469 3576 
Q 2541 3569 2628 3553 
L 2631 2963 
z
" id="DejaVuSans-72" transform="scale(0.015625)"/>
      <path d="M 2375 4863 
L 2375 4384 
L 1825 4384 
Q 1516 4384 1395 4259 
Q 1275 4134 1275 3809 
L 1275 3500 
L 2222 3500 
L 2222 3053 
L 1275 3053 
L 1275 0 
L 697 0 
L 697 3053 
L 147 3053 
L 147 3500 
L 697 3500 
L 697 3744 
Q 697 4328 969 4595 
Q 1241 4863 1831 4863 
L 2375 4863 
z
" id="DejaVuSans-66" transform="scale(0.015625)"/>
      <path d="M 750 794 
L 1409 794 
L 1409 256 
L 897 -744 
L 494 -744 
L 750 256 
L 750 794 
z
" id="DejaVuSans-2c" transform="scale(0.015625)"/>
      <path d="M 2194 1759 
Q 1497 1759 1228 1600 
Q 959 1441 959 1056 
Q 959 750 1161 570 
Q 1363 391 1709 391 
Q 2188 391 2477 730 
Q 2766 1069 2766 1631 
L 2766 1759 
L 2194 1759 
z
M 3341 1997 
L 3341 0 
L 2766 0 
L 2766 531 
Q 2569 213 2275 61 
Q 1981 -91 1556 -91 
Q 1019 -91 701 211 
Q 384 513 384 1019 
Q 384 1609 779 1909 
Q 1175 2209 1959 2209 
L 2766 2209 
L 2766 2266 
Q 2766 2663 2505 2880 
Q 2244 3097 1772 3097 
Q 1472 3097 1187 3025 
Q 903 2953 641 2809 
L 641 3341 
Q 956 3463 1253 3523 
Q 1550 3584 1831 3584 
Q 2591 3584 2966 3190 
Q 3341 2797 3341 1997 
z
" id="DejaVuSans-61" transform="scale(0.015625)"/>
      <path d="M 678 2906 
L 4684 2906 
L 4684 2381 
L 678 2381 
L 678 2906 
z
M 678 1631 
L 4684 1631 
L 4684 1100 
L 678 1100 
L 678 1631 
z
" id="DejaVuSans-3d" transform="scale(0.015625)"/>
      <path d="M 684 794 
L 1344 794 
L 1344 0 
L 684 0 
L 684 794 
z
" id="DejaVuSans-2e" transform="scale(0.015625)"/>
     </defs>
     <use xlink:href="#DejaVuSans-20"/>
     <use x="31.787109" xlink:href="#DejaVuSans-64"/>
     <use x="95.263672" xlink:href="#DejaVuSans-2d"/>
     <use x="131.347656" xlink:href="#DejaVuSans-73"/>
     <use x="183.447266" xlink:href="#DejaVuSans-70"/>
     <use x="246.923828" xlink:href="#DejaVuSans-68"/>
     <use x="310.302734" xlink:href="#DejaVuSans-65"/>
     <use x="371.826172" xlink:href="#DejaVuSans-72"/>
     <use x="410.689453" xlink:href="#DejaVuSans-65"/>
     <use x="472.212891" xlink:href="#DejaVuSans-20"/>
     <use x="504" xlink:href="#DejaVuSans-6f"/>
     <use x="565.181641" xlink:href="#DejaVuSans-66"/>
     <use x="600.386719" xlink:href="#DejaVuSans-20"/>
     <use x="632.173828" xlink:href="#DejaVuSans-31"/>
     <use x="695.796875" xlink:href="#DejaVuSans-30"/>
     <use x="759.419922" xlink:href="#DejaVuSans-30"/>
     <use x="823.042969" xlink:href="#DejaVuSans-20"/>
     <use x="854.830078" xlink:href="#DejaVuSans-70"/>
     <use x="918.306641" xlink:href="#DejaVuSans-6f"/>
     <use x="979.488281" xlink:href="#DejaVuSans-69"/>
     <use x="1007.271484" xlink:href="#DejaVuSans-6e"/>
     <use x="1070.650391" xlink:href="#DejaVuSans-74"/>
     <use x="1109.859375" xlink:href="#DejaVuSans-73"/>
     <use x="1161.958984" xlink:href="#DejaVuSans-2c"/>
     <use x="1193.746094" xlink:href="#DejaVuSans-20"/>
     <use x="1225.533203" xlink:href="#DejaVuSans-72"/>
     <use x="1266.646484" xlink:href="#DejaVuSans-61"/>
     <use x="1327.925781" xlink:href="#DejaVuSans-64"/>
     <use x="1391.402344" xlink:href="#DejaVuSans-69"/>
     <use x="1419.185547" xlink:href="#DejaVuSans-75"/>
     <use x="1482.564453" xlink:href="#DejaVuSans-73"/>
     <use x="1534.664062" xlink:href="#DejaVuSans-3d"/>
     <use x="1618.453125" xlink:href="#DejaVuSans-31"/>
     <use x="1682.076172" xlink:href="#DejaVuSans-2c"/>
     <use x="1713.863281" xlink:href="#DejaVuSans-20"/>
     <use x="1745.650391" xlink:href="#DejaVuSans-6e"/>
     <use x="1809.029297" xlink:href="#DejaVuSans-6f"/>
     <use x="1870.210938" xlink:href="#DejaVuSans-69"/>
     <use x="1897.994141" xlink:href="#DejaVuSans-73"/>
     <use x="1950.09375" xlink:href="#DejaVuSans-65"/>
     <use x="2011.617188" xlink:href="#DejaVuSans-3d"/>
     <use x="2095.40625" xlink:href="#DejaVuSans-30"/>
     <use x="2159.029297" xlink:href="#DejaVuSans-2e"/>
     <use x="2190.816406" xlink:href="#DejaVuSans-31"/>
    </g>
    <!-- (Plot of medians of 10 trials) -->
    <g transform="translate(568.18075 78.8448)scale(0.16 -0.16)">
     <defs>
      <path d="M 1259 4147 
L 1259 2394 
L 2053 2394 
Q 2494 2394 2734 2622 
Q 2975 2850 2975 3272 
Q 2975 3691 2734 3919 
Q 2494 4147 2053 4147 
L 1259 4147 
z
M 628 4666 
L 2053 4666 
Q 2838 4666 3239 4311 
Q 3641 3956 3641 3272 
Q 3641 2581 3239 2228 
Q 2838 1875 2053 1875 
L 1259 1875 
L 1259 0 
L 628 0 
L 628 4666 
z
" id="DejaVuSans-50" transform="scale(0.015625)"/>
      <path d="M 603 4863 
L 1178 4863 
L 1178 0 
L 603 0 
L 603 4863 
z
" id="DejaVuSans-6c" transform="scale(0.015625)"/>
     </defs>
     <use xlink:href="#DejaVuSans-28"/>
     <use x="39.013672" xlink:href="#DejaVuSans-50"/>
     <use x="99.316406" xlink:href="#DejaVuSans-6c"/>
     <use x="127.099609" xlink:href="#DejaVuSans-6f"/>
     <use x="188.28125" xlink:href="#DejaVuSans-74"/>
     <use x="227.490234" xlink:href="#DejaVuSans-20"/>
     <use x="259.277344" xlink:href="#DejaVuSans-6f"/>
     <use x="320.458984" xlink:href="#DejaVuSans-66"/>
     <use x="355.664062" xlink:href="#DejaVuSans-20"/>
     <use x="387.451172" xlink:href="#DejaVuSans-6d"/>
     <use x="484.863281" xlink:href="#DejaVuSans-65"/>
     <use x="546.386719" xlink:href="#DejaVuSans-64"/>
     <use x="609.863281" xlink:href="#DejaVuSans-69"/>
     <use x="637.646484" xlink:href="#DejaVuSans-61"/>
     <use x="698.925781" xlink:href="#DejaVuSans-6e"/>
     <use x="762.304688" xlink:href="#DejaVuSans-73"/>
     <use x="814.404297" xlink:href="#DejaVuSans-20"/>
     <use x="846.191406" xlink:href="#DejaVuSans-6f"/>
     <use x="907.373047" xlink:href="#DejaVuSans-66"/>
     <use x="942.578125" xlink:href="#DejaVuSans-20"/>
     <use x="974.365234" xlink:href="#DejaVuSans-31"/>
     <use x="1037.988281" xlink:href="#DejaVuSans-30"/>
     <use x="1101.611328" xlink:href="#DejaVuSans-20"/>
     <use x="1133.398438" xlink:href="#DejaVuSans-74"/>
     <use x="1172.607422" xlink:href="#DejaVuSans-72"/>
     <use x="1213.720703" xlink:href="#DejaVuSans-69"/>
     <use x="1241.503906" xlink:href="#DejaVuSans-61"/>
     <use x="1302.783203" xlink:href="#DejaVuSans-6c"/>
     <use x="1330.566406" xlink:href="#DejaVuSans-73"/>
     <use x="1382.666016" xlink:href="#DejaVuSans-29"/>
    </g>
   </g>
   <g id="legend_1">
    <g id="patch_7">
     <path d="M 1084.771187 157.692925 
L 1187.704 157.692925 
Q 1190.504 157.692925 1190.504 154.892925 
L 1190.504 94.6448 
Q 1190.504 91.8448 1187.704 91.8448 
L 1084.771187 91.8448 
Q 1081.971188 91.8448 1081.971188 94.6448 
L 1081.971188 154.892925 
Q 1081.971188 157.692925 1084.771187 157.692925 
z
" style="fill:#ffffff;opacity:0.8;stroke:#cccccc;stroke-linejoin:miter;"/>
    </g>
    <g id="line2d_111">
     <path d="M 1087.571187 103.182612 
L 1115.571187 103.182612 
" style="fill:none;stroke:#ff0000;stroke-linecap:square;stroke-width:1.5;"/>
    </g>
    <g id="line2d_112"/>
    <g id="text_27">
     <!-- Rips -->
     <g transform="translate(1126.771187 108.082612)scale(0.14 -0.14)">
      <use xlink:href="#DejaVuSans-52"/>
      <use x="69.482422" xlink:href="#DejaVuSans-69"/>
      <use x="97.265625" xlink:href="#DejaVuSans-70"/>
      <use x="160.742188" xlink:href="#DejaVuSans-73"/>
     </g>
    </g>
    <g id="line2d_113">
     <path d="M 1087.571187 123.731987 
L 1115.571187 123.731987 
" style="fill:none;stroke:#0000ff;stroke-linecap:square;stroke-width:1.5;"/>
    </g>
    <g id="line2d_114"/>
    <g id="text_28">
     <!-- Del-Rips -->
     <g transform="translate(1126.771187 128.631987)scale(0.14 -0.14)">
      <use xlink:href="#DejaVuSans-44"/>
      <use x="77.001953" xlink:href="#DejaVuSans-65"/>
      <use x="138.525391" xlink:href="#DejaVuSans-6c"/>
      <use x="166.308594" xlink:href="#DejaVuSans-2d"/>
      <use x="202.392578" xlink:href="#DejaVuSans-52"/>
      <use x="271.875" xlink:href="#DejaVuSans-69"/>
      <use x="299.658203" xlink:href="#DejaVuSans-70"/>
      <use x="363.134766" xlink:href="#DejaVuSans-73"/>
     </g>
    </g>
    <g id="line2d_115">
     <path d="M 1087.571187 144.281362 
L 1115.571187 144.281362 
" style="fill:none;stroke:#008000;stroke-linecap:square;stroke-width:1.5;"/>
    </g>
    <g id="line2d_116"/>
    <g id="text_29">
     <!-- Alpha -->
     <g transform="translate(1126.771187 149.181362)scale(0.14 -0.14)">
      <defs>
       <path d="M 2188 4044 
L 1331 1722 
L 3047 1722 
L 2188 4044 
z
M 1831 4666 
L 2547 4666 
L 4325 0 
L 3669 0 
L 3244 1197 
L 1141 1197 
L 716 0 
L 50 0 
L 1831 4666 
z
" id="DejaVuSans-41" transform="scale(0.015625)"/>
      </defs>
      <use xlink:href="#DejaVuSans-41"/>
      <use x="68.408203" xlink:href="#DejaVuSans-6c"/>
      <use x="96.191406" xlink:href="#DejaVuSans-70"/>
      <use x="159.667969" xlink:href="#DejaVuSans-68"/>
      <use x="223.046875" xlink:href="#DejaVuSans-61"/>
     </g>
    </g>
   </g>
  </g>
 </g>
 <defs>
  <clipPath id="p764326c770">
   <rect height="544.4208" width="1031.184" x="166.32" y="84.8448"/>
  </clipPath>
 </defs>
</svg>
