<?xml version="1.0" encoding="utf-8" standalone="no"?>
<!DOCTYPE svg PUBLIC "-//W3C//DTD SVG 1.1//EN"
  "http://www.w3.org/Graphics/SVG/1.1/DTD/svg11.dtd">
<!-- Created with matplotlib (https://matplotlib.org/) -->
<svg height="345.6pt" version="1.1" viewBox="0 0 460.8 345.6" width="460.8pt" xmlns="http://www.w3.org/2000/svg" xmlns:xlink="http://www.w3.org/1999/xlink">
 <defs>
  <style type="text/css">
*{stroke-linecap:butt;stroke-linejoin:round;}
  </style>
 </defs>
 <g id="figure_1">
  <g id="patch_1">
   <path d="M 0 345.6 
L 460.8 345.6 
L 460.8 0 
L 0 0 
z
" style="fill:#ffffff;"/>
  </g>
  <g id="axes_1">
   <g id="patch_2">
    <path d="M 99.676991 307.584 
L 372.643009 307.584 
L 372.643009 41.472 
L 99.676991 41.472 
z
" style="fill:#ffffff;"/>
   </g>
   <g id="line2d_1">
    <path clip-path="url(#pce23104c09)" d="M 124.847865 123.186512 
L 130.923776 117.645709 
M 117.587153 119.558396 
L 130.923776 117.645709 
M 117.587153 119.558396 
L 124.847865 123.186512 
M 119.678697 144.860213 
L 117.587153 119.558396 
M 140.599102 110.906931 
L 130.923776 117.645709 
M 124.06496 210.514231 
L 123.786057 197.472155 
M 289.257195 89.242821 
L 301.512196 89.613986 
M 319.064951 89.281095 
L 301.512196 89.613986 
M 126.550246 195.736923 
L 123.786057 197.472155 
M 207.948483 70.060976 
L 203.760932 54.856097 
M 336.97813 249.116872 
L 300.395684 257.439213 
M 174.191967 80.099794 
L 165.009595 134.355615 
M 114.69687 105.456242 
L 130.923776 117.645709 
M 114.69687 105.456242 
L 117.587153 119.558396 
M 114.69687 105.456242 
L 203.760932 54.856097 
M 216.628004 75.528026 
L 165.009595 134.355615 
M 216.628004 75.528026 
L 223.875992 69.112265 
M 216.628004 75.528026 
L 207.948483 70.060976 
M 133.839992 105.572064 
L 130.923776 117.645709 
M 133.839992 105.572064 
L 140.599102 110.906931 
M 133.839992 105.572064 
L 114.69687 105.456242 
M 218.649045 53.568 
L 203.760932 54.856097 
M 218.649045 53.568 
L 223.875992 69.112265 
M 218.649045 53.568 
L 207.948483 70.060976 
M 205.523779 73.354403 
L 203.760932 54.856097 
M 205.523779 73.354403 
L 165.009595 134.355615 
M 205.523779 73.354403 
L 207.948483 70.060976 
M 205.523779 73.354403 
L 174.191967 80.099794 
M 205.523779 73.354403 
L 216.628004 75.528026 
M 142.734054 146.082284 
L 119.678697 144.860213 
M 142.734054 146.082284 
L 165.009595 134.355615 
M 135.219914 200.500108 
L 123.786057 197.472155 
M 135.219914 200.500108 
L 124.06496 210.514231 
M 135.219914 200.500108 
L 165.009595 134.355615 
M 135.219914 200.500108 
L 126.550246 195.736923 
M 135.219914 200.500108 
L 142.734054 146.082284 
M 147.087659 128.328753 
L 130.923776 117.645709 
M 147.087659 128.328753 
L 140.599102 110.906931 
M 147.087659 128.328753 
L 165.009595 134.355615 
M 126.777432 161.880452 
L 119.678697 144.860213 
M 126.777432 161.880452 
L 142.734054 146.082284 
M 300.592672 125.308167 
L 317.055054 130.689405 
M 300.592672 125.308167 
L 300.395684 257.439213 
M 300.592672 125.308167 
L 301.512196 89.613986 
M 300.592672 125.308167 
L 289.257195 89.242821 
M 300.592672 125.308167 
L 165.009595 134.355615 
M 188.043439 295.488 
L 159.870321 282.813814 
M 188.043439 295.488 
L 194.369962 280.665983 
M 328.252138 121.899224 
L 317.055054 130.689405 
M 328.252138 121.899224 
L 319.064951 89.281095 
M 360.235463 212.967101 
L 336.97813 249.116872 
M 360.235463 212.967101 
L 343.213705 206.70311 
M 201.661026 289.693045 
L 194.369962 280.665983 
M 201.661026 289.693045 
L 223.123826 277.739324 
M 201.661026 289.693045 
L 188.043439 295.488 
M 286.971161 76.571899 
L 289.257195 89.242821 
M 286.971161 76.571899 
L 319.064951 89.281095 
M 286.971161 76.571899 
L 218.649045 53.568 
M 176.719037 282.374946 
L 159.870321 282.813814 
M 176.719037 282.374946 
L 194.369962 280.665983 
M 176.719037 282.374946 
L 188.043439 295.488 
M 346.326977 227.19142 
L 336.97813 249.116872 
M 346.326977 227.19142 
L 343.213705 206.70311 
M 346.326977 227.19142 
L 360.235463 212.967101 
M 167.278331 240.13352 
L 165.009595 134.355615 
M 167.278331 240.13352 
L 135.219914 200.500108 
M 334.991614 222.957212 
L 300.395684 257.439213 
M 334.991614 222.957212 
L 336.97813 249.116872 
M 334.991614 222.957212 
L 343.213705 206.70311 
M 334.991614 222.957212 
L 346.326977 227.19142 
M 188.333812 266.342381 
L 194.369962 280.665983 
M 188.333812 266.342381 
L 176.719037 282.374946 
M 188.333812 266.342381 
L 167.278331 240.13352 
M 115.573264 151.933015 
L 117.587153 119.558396 
M 115.573264 151.933015 
L 119.678697 144.860213 
M 115.573264 151.933015 
L 114.69687 105.456242 
M 115.573264 151.933015 
L 126.777432 161.880452 
M 124.007059 177.408209 
L 126.550246 195.736923 
M 124.007059 177.408209 
L 142.734054 146.082284 
M 124.007059 177.408209 
L 135.219914 200.500108 
M 124.007059 177.408209 
L 126.777432 161.880452 
M 204.726029 273.87865 
L 194.369962 280.665983 
M 204.726029 273.87865 
L 223.123826 277.739324 
M 204.726029 273.87865 
L 167.278331 240.13352 
M 204.726029 273.87865 
L 188.333812 266.342381 
M 112.093176 188.273844 
L 123.786057 197.472155 
M 112.093176 188.273844 
L 126.550246 195.736923 
M 112.093176 188.273844 
L 114.69687 105.456242 
M 112.093176 188.273844 
L 115.573264 151.933015 
M 112.093176 188.273844 
L 124.007059 177.408209 
M 136.525864 242.90488 
L 159.870321 282.813814 
M 136.525864 242.90488 
L 167.278331 240.13352 
M 351.618108 154.897224 
L 317.055054 130.689405 
M 351.618108 154.897224 
L 319.064951 89.281095 
M 351.618108 154.897224 
L 328.252138 121.899224 
M 351.618108 154.897224 
L 360.235463 212.967101 
M 174.595105 77.549446 
L 203.760932 54.856097 
M 174.595105 77.549446 
L 174.191967 80.099794 
M 174.595105 77.549446 
L 114.69687 105.456242 
M 174.595105 77.549446 
L 205.523779 73.354403 
M 217.493214 71.808383 
L 223.875992 69.112265 
M 217.493214 71.808383 
L 207.948483 70.060976 
M 217.493214 71.808383 
L 216.628004 75.528026 
M 217.493214 71.808383 
L 218.649045 53.568 
M 112.084537 195.818206 
L 123.786057 197.472155 
M 112.084537 195.818206 
L 124.06496 210.514231 
M 112.084537 195.818206 
L 112.093176 188.273844 
M 112.084537 195.818206 
L 136.525864 242.90488 
M 333.716723 172.221795 
L 317.055054 130.689405 
M 333.716723 172.221795 
L 300.395684 257.439213 
M 333.716723 172.221795 
L 300.592672 125.308167 
M 333.716723 172.221795 
L 351.618108 154.897224 
M 144.739858 133.970256 
L 130.923776 117.645709 
M 144.739858 133.970256 
L 124.847865 123.186512 
M 144.739858 133.970256 
L 165.009595 134.355615 
M 144.739858 133.970256 
L 142.734054 146.082284 
M 144.739858 133.970256 
L 147.087659 128.328753 
M 131.340144 230.286539 
L 124.06496 210.514231 
M 131.340144 230.286539 
L 136.525864 242.90488 
M 131.340144 230.286539 
L 112.084537 195.818206 
M 121.51451 141.410064 
L 124.847865 123.186512 
M 121.51451 141.410064 
L 117.587153 119.558396 
M 121.51451 141.410064 
L 119.678697 144.860213 
M 121.51451 141.410064 
L 142.734054 146.082284 
M 121.51451 141.410064 
L 144.739858 133.970256 
M 235.057566 69.63993 
L 223.875992 69.112265 
M 235.057566 69.63993 
L 218.649045 53.568 
M 235.057566 69.63993 
L 286.971161 76.571899 
M 287.366655 76.797588 
L 301.512196 89.613986 
M 287.366655 76.797588 
L 289.257195 89.242821 
M 287.366655 76.797588 
L 319.064951 89.281095 
M 287.366655 76.797588 
L 286.971161 76.571899 
M 153.684122 256.372321 
L 159.870321 282.813814 
M 153.684122 256.372321 
L 176.719037 282.374946 
M 153.684122 256.372321 
L 188.333812 266.342381 
M 153.684122 256.372321 
L 136.525864 242.90488 
M 158.992517 249.456971 
L 167.278331 240.13352 
M 158.992517 249.456971 
L 188.333812 266.342381 
M 158.992517 249.456971 
L 136.525864 242.90488 
M 158.992517 249.456971 
L 153.684122 256.372321 
M 306.385223 274.838812 
L 300.395684 257.439213 
M 306.385223 274.838812 
L 336.97813 249.116872 
M 306.385223 274.838812 
L 188.043439 295.488 
M 306.385223 274.838812 
L 201.661026 289.693045 
M 233.257218 75.33535 
L 289.257195 89.242821 
M 233.257218 75.33535 
L 165.009595 134.355615 
M 233.257218 75.33535 
L 223.875992 69.112265 
M 233.257218 75.33535 
L 216.628004 75.528026 
M 233.257218 75.33535 
L 300.592672 125.308167 
M 233.257218 75.33535 
L 286.971161 76.571899 
M 233.257218 75.33535 
L 235.057566 69.63993 
M 336.639817 185.781705 
L 300.395684 257.439213 
M 336.639817 185.781705 
L 343.213705 206.70311 
M 336.639817 185.781705 
L 360.235463 212.967101 
M 336.639817 185.781705 
L 334.991614 222.957212 
M 336.639817 185.781705 
L 351.618108 154.897224 
M 336.639817 185.781705 
L 333.716723 172.221795 
M 140.570241 218.957099 
L 124.06496 210.514231 
M 140.570241 218.957099 
L 135.219914 200.500108 
M 140.570241 218.957099 
L 167.278331 240.13352 
M 140.570241 218.957099 
L 136.525864 242.90488 
M 140.570241 218.957099 
L 131.340144 230.286539 
M 147.198564 101.71173 
L 140.599102 110.906931 
M 147.198564 101.71173 
L 165.009595 134.355615 
M 147.198564 101.71173 
L 174.191967 80.099794 
M 147.198564 101.71173 
L 114.69687 105.456242 
M 147.198564 101.71173 
L 133.839992 105.572064 
M 147.198564 101.71173 
L 147.087659 128.328753 
M 147.198564 101.71173 
L 174.595105 77.549446 
M 206.370329 282.81103 
L 194.369962 280.665983 
M 206.370329 282.81103 
L 223.123826 277.739324 
M 206.370329 282.81103 
L 201.661026 289.693045 
M 206.370329 282.81103 
L 204.726029 273.87865 
M 318.251225 116.200415 
L 317.055054 130.689405 
M 318.251225 116.200415 
L 301.512196 89.613986 
M 318.251225 116.200415 
L 319.064951 89.281095 
M 318.251225 116.200415 
L 300.592672 125.308167 
M 318.251225 116.200415 
L 328.252138 121.899224 
M 299.214963 266.836806 
L 300.395684 257.439213 
M 299.214963 266.836806 
L 306.385223 274.838812 
M 248.045742 272.570253 
L 300.395684 257.439213 
M 248.045742 272.570253 
L 165.009595 134.355615 
M 248.045742 272.570253 
L 223.123826 277.739324 
M 248.045742 272.570253 
L 300.592672 125.308167 
M 248.045742 272.570253 
L 201.661026 289.693045 
M 248.045742 272.570253 
L 167.278331 240.13352 
M 248.045742 272.570253 
L 204.726029 273.87865 
M 248.045742 272.570253 
L 306.385223 274.838812 
M 248.045742 272.570253 
L 299.214963 266.836806 
M 120.019034 175.938299 
L 126.777432 161.880452 
M 120.019034 175.938299 
L 115.573264 151.933015 
M 120.019034 175.938299 
L 124.007059 177.408209 
M 120.019034 175.938299 
L 112.093176 188.273844 
L 112.093176 188.273844 
" style="fill:none;stroke:#1f77b4;stroke-linecap:square;stroke-width:1.5;"/>
   </g>
   <g id="matplotlib.axis_1">
    <g id="xtick_1">
     <g id="line2d_2">
      <defs>
       <path d="M 0 0 
L 0 3.5 
" id="m9e4b776e64" style="stroke:#000000;stroke-width:0.8;"/>
      </defs>
      <g>
       <use style="stroke:#000000;stroke-width:0.8;" x="121.585701" xlink:href="#m9e4b776e64" y="307.584"/>
      </g>
     </g>
     <g id="text_1">
      <!-- −1.0 -->
      <defs>
       <path d="M 10.59375 35.5 
L 73.1875 35.5 
L 73.1875 27.203125 
L 10.59375 27.203125 
z
" id="DejaVuSans-8722"/>
       <path d="M 12.40625 8.296875 
L 28.515625 8.296875 
L 28.515625 63.921875 
L 10.984375 60.40625 
L 10.984375 69.390625 
L 28.421875 72.90625 
L 38.28125 72.90625 
L 38.28125 8.296875 
L 54.390625 8.296875 
L 54.390625 0 
L 12.40625 0 
z
" id="DejaVuSans-49"/>
       <path d="M 10.6875 12.40625 
L 21 12.40625 
L 21 0 
L 10.6875 0 
z
" id="DejaVuSans-46"/>
       <path d="M 31.78125 66.40625 
Q 24.171875 66.40625 20.328125 58.90625 
Q 16.5 51.421875 16.5 36.375 
Q 16.5 21.390625 20.328125 13.890625 
Q 24.171875 6.390625 31.78125 6.390625 
Q 39.453125 6.390625 43.28125 13.890625 
Q 47.125 21.390625 47.125 36.375 
Q 47.125 51.421875 43.28125 58.90625 
Q 39.453125 66.40625 31.78125 66.40625 
z
M 31.78125 74.21875 
Q 44.046875 74.21875 50.515625 64.515625 
Q 56.984375 54.828125 56.984375 36.375 
Q 56.984375 17.96875 50.515625 8.265625 
Q 44.046875 -1.421875 31.78125 -1.421875 
Q 19.53125 -1.421875 13.0625 8.265625 
Q 6.59375 17.96875 6.59375 36.375 
Q 6.59375 54.828125 13.0625 64.515625 
Q 19.53125 74.21875 31.78125 74.21875 
z
" id="DejaVuSans-48"/>
      </defs>
      <g transform="translate(109.444295 322.182437)scale(0.1 -0.1)">
       <use xlink:href="#DejaVuSans-8722"/>
       <use x="83.789062" xlink:href="#DejaVuSans-49"/>
       <use x="147.412109" xlink:href="#DejaVuSans-46"/>
       <use x="179.199219" xlink:href="#DejaVuSans-48"/>
      </g>
     </g>
    </g>
    <g id="xtick_2">
     <g id="line2d_3">
      <g>
       <use style="stroke:#000000;stroke-width:0.8;" x="175.707716" xlink:href="#m9e4b776e64" y="307.584"/>
      </g>
     </g>
     <g id="text_2">
      <!-- −0.5 -->
      <defs>
       <path d="M 10.796875 72.90625 
L 49.515625 72.90625 
L 49.515625 64.59375 
L 19.828125 64.59375 
L 19.828125 46.734375 
Q 21.96875 47.46875 24.109375 47.828125 
Q 26.265625 48.1875 28.421875 48.1875 
Q 40.625 48.1875 47.75 41.5 
Q 54.890625 34.8125 54.890625 23.390625 
Q 54.890625 11.625 47.5625 5.09375 
Q 40.234375 -1.421875 26.90625 -1.421875 
Q 22.3125 -1.421875 17.546875 -0.640625 
Q 12.796875 0.140625 7.71875 1.703125 
L 7.71875 11.625 
Q 12.109375 9.234375 16.796875 8.0625 
Q 21.484375 6.890625 26.703125 6.890625 
Q 35.15625 6.890625 40.078125 11.328125 
Q 45.015625 15.765625 45.015625 23.390625 
Q 45.015625 31 40.078125 35.4375 
Q 35.15625 39.890625 26.703125 39.890625 
Q 22.75 39.890625 18.8125 39.015625 
Q 14.890625 38.140625 10.796875 36.28125 
z
" id="DejaVuSans-53"/>
      </defs>
      <g transform="translate(163.56631 322.182437)scale(0.1 -0.1)">
       <use xlink:href="#DejaVuSans-8722"/>
       <use x="83.789062" xlink:href="#DejaVuSans-48"/>
       <use x="147.412109" xlink:href="#DejaVuSans-46"/>
       <use x="179.199219" xlink:href="#DejaVuSans-53"/>
      </g>
     </g>
    </g>
    <g id="xtick_3">
     <g id="line2d_4">
      <g>
       <use style="stroke:#000000;stroke-width:0.8;" x="229.829731" xlink:href="#m9e4b776e64" y="307.584"/>
      </g>
     </g>
     <g id="text_3">
      <!-- 0.0 -->
      <g transform="translate(221.878169 322.182437)scale(0.1 -0.1)">
       <use xlink:href="#DejaVuSans-48"/>
       <use x="63.623047" xlink:href="#DejaVuSans-46"/>
       <use x="95.410156" xlink:href="#DejaVuSans-48"/>
      </g>
     </g>
    </g>
    <g id="xtick_4">
     <g id="line2d_5">
      <g>
       <use style="stroke:#000000;stroke-width:0.8;" x="283.951746" xlink:href="#m9e4b776e64" y="307.584"/>
      </g>
     </g>
     <g id="text_4">
      <!-- 0.5 -->
      <g transform="translate(276.000184 322.182437)scale(0.1 -0.1)">
       <use xlink:href="#DejaVuSans-48"/>
       <use x="63.623047" xlink:href="#DejaVuSans-46"/>
       <use x="95.410156" xlink:href="#DejaVuSans-53"/>
      </g>
     </g>
    </g>
    <g id="xtick_5">
     <g id="line2d_6">
      <g>
       <use style="stroke:#000000;stroke-width:0.8;" x="338.073761" xlink:href="#m9e4b776e64" y="307.584"/>
      </g>
     </g>
     <g id="text_5">
      <!-- 1.0 -->
      <g transform="translate(330.122199 322.182437)scale(0.1 -0.1)">
       <use xlink:href="#DejaVuSans-49"/>
       <use x="63.623047" xlink:href="#DejaVuSans-46"/>
       <use x="95.410156" xlink:href="#DejaVuSans-48"/>
      </g>
     </g>
    </g>
   </g>
   <g id="matplotlib.axis_2">
    <g id="ytick_1">
     <g id="line2d_7">
      <defs>
       <path d="M 0 0 
L -3.5 0 
" id="m453aea2a6a" style="stroke:#000000;stroke-width:0.8;"/>
      </defs>
      <g>
       <use style="stroke:#000000;stroke-width:0.8;" x="99.676991" xlink:href="#m453aea2a6a" y="282.54596"/>
      </g>
     </g>
     <g id="text_6">
      <!-- −1.0 -->
      <g transform="translate(68.394178 286.345179)scale(0.1 -0.1)">
       <use xlink:href="#DejaVuSans-8722"/>
       <use x="83.789062" xlink:href="#DejaVuSans-49"/>
       <use x="147.412109" xlink:href="#DejaVuSans-46"/>
       <use x="179.199219" xlink:href="#DejaVuSans-48"/>
      </g>
     </g>
    </g>
    <g id="ytick_2">
     <g id="line2d_8">
      <g>
       <use style="stroke:#000000;stroke-width:0.8;" x="99.676991" xlink:href="#m453aea2a6a" y="228.423945"/>
      </g>
     </g>
     <g id="text_7">
      <!-- −0.5 -->
      <g transform="translate(68.394178 232.223164)scale(0.1 -0.1)">
       <use xlink:href="#DejaVuSans-8722"/>
       <use x="83.789062" xlink:href="#DejaVuSans-48"/>
       <use x="147.412109" xlink:href="#DejaVuSans-46"/>
       <use x="179.199219" xlink:href="#DejaVuSans-53"/>
      </g>
     </g>
    </g>
    <g id="ytick_3">
     <g id="line2d_9">
      <g>
       <use style="stroke:#000000;stroke-width:0.8;" x="99.676991" xlink:href="#m453aea2a6a" y="174.30193"/>
      </g>
     </g>
     <g id="text_8">
      <!-- 0.0 -->
      <g transform="translate(76.773866 178.101149)scale(0.1 -0.1)">
       <use xlink:href="#DejaVuSans-48"/>
       <use x="63.623047" xlink:href="#DejaVuSans-46"/>
       <use x="95.410156" xlink:href="#DejaVuSans-48"/>
      </g>
     </g>
    </g>
    <g id="ytick_4">
     <g id="line2d_10">
      <g>
       <use style="stroke:#000000;stroke-width:0.8;" x="99.676991" xlink:href="#m453aea2a6a" y="120.179915"/>
      </g>
     </g>
     <g id="text_9">
      <!-- 0.5 -->
      <g transform="translate(76.773866 123.979134)scale(0.1 -0.1)">
       <use xlink:href="#DejaVuSans-48"/>
       <use x="63.623047" xlink:href="#DejaVuSans-46"/>
       <use x="95.410156" xlink:href="#DejaVuSans-53"/>
      </g>
     </g>
    </g>
    <g id="ytick_5">
     <g id="line2d_11">
      <g>
       <use style="stroke:#000000;stroke-width:0.8;" x="99.676991" xlink:href="#m453aea2a6a" y="66.0579"/>
      </g>
     </g>
     <g id="text_10">
      <!-- 1.0 -->
      <g transform="translate(76.773866 69.857119)scale(0.1 -0.1)">
       <use xlink:href="#DejaVuSans-49"/>
       <use x="63.623047" xlink:href="#DejaVuSans-46"/>
       <use x="95.410156" xlink:href="#DejaVuSans-48"/>
      </g>
     </g>
    </g>
   </g>
   <g id="line2d_12"/>
   <g id="line2d_13">
    <defs>
     <path d="M 0 3 
C 0.795609 3 1.55874 2.683901 2.12132 2.12132 
C 2.683901 1.55874 3 0.795609 3 0 
C 3 -0.795609 2.683901 -1.55874 2.12132 -2.12132 
C 1.55874 -2.683901 0.795609 -3 0 -3 
C -0.795609 -3 -1.55874 -2.683901 -2.12132 -2.12132 
C -2.683901 -1.55874 -3 -0.795609 -3 0 
C -3 0.795609 -2.683901 1.55874 -2.12132 2.12132 
C -1.55874 2.683901 -0.795609 3 0 3 
z
" id="m548483121b" style="stroke:#000000;"/>
    </defs>
    <g clip-path="url(#pce23104c09)">
     <use style="stroke:#000000;" x="123.786057" xlink:href="#m548483121b" y="197.472155"/>
     <use style="stroke:#000000;" x="130.923776" xlink:href="#m548483121b" y="117.645709"/>
     <use style="stroke:#000000;" x="317.055054" xlink:href="#m548483121b" y="130.689405"/>
     <use style="stroke:#000000;" x="124.847865" xlink:href="#m548483121b" y="123.186512"/>
     <use style="stroke:#000000;" x="300.395684" xlink:href="#m548483121b" y="257.439213"/>
     <use style="stroke:#000000;" x="159.870321" xlink:href="#m548483121b" y="282.813814"/>
     <use style="stroke:#000000;" x="117.587153" xlink:href="#m548483121b" y="119.558396"/>
     <use style="stroke:#000000;" x="194.369962" xlink:href="#m548483121b" y="280.665983"/>
     <use style="stroke:#000000;" x="119.678697" xlink:href="#m548483121b" y="144.860213"/>
     <use style="stroke:#000000;" x="140.599102" xlink:href="#m548483121b" y="110.906931"/>
     <use style="stroke:#000000;" x="301.512196" xlink:href="#m548483121b" y="89.613986"/>
     <use style="stroke:#000000;" x="203.760932" xlink:href="#m548483121b" y="54.856097"/>
     <use style="stroke:#000000;" x="124.06496" xlink:href="#m548483121b" y="210.514231"/>
     <use style="stroke:#000000;" x="289.257195" xlink:href="#m548483121b" y="89.242821"/>
     <use style="stroke:#000000;" x="165.009595" xlink:href="#m548483121b" y="134.355615"/>
     <use style="stroke:#000000;" x="319.064951" xlink:href="#m548483121b" y="89.281095"/>
     <use style="stroke:#000000;" x="126.550246" xlink:href="#m548483121b" y="195.736923"/>
     <use style="stroke:#000000;" x="223.875992" xlink:href="#m548483121b" y="69.112265"/>
     <use style="stroke:#000000;" x="207.948483" xlink:href="#m548483121b" y="70.060976"/>
     <use style="stroke:#000000;" x="336.97813" xlink:href="#m548483121b" y="249.116872"/>
     <use style="stroke:#000000;" x="174.191967" xlink:href="#m548483121b" y="80.099794"/>
     <use style="stroke:#000000;" x="223.123826" xlink:href="#m548483121b" y="277.739324"/>
     <use style="stroke:#000000;" x="114.69687" xlink:href="#m548483121b" y="105.456242"/>
     <use style="stroke:#000000;" x="216.628004" xlink:href="#m548483121b" y="75.528026"/>
     <use style="stroke:#000000;" x="133.839992" xlink:href="#m548483121b" y="105.572064"/>
     <use style="stroke:#000000;" x="218.649045" xlink:href="#m548483121b" y="53.568"/>
     <use style="stroke:#000000;" x="205.523779" xlink:href="#m548483121b" y="73.354403"/>
     <use style="stroke:#000000;" x="142.734054" xlink:href="#m548483121b" y="146.082284"/>
     <use style="stroke:#000000;" x="135.219914" xlink:href="#m548483121b" y="200.500108"/>
     <use style="stroke:#000000;" x="147.087659" xlink:href="#m548483121b" y="128.328753"/>
     <use style="stroke:#000000;" x="126.777432" xlink:href="#m548483121b" y="161.880452"/>
     <use style="stroke:#000000;" x="343.213705" xlink:href="#m548483121b" y="206.70311"/>
     <use style="stroke:#000000;" x="300.592672" xlink:href="#m548483121b" y="125.308167"/>
     <use style="stroke:#000000;" x="188.043439" xlink:href="#m548483121b" y="295.488"/>
     <use style="stroke:#000000;" x="328.252138" xlink:href="#m548483121b" y="121.899224"/>
     <use style="stroke:#000000;" x="360.235463" xlink:href="#m548483121b" y="212.967101"/>
     <use style="stroke:#000000;" x="201.661026" xlink:href="#m548483121b" y="289.693045"/>
     <use style="stroke:#000000;" x="286.971161" xlink:href="#m548483121b" y="76.571899"/>
     <use style="stroke:#000000;" x="176.719037" xlink:href="#m548483121b" y="282.374946"/>
     <use style="stroke:#000000;" x="346.326977" xlink:href="#m548483121b" y="227.19142"/>
     <use style="stroke:#000000;" x="167.278331" xlink:href="#m548483121b" y="240.13352"/>
     <use style="stroke:#000000;" x="334.991614" xlink:href="#m548483121b" y="222.957212"/>
     <use style="stroke:#000000;" x="188.333812" xlink:href="#m548483121b" y="266.342381"/>
     <use style="stroke:#000000;" x="115.573264" xlink:href="#m548483121b" y="151.933015"/>
     <use style="stroke:#000000;" x="124.007059" xlink:href="#m548483121b" y="177.408209"/>
     <use style="stroke:#000000;" x="204.726029" xlink:href="#m548483121b" y="273.87865"/>
     <use style="stroke:#000000;" x="112.093176" xlink:href="#m548483121b" y="188.273844"/>
     <use style="stroke:#000000;" x="136.525864" xlink:href="#m548483121b" y="242.90488"/>
     <use style="stroke:#000000;" x="351.618108" xlink:href="#m548483121b" y="154.897224"/>
     <use style="stroke:#000000;" x="174.595105" xlink:href="#m548483121b" y="77.549446"/>
     <use style="stroke:#000000;" x="217.493214" xlink:href="#m548483121b" y="71.808383"/>
     <use style="stroke:#000000;" x="112.084537" xlink:href="#m548483121b" y="195.818206"/>
     <use style="stroke:#000000;" x="333.716723" xlink:href="#m548483121b" y="172.221795"/>
     <use style="stroke:#000000;" x="144.739858" xlink:href="#m548483121b" y="133.970256"/>
     <use style="stroke:#000000;" x="131.340144" xlink:href="#m548483121b" y="230.286539"/>
     <use style="stroke:#000000;" x="121.51451" xlink:href="#m548483121b" y="141.410064"/>
     <use style="stroke:#000000;" x="235.057566" xlink:href="#m548483121b" y="69.63993"/>
     <use style="stroke:#000000;" x="287.366655" xlink:href="#m548483121b" y="76.797588"/>
     <use style="stroke:#000000;" x="153.684122" xlink:href="#m548483121b" y="256.372321"/>
     <use style="stroke:#000000;" x="158.992517" xlink:href="#m548483121b" y="249.456971"/>
     <use style="stroke:#000000;" x="306.385223" xlink:href="#m548483121b" y="274.838812"/>
     <use style="stroke:#000000;" x="233.257218" xlink:href="#m548483121b" y="75.33535"/>
     <use style="stroke:#000000;" x="336.639817" xlink:href="#m548483121b" y="185.781705"/>
     <use style="stroke:#000000;" x="140.570241" xlink:href="#m548483121b" y="218.957099"/>
     <use style="stroke:#000000;" x="147.198564" xlink:href="#m548483121b" y="101.71173"/>
     <use style="stroke:#000000;" x="206.370329" xlink:href="#m548483121b" y="282.81103"/>
     <use style="stroke:#000000;" x="318.251225" xlink:href="#m548483121b" y="116.200415"/>
     <use style="stroke:#000000;" x="299.214963" xlink:href="#m548483121b" y="266.836806"/>
     <use style="stroke:#000000;" x="248.045742" xlink:href="#m548483121b" y="272.570253"/>
     <use style="stroke:#000000;" x="120.019034" xlink:href="#m548483121b" y="175.938299"/>
    </g>
   </g>
   <g id="patch_3">
    <path d="M 99.676991 307.584 
L 99.676991 41.472 
" style="fill:none;stroke:#000000;stroke-linecap:square;stroke-linejoin:miter;stroke-width:0.8;"/>
   </g>
   <g id="patch_4">
    <path d="M 372.643009 307.584 
L 372.643009 41.472 
" style="fill:none;stroke:#000000;stroke-linecap:square;stroke-linejoin:miter;stroke-width:0.8;"/>
   </g>
   <g id="patch_5">
    <path d="M 99.676991 307.584 
L 372.643009 307.584 
" style="fill:none;stroke:#000000;stroke-linecap:square;stroke-linejoin:miter;stroke-width:0.8;"/>
   </g>
   <g id="patch_6">
    <path d="M 99.676991 41.472 
L 372.643009 41.472 
" style="fill:none;stroke:#000000;stroke-linecap:square;stroke-linejoin:miter;stroke-width:0.8;"/>
   </g>
   <g id="text_11">
    <!-- Delaunay Triangulation of a Noisy Circle -->
    <defs>
     <path d="M 19.671875 64.796875 
L 19.671875 8.109375 
L 31.59375 8.109375 
Q 46.6875 8.109375 53.6875 14.9375 
Q 60.6875 21.78125 60.6875 36.53125 
Q 60.6875 51.171875 53.6875 57.984375 
Q 46.6875 64.796875 31.59375 64.796875 
z
M 9.8125 72.90625 
L 30.078125 72.90625 
Q 51.265625 72.90625 61.171875 64.09375 
Q 71.09375 55.28125 71.09375 36.53125 
Q 71.09375 17.671875 61.125 8.828125 
Q 51.171875 0 30.078125 0 
L 9.8125 0 
z
" id="DejaVuSans-68"/>
     <path d="M 56.203125 29.59375 
L 56.203125 25.203125 
L 14.890625 25.203125 
Q 15.484375 15.921875 20.484375 11.0625 
Q 25.484375 6.203125 34.421875 6.203125 
Q 39.59375 6.203125 44.453125 7.46875 
Q 49.3125 8.734375 54.109375 11.28125 
L 54.109375 2.78125 
Q 49.265625 0.734375 44.1875 -0.34375 
Q 39.109375 -1.421875 33.890625 -1.421875 
Q 20.796875 -1.421875 13.15625 6.1875 
Q 5.515625 13.8125 5.515625 26.8125 
Q 5.515625 40.234375 12.765625 48.109375 
Q 20.015625 56 32.328125 56 
Q 43.359375 56 49.78125 48.890625 
Q 56.203125 41.796875 56.203125 29.59375 
z
M 47.21875 32.234375 
Q 47.125 39.59375 43.09375 43.984375 
Q 39.0625 48.390625 32.421875 48.390625 
Q 24.90625 48.390625 20.390625 44.140625 
Q 15.875 39.890625 15.1875 32.171875 
z
" id="DejaVuSans-101"/>
     <path d="M 9.421875 75.984375 
L 18.40625 75.984375 
L 18.40625 0 
L 9.421875 0 
z
" id="DejaVuSans-108"/>
     <path d="M 34.28125 27.484375 
Q 23.390625 27.484375 19.1875 25 
Q 14.984375 22.515625 14.984375 16.5 
Q 14.984375 11.71875 18.140625 8.90625 
Q 21.296875 6.109375 26.703125 6.109375 
Q 34.1875 6.109375 38.703125 11.40625 
Q 43.21875 16.703125 43.21875 25.484375 
L 43.21875 27.484375 
z
M 52.203125 31.203125 
L 52.203125 0 
L 43.21875 0 
L 43.21875 8.296875 
Q 40.140625 3.328125 35.546875 0.953125 
Q 30.953125 -1.421875 24.3125 -1.421875 
Q 15.921875 -1.421875 10.953125 3.296875 
Q 6 8.015625 6 15.921875 
Q 6 25.140625 12.171875 29.828125 
Q 18.359375 34.515625 30.609375 34.515625 
L 43.21875 34.515625 
L 43.21875 35.40625 
Q 43.21875 41.609375 39.140625 45 
Q 35.0625 48.390625 27.6875 48.390625 
Q 23 48.390625 18.546875 47.265625 
Q 14.109375 46.140625 10.015625 43.890625 
L 10.015625 52.203125 
Q 14.9375 54.109375 19.578125 55.046875 
Q 24.21875 56 28.609375 56 
Q 40.484375 56 46.34375 49.84375 
Q 52.203125 43.703125 52.203125 31.203125 
z
" id="DejaVuSans-97"/>
     <path d="M 8.5 21.578125 
L 8.5 54.6875 
L 17.484375 54.6875 
L 17.484375 21.921875 
Q 17.484375 14.15625 20.5 10.265625 
Q 23.53125 6.390625 29.59375 6.390625 
Q 36.859375 6.390625 41.078125 11.03125 
Q 45.3125 15.671875 45.3125 23.6875 
L 45.3125 54.6875 
L 54.296875 54.6875 
L 54.296875 0 
L 45.3125 0 
L 45.3125 8.40625 
Q 42.046875 3.421875 37.71875 1 
Q 33.40625 -1.421875 27.6875 -1.421875 
Q 18.265625 -1.421875 13.375 4.4375 
Q 8.5 10.296875 8.5 21.578125 
z
M 31.109375 56 
z
" id="DejaVuSans-117"/>
     <path d="M 54.890625 33.015625 
L 54.890625 0 
L 45.90625 0 
L 45.90625 32.71875 
Q 45.90625 40.484375 42.875 44.328125 
Q 39.84375 48.1875 33.796875 48.1875 
Q 26.515625 48.1875 22.3125 43.546875 
Q 18.109375 38.921875 18.109375 30.90625 
L 18.109375 0 
L 9.078125 0 
L 9.078125 54.6875 
L 18.109375 54.6875 
L 18.109375 46.1875 
Q 21.34375 51.125 25.703125 53.5625 
Q 30.078125 56 35.796875 56 
Q 45.21875 56 50.046875 50.171875 
Q 54.890625 44.34375 54.890625 33.015625 
z
" id="DejaVuSans-110"/>
     <path d="M 32.171875 -5.078125 
Q 28.375 -14.84375 24.75 -17.8125 
Q 21.140625 -20.796875 15.09375 -20.796875 
L 7.90625 -20.796875 
L 7.90625 -13.28125 
L 13.1875 -13.28125 
Q 16.890625 -13.28125 18.9375 -11.515625 
Q 21 -9.765625 23.484375 -3.21875 
L 25.09375 0.875 
L 2.984375 54.6875 
L 12.5 54.6875 
L 29.59375 11.921875 
L 46.6875 54.6875 
L 56.203125 54.6875 
z
" id="DejaVuSans-121"/>
     <path id="DejaVuSans-32"/>
     <path d="M -0.296875 72.90625 
L 61.375 72.90625 
L 61.375 64.59375 
L 35.5 64.59375 
L 35.5 0 
L 25.59375 0 
L 25.59375 64.59375 
L -0.296875 64.59375 
z
" id="DejaVuSans-84"/>
     <path d="M 41.109375 46.296875 
Q 39.59375 47.171875 37.8125 47.578125 
Q 36.03125 48 33.890625 48 
Q 26.265625 48 22.1875 43.046875 
Q 18.109375 38.09375 18.109375 28.8125 
L 18.109375 0 
L 9.078125 0 
L 9.078125 54.6875 
L 18.109375 54.6875 
L 18.109375 46.1875 
Q 20.953125 51.171875 25.484375 53.578125 
Q 30.03125 56 36.53125 56 
Q 37.453125 56 38.578125 55.875 
Q 39.703125 55.765625 41.0625 55.515625 
z
" id="DejaVuSans-114"/>
     <path d="M 9.421875 54.6875 
L 18.40625 54.6875 
L 18.40625 0 
L 9.421875 0 
z
M 9.421875 75.984375 
L 18.40625 75.984375 
L 18.40625 64.59375 
L 9.421875 64.59375 
z
" id="DejaVuSans-105"/>
     <path d="M 45.40625 27.984375 
Q 45.40625 37.75 41.375 43.109375 
Q 37.359375 48.484375 30.078125 48.484375 
Q 22.859375 48.484375 18.828125 43.109375 
Q 14.796875 37.75 14.796875 27.984375 
Q 14.796875 18.265625 18.828125 12.890625 
Q 22.859375 7.515625 30.078125 7.515625 
Q 37.359375 7.515625 41.375 12.890625 
Q 45.40625 18.265625 45.40625 27.984375 
z
M 54.390625 6.78125 
Q 54.390625 -7.171875 48.1875 -13.984375 
Q 42 -20.796875 29.203125 -20.796875 
Q 24.46875 -20.796875 20.265625 -20.09375 
Q 16.0625 -19.390625 12.109375 -17.921875 
L 12.109375 -9.1875 
Q 16.0625 -11.328125 19.921875 -12.34375 
Q 23.78125 -13.375 27.78125 -13.375 
Q 36.625 -13.375 41.015625 -8.765625 
Q 45.40625 -4.15625 45.40625 5.171875 
L 45.40625 9.625 
Q 42.625 4.78125 38.28125 2.390625 
Q 33.9375 0 27.875 0 
Q 17.828125 0 11.671875 7.65625 
Q 5.515625 15.328125 5.515625 27.984375 
Q 5.515625 40.671875 11.671875 48.328125 
Q 17.828125 56 27.875 56 
Q 33.9375 56 38.28125 53.609375 
Q 42.625 51.21875 45.40625 46.390625 
L 45.40625 54.6875 
L 54.390625 54.6875 
z
" id="DejaVuSans-103"/>
     <path d="M 18.3125 70.21875 
L 18.3125 54.6875 
L 36.8125 54.6875 
L 36.8125 47.703125 
L 18.3125 47.703125 
L 18.3125 18.015625 
Q 18.3125 11.328125 20.140625 9.421875 
Q 21.96875 7.515625 27.59375 7.515625 
L 36.8125 7.515625 
L 36.8125 0 
L 27.59375 0 
Q 17.1875 0 13.234375 3.875 
Q 9.28125 7.765625 9.28125 18.015625 
L 9.28125 47.703125 
L 2.6875 47.703125 
L 2.6875 54.6875 
L 9.28125 54.6875 
L 9.28125 70.21875 
z
" id="DejaVuSans-116"/>
     <path d="M 30.609375 48.390625 
Q 23.390625 48.390625 19.1875 42.75 
Q 14.984375 37.109375 14.984375 27.296875 
Q 14.984375 17.484375 19.15625 11.84375 
Q 23.34375 6.203125 30.609375 6.203125 
Q 37.796875 6.203125 41.984375 11.859375 
Q 46.1875 17.53125 46.1875 27.296875 
Q 46.1875 37.015625 41.984375 42.703125 
Q 37.796875 48.390625 30.609375 48.390625 
z
M 30.609375 56 
Q 42.328125 56 49.015625 48.375 
Q 55.71875 40.765625 55.71875 27.296875 
Q 55.71875 13.875 49.015625 6.21875 
Q 42.328125 -1.421875 30.609375 -1.421875 
Q 18.84375 -1.421875 12.171875 6.21875 
Q 5.515625 13.875 5.515625 27.296875 
Q 5.515625 40.765625 12.171875 48.375 
Q 18.84375 56 30.609375 56 
z
" id="DejaVuSans-111"/>
     <path d="M 37.109375 75.984375 
L 37.109375 68.5 
L 28.515625 68.5 
Q 23.6875 68.5 21.796875 66.546875 
Q 19.921875 64.59375 19.921875 59.515625 
L 19.921875 54.6875 
L 34.71875 54.6875 
L 34.71875 47.703125 
L 19.921875 47.703125 
L 19.921875 0 
L 10.890625 0 
L 10.890625 47.703125 
L 2.296875 47.703125 
L 2.296875 54.6875 
L 10.890625 54.6875 
L 10.890625 58.5 
Q 10.890625 67.625 15.140625 71.796875 
Q 19.390625 75.984375 28.609375 75.984375 
z
" id="DejaVuSans-102"/>
     <path d="M 9.8125 72.90625 
L 23.09375 72.90625 
L 55.421875 11.921875 
L 55.421875 72.90625 
L 64.984375 72.90625 
L 64.984375 0 
L 51.703125 0 
L 19.390625 60.984375 
L 19.390625 0 
L 9.8125 0 
z
" id="DejaVuSans-78"/>
     <path d="M 44.28125 53.078125 
L 44.28125 44.578125 
Q 40.484375 46.53125 36.375 47.5 
Q 32.28125 48.484375 27.875 48.484375 
Q 21.1875 48.484375 17.84375 46.4375 
Q 14.5 44.390625 14.5 40.28125 
Q 14.5 37.15625 16.890625 35.375 
Q 19.28125 33.59375 26.515625 31.984375 
L 29.59375 31.296875 
Q 39.15625 29.25 43.1875 25.515625 
Q 47.21875 21.78125 47.21875 15.09375 
Q 47.21875 7.46875 41.1875 3.015625 
Q 35.15625 -1.421875 24.609375 -1.421875 
Q 20.21875 -1.421875 15.453125 -0.5625 
Q 10.6875 0.296875 5.421875 2 
L 5.421875 11.28125 
Q 10.40625 8.6875 15.234375 7.390625 
Q 20.0625 6.109375 24.8125 6.109375 
Q 31.15625 6.109375 34.5625 8.28125 
Q 37.984375 10.453125 37.984375 14.40625 
Q 37.984375 18.0625 35.515625 20.015625 
Q 33.0625 21.96875 24.703125 23.78125 
L 21.578125 24.515625 
Q 13.234375 26.265625 9.515625 29.90625 
Q 5.8125 33.546875 5.8125 39.890625 
Q 5.8125 47.609375 11.28125 51.796875 
Q 16.75 56 26.8125 56 
Q 31.78125 56 36.171875 55.265625 
Q 40.578125 54.546875 44.28125 53.078125 
z
" id="DejaVuSans-115"/>
     <path d="M 64.40625 67.28125 
L 64.40625 56.890625 
Q 59.421875 61.53125 53.78125 63.8125 
Q 48.140625 66.109375 41.796875 66.109375 
Q 29.296875 66.109375 22.65625 58.46875 
Q 16.015625 50.828125 16.015625 36.375 
Q 16.015625 21.96875 22.65625 14.328125 
Q 29.296875 6.6875 41.796875 6.6875 
Q 48.140625 6.6875 53.78125 8.984375 
Q 59.421875 11.28125 64.40625 15.921875 
L 64.40625 5.609375 
Q 59.234375 2.09375 53.4375 0.328125 
Q 47.65625 -1.421875 41.21875 -1.421875 
Q 24.65625 -1.421875 15.125 8.703125 
Q 5.609375 18.84375 5.609375 36.375 
Q 5.609375 53.953125 15.125 64.078125 
Q 24.65625 74.21875 41.21875 74.21875 
Q 47.75 74.21875 53.53125 72.484375 
Q 59.328125 70.75 64.40625 67.28125 
z
" id="DejaVuSans-67"/>
     <path d="M 48.78125 52.59375 
L 48.78125 44.1875 
Q 44.96875 46.296875 41.140625 47.34375 
Q 37.3125 48.390625 33.40625 48.390625 
Q 24.65625 48.390625 19.8125 42.84375 
Q 14.984375 37.3125 14.984375 27.296875 
Q 14.984375 17.28125 19.8125 11.734375 
Q 24.65625 6.203125 33.40625 6.203125 
Q 37.3125 6.203125 41.140625 7.25 
Q 44.96875 8.296875 48.78125 10.40625 
L 48.78125 2.09375 
Q 45.015625 0.34375 40.984375 -0.53125 
Q 36.96875 -1.421875 32.421875 -1.421875 
Q 20.0625 -1.421875 12.78125 6.34375 
Q 5.515625 14.109375 5.515625 27.296875 
Q 5.515625 40.671875 12.859375 48.328125 
Q 20.21875 56 33.015625 56 
Q 37.15625 56 41.109375 55.140625 
Q 45.0625 54.296875 48.78125 52.59375 
z
" id="DejaVuSans-99"/>
    </defs>
    <g transform="translate(116.48625 35.472)scale(0.12 -0.12)">
     <use xlink:href="#DejaVuSans-68"/>
     <use x="77.001953" xlink:href="#DejaVuSans-101"/>
     <use x="138.525391" xlink:href="#DejaVuSans-108"/>
     <use x="166.308594" xlink:href="#DejaVuSans-97"/>
     <use x="227.587891" xlink:href="#DejaVuSans-117"/>
     <use x="290.966797" xlink:href="#DejaVuSans-110"/>
     <use x="354.345703" xlink:href="#DejaVuSans-97"/>
     <use x="415.625" xlink:href="#DejaVuSans-121"/>
     <use x="474.804688" xlink:href="#DejaVuSans-32"/>
     <use x="506.591797" xlink:href="#DejaVuSans-84"/>
     <use x="552.925781" xlink:href="#DejaVuSans-114"/>
     <use x="594.039062" xlink:href="#DejaVuSans-105"/>
     <use x="621.822266" xlink:href="#DejaVuSans-97"/>
     <use x="683.101562" xlink:href="#DejaVuSans-110"/>
     <use x="746.480469" xlink:href="#DejaVuSans-103"/>
     <use x="809.957031" xlink:href="#DejaVuSans-117"/>
     <use x="873.335938" xlink:href="#DejaVuSans-108"/>
     <use x="901.119141" xlink:href="#DejaVuSans-97"/>
     <use x="962.398438" xlink:href="#DejaVuSans-116"/>
     <use x="1001.607422" xlink:href="#DejaVuSans-105"/>
     <use x="1029.390625" xlink:href="#DejaVuSans-111"/>
     <use x="1090.572266" xlink:href="#DejaVuSans-110"/>
     <use x="1153.951172" xlink:href="#DejaVuSans-32"/>
     <use x="1185.738281" xlink:href="#DejaVuSans-111"/>
     <use x="1246.919922" xlink:href="#DejaVuSans-102"/>
     <use x="1282.125" xlink:href="#DejaVuSans-32"/>
     <use x="1313.912109" xlink:href="#DejaVuSans-97"/>
     <use x="1375.191406" xlink:href="#DejaVuSans-32"/>
     <use x="1406.978516" xlink:href="#DejaVuSans-78"/>
     <use x="1481.783203" xlink:href="#DejaVuSans-111"/>
     <use x="1542.964844" xlink:href="#DejaVuSans-105"/>
     <use x="1570.748047" xlink:href="#DejaVuSans-115"/>
     <use x="1622.847656" xlink:href="#DejaVuSans-121"/>
     <use x="1682.027344" xlink:href="#DejaVuSans-32"/>
     <use x="1713.814453" xlink:href="#DejaVuSans-67"/>
     <use x="1783.638672" xlink:href="#DejaVuSans-105"/>
     <use x="1811.421875" xlink:href="#DejaVuSans-114"/>
     <use x="1850.285156" xlink:href="#DejaVuSans-99"/>
     <use x="1905.265625" xlink:href="#DejaVuSans-108"/>
     <use x="1933.048828" xlink:href="#DejaVuSans-101"/>
    </g>
   </g>
  </g>
 </g>
 <defs>
  <clipPath id="pce23104c09">
   <rect height="266.112" width="272.966018" x="99.676991" y="41.472"/>
  </clipPath>
 </defs>
</svg>
